STARTFONT 2.1
COMMENT
COMMENT Converted from OpenType font "ibmplex.ttf" by "otf2bdf 3.0".
COMMENT
FONT -FreeType-IBM Plex Sans Thin-Medium-R-Normal--39-280-100-100-P-172-ISO10646-1
SIZE 28 100 100
FONTBOUNDINGBOX 51 50 -6 -8
STARTPROPERTIES 19
FOUNDRY "FreeType"
FAMILY_NAME "IBM Plex Sans Thin"
WEIGHT_NAME "Medium"
SLANT "R"
SETWIDTH_NAME "Normal"
ADD_STYLE_NAME ""
PIXEL_SIZE 39
POINT_SIZE 280
RESOLUTION_X 100
RESOLUTION_Y 100
SPACING "P"
AVERAGE_WIDTH 172
CHARSET_REGISTRY "ISO10646"
CHARSET_ENCODING "1"
FONT_ASCENT 39
FONT_DESCENT 10
COPYRIGHT "Copyright 2018 IBM Corp. All rights reserved."
_OTF_FONTFILE "ibmplex.ttf"
_OTF_PSNAME "IBMPlexSans-Thin"
ENDPROPERTIES
CHARS 826
STARTCHAR 0000
ENCODING 0
SWIDTH 0 0
DWIDTH 0 0
BBX 0 0 0 0
BITMAP
ENDCHAR
STARTCHAR 000D
ENCODING 13
SWIDTH 231 0
DWIDTH 9 0
BBX 0 0 0 0
BITMAP
ENDCHAR
STARTCHAR 0020
ENCODING 32
SWIDTH 231 0
DWIDTH 9 0
BBX 0 0 0 0
BITMAP
ENDCHAR
STARTCHAR 0021
ENCODING 33
SWIDTH 231 0
DWIDTH 9 0
BBX 2 27 4 0
BITMAP
80
80
80
80
80
80
80
80
80
80
80
80
80
80
80
80
80
80
80
80
00
00
00
00
00
C0
C0
ENDCHAR
STARTCHAR 0022
ENCODING 34
SWIDTH 360 0
DWIDTH 14 0
BBX 7 10 4 19
BITMAP
82
82
82
82
82
82
82
82
82
82
ENDCHAR
STARTCHAR 0023
ENCODING 35
SWIDTH 694 0
DWIDTH 27 0
BBX 22 27 3 0
BITMAP
008040
008080
008080
008080
008080
008080
010100
010100
7FFFFC
010100
010100
010100
020200
020200
020200
020200
020200
020200
FDFDF0
040400
040400
040400
040400
040400
080800
080800
080800
ENDCHAR
STARTCHAR 0024
ENCODING 36
SWIDTH 540 0
DWIDTH 21 0
BBX 17 33 2 -3
BITMAP
008000
008000
008000
0FF800
308600
408300
408180
808000
808000
808000
808000
808000
408000
208000
188000
078000
00F800
008600
008300
008100
008080
008080
008080
008080
008080
808080
C08100
608300
188400
07F800
008000
008000
008000
ENDCHAR
STARTCHAR 0025
ENCODING 37
SWIDTH 874 0
DWIDTH 34 0
BBX 28 28 3 0
BITMAP
04000000
31800100
40400200
40400400
80200800
80200800
80201000
80202000
80202000
80204000
80208000
80408000
40410000
40820000
3B020FC0
04041020
00082010
00102010
00104010
00204010
00404010
00404010
00804010
01004010
01002010
02002010
04001020
04000FC0
ENDCHAR
STARTCHAR 0026
ENCODING 38
SWIDTH 668 0
DWIDTH 26 0
BBX 22 28 3 0
BITMAP
00C000
073800
080400
100200
100200
200200
200200
200200
100200
100400
080800
0C3000
044000
038000
0D007C
108040
204040
402040
801040
800840
800480
800280
800180
800180
800140
400220
200C10
1FF008
ENDCHAR
STARTCHAR 0027
ENCODING 39
SWIDTH 205 0
DWIDTH 8 0
BBX 1 10 4 19
BITMAP
80
80
80
80
80
80
80
80
80
80
ENDCHAR
STARTCHAR 0028
ENCODING 40
SWIDTH 308 0
DWIDTH 12 0
BBX 8 35 4 -5
BITMAP
01
02
04
08
08
10
10
20
20
40
40
40
80
80
80
80
80
80
80
80
80
80
80
80
40
40
40
20
20
10
10
08
04
04
03
ENDCHAR
STARTCHAR 0029
ENCODING 41
SWIDTH 308 0
DWIDTH 12 0
BBX 8 35 1 -5
BITMAP
80
40
20
20
10
08
08
04
04
04
02
02
02
02
01
01
01
01
01
01
01
01
02
02
02
02
04
04
04
08
08
10
20
40
C0
ENDCHAR
STARTCHAR 002A
ENCODING 42
SWIDTH 360 0
DWIDTH 14 0
BBX 12 12 1 17
BITMAP
0400
0400
0400
0400
8410
74E0
0F00
0600
0900
1080
1080
2040
ENDCHAR
STARTCHAR 002B
ENCODING 43
SWIDTH 591 0
DWIDTH 23 0
BBX 17 19 3 2
BITMAP
008000
008000
008000
008000
008000
008000
008000
008000
008000
FFFF80
008000
008000
008000
008000
008000
008000
008000
008000
008000
ENDCHAR
STARTCHAR 002C
ENCODING 44
SWIDTH 231 0
DWIDTH 9 0
BBX 4 8 2 -6
BITMAP
30
30
10
20
20
40
40
80
ENDCHAR
STARTCHAR 002D
ENCODING 45
SWIDTH 385 0
DWIDTH 15 0
BBX 9 1 3 11
BITMAP
FF80
ENDCHAR
STARTCHAR 002E
ENCODING 46
SWIDTH 231 0
DWIDTH 9 0
BBX 2 2 4 0
BITMAP
C0
C0
ENDCHAR
STARTCHAR 002F
ENCODING 47
SWIDTH 308 0
DWIDTH 12 0
BBX 9 33 1 -5
BITMAP
0080
0080
0080
0100
0100
0100
0100
0200
0200
0200
0200
0400
0400
0400
0800
0800
0800
0800
1000
1000
1000
1000
2000
2000
2000
2000
4000
4000
4000
8000
8000
8000
8000
ENDCHAR
STARTCHAR 0030
ENCODING 48
SWIDTH 591 0
DWIDTH 23 0
BBX 18 28 3 0
BITMAP
00C000
0E3800
100400
200200
200100
400100
400080
800080
800080
800080
800080
800080
800040
800040
800040
800040
800040
800080
800080
800080
800080
800080
400080
400100
200100
200200
100400
0FF800
ENDCHAR
STARTCHAR 0031
ENCODING 49
SWIDTH 591 0
DWIDTH 23 0
BBX 17 27 4 0
BITMAP
018000
028000
0C8000
108000
208000
408000
808000
008000
008000
008000
008000
008000
008000
008000
008000
008000
008000
008000
008000
008000
008000
008000
008000
008000
008000
008000
FFFF80
ENDCHAR
STARTCHAR 0032
ENCODING 50
SWIDTH 591 0
DWIDTH 23 0
BBX 17 28 3 0
BITMAP
00C000
0E3800
100400
200200
400200
400100
000100
000100
000100
000100
000100
000200
000200
000400
000400
000800
001000
002000
004000
008000
010000
020000
040000
080000
100000
200000
400000
FFFF80
ENDCHAR
STARTCHAR 0033
ENCODING 51
SWIDTH 591 0
DWIDTH 23 0
BBX 16 28 3 0
BITMAP
0180
0E38
300C
4006
4002
0002
0002
0002
0002
0002
0002
0004
0008
0FF0
0038
0004
0002
0002
0001
0001
0001
0001
0001
0001
8002
4002
200C
1FF0
ENDCHAR
STARTCHAR 0034
ENCODING 52
SWIDTH 591 0
DWIDTH 23 0
BBX 19 27 2 0
BITMAP
000600
000600
000A00
001200
002200
002200
004200
008200
008200
010200
020200
020200
040200
080200
080200
100200
200200
400200
400200
800200
FFFFE0
000200
000200
000200
000200
000200
000200
ENDCHAR
STARTCHAR 0035
ENCODING 53
SWIDTH 591 0
DWIDTH 23 0
BBX 17 27 3 0
BITMAP
3FFF00
200000
200000
200000
200000
200000
200000
200000
200000
200000
400000
47F000
580C00
600200
000100
000100
000100
000080
000080
000080
000080
000100
000100
800100
400200
300400
0FF800
ENDCHAR
STARTCHAR 0036
ENCODING 54
SWIDTH 591 0
DWIDTH 23 0
BBX 17 27 3 0
BITMAP
003000
004000
018000
020000
040000
040000
080000
100000
100000
200000
200000
47F000
580C00
600200
C00100
400100
C00080
800080
800080
800080
800080
400080
400100
400100
200200
100400
0FF800
ENDCHAR
STARTCHAR 0037
ENCODING 55
SWIDTH 591 0
DWIDTH 23 0
BBX 17 27 3 0
BITMAP
FFFF80
800080
800100
800100
800200
800200
800400
000400
000800
000800
000800
001000
001000
002000
002000
004000
004000
008000
008000
008000
010000
010000
020000
020000
040000
040000
080000
ENDCHAR
STARTCHAR 0038
ENCODING 56
SWIDTH 591 0
DWIDTH 23 0
BBX 18 28 3 0
BITMAP
008000
0E3800
100600
200100
400100
400100
400080
400080
400080
400100
400100
200200
180400
07F800
0C1C00
300200
400100
800080
800080
800080
800040
800040
800080
800080
400080
400100
300200
0FFC00
ENDCHAR
STARTCHAR 0039
ENCODING 57
SWIDTH 591 0
DWIDTH 23 0
BBX 16 28 4 0
BITMAP
0180
1C70
200C
4004
8002
8002
8001
8001
8001
8001
8001
8001
8003
4003
6005
101A
0FE2
0002
0004
0004
0008
0010
0010
0020
0040
0080
0300
0400
ENDCHAR
STARTCHAR 003A
ENCODING 58
SWIDTH 257 0
DWIDTH 10 0
BBX 2 20 4 0
BITMAP
C0
C0
00
00
00
00
00
00
00
00
00
00
00
00
00
00
00
00
C0
C0
ENDCHAR
STARTCHAR 003B
ENCODING 59
SWIDTH 257 0
DWIDTH 10 0
BBX 3 25 3 -6
BITMAP
60
60
00
00
00
00
00
00
00
00
00
00
00
00
00
00
00
00
60
60
20
20
40
40
80
ENDCHAR
STARTCHAR 003C
ENCODING 60
SWIDTH 591 0
DWIDTH 23 0
BBX 17 20 3 1
BITMAP
000080
000300
000C00
001000
006000
018000
020000
0C0000
300000
400000
C00000
200000
180000
060000
010000
00C000
003000
000C00
000200
000180
ENDCHAR
STARTCHAR 003D
ENCODING 61
SWIDTH 591 0
DWIDTH 23 0
BBX 19 8 2 8
BITMAP
FFFFE0
000000
000000
000000
000000
000000
000000
FFFFE0
ENDCHAR
STARTCHAR 003E
ENCODING 62
SWIDTH 591 0
DWIDTH 23 0
BBX 17 20 3 1
BITMAP
C00000
200000
180000
060000
010000
00C000
003000
000800
000600
000180
000080
000300
000C00
001000
006000
018000
020000
0C0000
300000
400000
ENDCHAR
STARTCHAR 003F
ENCODING 63
SWIDTH 437 0
DWIDTH 17 0
BBX 14 28 2 0
BITMAP
0300
1C60
6018
4008
8004
8004
0004
0004
0004
0004
0004
0008
0008
0020
03C0
0200
0200
0200
0200
0200
0200
0000
0000
0000
0000
0000
0600
0600
ENDCHAR
STARTCHAR 0040
ENCODING 64
SWIDTH 874 0
DWIDTH 34 0
BBX 28 33 3 -5
BITMAP
000F0000
00F0F000
01000C00
06000200
08000180
10000080
20000040
20000020
400F0020
4030D010
80403010
80801010
80801010
81001010
81001010
81001010
81001010
81001010
81001010
81001010
80801010
80801010
80803020
40404820
403984C0
20060300
20000000
10000000
08000000
04000000
03000000
00C00000
003FFE00
ENDCHAR
STARTCHAR 0041
ENCODING 65
SWIDTH 591 0
DWIDTH 23 0
BBX 21 27 1 0
BITMAP
002000
005000
005000
004800
008800
008800
008400
010400
010400
020200
020200
020200
040100
040100
040080
080080
080080
0FFFC0
100040
100040
100020
200020
200020
400010
400010
400008
800008
ENDCHAR
STARTCHAR 0042
ENCODING 66
SWIDTH 591 0
DWIDTH 23 0
BBX 17 27 4 0
BITMAP
FFF800
800600
800200
800100
800100
800100
800100
800100
800100
800100
800200
800400
FFF800
800600
800100
800100
800080
800080
800080
800080
800080
800080
800080
800080
800100
800200
FFFC00
ENDCHAR
STARTCHAR 0043
ENCODING 67
SWIDTH 591 0
DWIDTH 23 0
BBX 18 28 3 0
BITMAP
006000
071C00
080300
100080
200080
400040
400000
800000
800000
800000
800000
800000
800000
800000
800000
800000
800000
800000
800000
800000
800000
800000
400000
400040
200080
100080
080300
07FC00
ENDCHAR
STARTCHAR 0044
ENCODING 68
SWIDTH 642 0
DWIDTH 25 0
BBX 19 27 4 0
BITMAP
FFF000
800C00
800300
800100
800080
800040
800040
800040
800040
800020
800020
800020
800020
800020
800020
800020
800020
800020
800040
800040
800040
800080
800080
800100
800200
800C00
FFF000
ENDCHAR
STARTCHAR 0045
ENCODING 69
SWIDTH 540 0
DWIDTH 21 0
BBX 15 27 4 0
BITMAP
FFFE
8000
8000
8000
8000
8000
8000
8000
8000
8000
8000
8000
8000
FFFE
8000
8000
8000
8000
8000
8000
8000
8000
8000
8000
8000
8000
FFFE
ENDCHAR
STARTCHAR 0046
ENCODING 70
SWIDTH 514 0
DWIDTH 20 0
BBX 15 27 4 0
BITMAP
FFFE
8000
8000
8000
8000
8000
8000
8000
8000
8000
8000
8000
8000
FFFC
8000
8000
8000
8000
8000
8000
8000
8000
8000
8000
8000
8000
8000
ENDCHAR
STARTCHAR 0047
ENCODING 71
SWIDTH 642 0
DWIDTH 25 0
BBX 20 28 3 0
BITMAP
006000
078E00
080100
1000C0
200040
400020
400000
800000
800000
800000
800000
800000
800000
800000
800000
800FF0
800010
800010
800010
800010
800010
400010
400010
400030
200050
100050
080190
07FE10
ENDCHAR
STARTCHAR 0048
ENCODING 72
SWIDTH 668 0
DWIDTH 26 0
BBX 19 27 4 0
BITMAP
800020
800020
800020
800020
800020
800020
800020
800020
800020
800020
800020
800020
800020
FFFFE0
800020
800020
800020
800020
800020
800020
800020
800020
800020
800020
800020
800020
800020
ENDCHAR
STARTCHAR 0049
ENCODING 73
SWIDTH 360 0
DWIDTH 14 0
BBX 9 27 3 0
BITMAP
FF80
0800
0800
0800
0800
0800
0800
0800
0800
0800
0800
0800
0800
0800
0800
0800
0800
0800
0800
0800
0800
0800
0800
0800
0800
0800
FF80
ENDCHAR
STARTCHAR 004A
ENCODING 74
SWIDTH 462 0
DWIDTH 18 0
BBX 13 27 1 0
BITMAP
1FF8
0008
0008
0008
0008
0008
0008
0008
0008
0008
0008
0008
0008
0008
0008
0008
0008
0008
0008
0008
0008
0008
8008
8008
4010
6020
1FC0
ENDCHAR
STARTCHAR 004B
ENCODING 75
SWIDTH 565 0
DWIDTH 22 0
BBX 17 27 4 0
BITMAP
800080
800100
800200
800400
800800
801000
802000
804000
808000
818000
810000
820000
850000
890000
908000
A04000
C04000
802000
801000
801000
800800
800400
800400
800200
800100
800100
800080
ENDCHAR
STARTCHAR 004C
ENCODING 76
SWIDTH 462 0
DWIDTH 18 0
BBX 14 27 4 0
BITMAP
8000
8000
8000
8000
8000
8000
8000
8000
8000
8000
8000
8000
8000
8000
8000
8000
8000
8000
8000
8000
8000
8000
8000
8000
8000
8000
FFFC
ENDCHAR
STARTCHAR 004D
ENCODING 77
SWIDTH 771 0
DWIDTH 30 0
BBX 23 27 4 0
BITMAP
C00006
C0000A
A0000A
900012
900012
880022
840042
840042
820082
820082
810102
808202
808202
804402
804402
802802
801002
801002
800002
800002
800002
800002
800002
800002
800002
800002
800002
ENDCHAR
STARTCHAR 004E
ENCODING 78
SWIDTH 668 0
DWIDTH 26 0
BBX 19 27 4 0
BITMAP
C00020
C00020
A00020
900020
900020
880020
840020
840020
820020
820020
810020
808020
808020
804020
802020
802020
801020
801820
800820
800420
800420
800220
800120
800120
8000A0
800060
800060
ENDCHAR
STARTCHAR 004F
ENCODING 79
SWIDTH 668 0
DWIDTH 26 0
BBX 21 28 3 0
BITMAP
006000
078E00
080180
1000C0
200040
400020
400020
800010
800010
800010
800010
800008
800008
800008
800008
800008
800008
800008
800010
800010
800010
400010
400020
400020
200040
1000C0
080180
07FE00
ENDCHAR
STARTCHAR 0050
ENCODING 80
SWIDTH 591 0
DWIDTH 23 0
BBX 17 27 4 0
BITMAP
FFFC00
800200
800100
800080
800080
800080
800080
800080
800080
800080
800080
800100
800300
800C00
FFF000
800000
800000
800000
800000
800000
800000
800000
800000
800000
800000
800000
800000
ENDCHAR
STARTCHAR 0051
ENCODING 81
SWIDTH 668 0
DWIDTH 26 0
BBX 21 34 3 -6
BITMAP
006000
078E00
080180
1000C0
200040
400020
400020
800010
800010
800010
800010
800008
800008
800008
800008
800008
800008
800008
800010
800010
800010
400010
400020
400020
200040
1000C0
080100
070E00
00F000
002000
002000
002000
002000
003E00
ENDCHAR
STARTCHAR 0052
ENCODING 82
SWIDTH 617 0
DWIDTH 24 0
BBX 18 27 4 0
BITMAP
FFFC00
800200
800100
800080
800080
800080
800080
800080
800080
800080
800080
800100
800300
800C00
FFF000
802000
801000
801000
800800
800400
800400
800200
800200
800100
800080
800080
800040
ENDCHAR
STARTCHAR 0053
ENCODING 83
SWIDTH 540 0
DWIDTH 21 0
BBX 17 28 2 0
BITMAP
00C000
1E3C00
200200
400100
400000
800000
800000
800000
800000
800000
400000
200000
100000
0F0000
00F000
000C00
000200
000100
000080
000080
000080
000080
000080
000080
800100
400100
300200
0FFC00
ENDCHAR
STARTCHAR 0054
ENCODING 84
SWIDTH 540 0
DWIDTH 21 0
BBX 20 27 1 0
BITMAP
FFFFF0
004000
004000
004000
004000
004000
004000
004000
004000
004000
004000
004000
004000
004000
004000
004000
004000
004000
004000
004000
004000
004000
004000
004000
004000
004000
004000
ENDCHAR
STARTCHAR 0055
ENCODING 85
SWIDTH 642 0
DWIDTH 25 0
BBX 17 27 4 0
BITMAP
800080
800080
800080
800080
800080
800080
800080
800080
800080
800080
800080
800080
800080
800080
800080
800080
800080
800080
800080
800080
800080
800080
800080
400100
600100
300200
0FFC00
ENDCHAR
STARTCHAR 0056
ENCODING 86
SWIDTH 565 0
DWIDTH 22 0
BBX 20 27 1 0
BITMAP
800010
400020
400020
400020
200040
200040
200040
100080
100080
100080
080100
080100
080100
040200
040200
040200
020400
020400
020400
010800
010800
018800
009000
009000
005000
006000
006000
ENDCHAR
STARTCHAR 0057
ENCODING 87
SWIDTH 848 0
DWIDTH 33 0
BBX 32 27 1 0
BITMAP
80018001
40018002
40028002
40024002
40024002
20024004
20044004
20042004
20042008
10082008
10081008
10081008
10081010
08101010
08100810
08100810
08100820
04200420
04200420
04200420
02400440
02400240
02400240
02400280
01800280
01800180
01800180
ENDCHAR
STARTCHAR 0058
ENCODING 88
SWIDTH 540 0
DWIDTH 21 0
BBX 19 27 1 0
BITMAP
400020
200040
2000C0
100080
080100
080300
040200
020400
020C00
010800
009000
00A000
006000
006000
00A000
009000
010800
020800
020400
040200
080200
080100
100080
200080
200040
400020
800020
ENDCHAR
STARTCHAR 0059
ENCODING 89
SWIDTH 540 0
DWIDTH 21 0
BBX 19 27 1 0
BITMAP
800020
400040
400040
200080
100080
100100
080200
080200
040400
020400
020800
011000
011000
00A000
006000
004000
004000
004000
004000
004000
004000
004000
004000
004000
004000
004000
004000
ENDCHAR
STARTCHAR 005A
ENCODING 90
SWIDTH 540 0
DWIDTH 21 0
BBX 19 27 2 0
BITMAP
FFFFC0
000080
000100
000100
000200
000400
000400
000800
001000
001000
002000
004000
004000
008000
010000
010000
020000
040000
040000
080000
100000
100000
200000
400000
400000
800000
FFFFE0
ENDCHAR
STARTCHAR 005B
ENCODING 91
SWIDTH 282 0
DWIDTH 11 0
BBX 5 35 4 -5
BITMAP
F8
80
80
80
80
80
80
80
80
80
80
80
80
80
80
80
80
80
80
80
80
80
80
80
80
80
80
80
80
80
80
80
80
80
F8
ENDCHAR
STARTCHAR 005C
ENCODING 92
SWIDTH 308 0
DWIDTH 12 0
BBX 9 33 2 -5
BITMAP
8000
8000
8000
8000
4000
4000
4000
2000
2000
2000
2000
1000
1000
1000
1000
0800
0800
0800
0800
0400
0400
0400
0400
0200
0200
0200
0100
0100
0100
0100
0080
0080
0080
ENDCHAR
STARTCHAR 005D
ENCODING 93
SWIDTH 282 0
DWIDTH 11 0
BBX 5 35 3 -5
BITMAP
F8
08
08
08
08
08
08
08
08
08
08
08
08
08
08
08
08
08
08
08
08
08
08
08
08
08
08
08
08
08
08
08
08
08
F8
ENDCHAR
STARTCHAR 005E
ENCODING 94
SWIDTH 591 0
DWIDTH 23 0
BBX 17 14 3 13
BITMAP
008000
014000
012000
022000
041000
040800
080800
080400
100400
200200
200100
400100
400080
800080
ENDCHAR
STARTCHAR 005F
ENCODING 95
SWIDTH 565 0
DWIDTH 22 0
BBX 18 1 2 -6
BITMAP
FFFFC0
ENDCHAR
STARTCHAR 0060
ENCODING 96
SWIDTH 591 0
DWIDTH 23 0
BBX 5 6 8 23
BITMAP
80
40
20
20
10
08
ENDCHAR
STARTCHAR 0061
ENCODING 97
SWIDTH 514 0
DWIDTH 20 0
BBX 17 20 2 0
BITMAP
0FE000
101000
200800
400400
000400
000400
000400
000400
000400
03FC00
180400
600400
400400
800400
800400
800400
800400
400C00
601400
1FE780
ENDCHAR
STARTCHAR 0062
ENCODING 98
SWIDTH 540 0
DWIDTH 21 0
BBX 16 29 4 0
BITMAP
8000
8000
8000
8000
8000
8000
8000
8000
8000
8FE0
B018
C00C
C004
8002
8002
8002
8002
8001
8001
8001
8001
8001
8002
8002
8002
8004
C004
A008
9FE0
ENDCHAR
STARTCHAR 0063
ENCODING 99
SWIDTH 462 0
DWIDTH 18 0
BBX 15 20 2 0
BITMAP
07F0
1808
2004
2002
4000
4000
8000
8000
8000
8000
8000
8000
8000
8000
4000
4000
4000
2002
1004
0FF8
ENDCHAR
STARTCHAR 0064
ENCODING 100
SWIDTH 540 0
DWIDTH 21 0
BBX 16 29 2 0
BITMAP
0001
0001
0001
0001
0001
0001
0001
0001
0001
07F1
180D
2005
2003
4001
4001
8001
8001
8001
8001
8001
8001
8001
8001
4001
4001
6001
2003
1005
0FF1
ENDCHAR
STARTCHAR 0065
ENCODING 101
SWIDTH 514 0
DWIDTH 20 0
BBX 16 20 2 0
BITMAP
07F0
1808
2004
2002
4002
4001
8001
8001
8001
FFFF
8000
8000
8000
8000
4000
4001
6002
2002
1004
0FF8
ENDCHAR
STARTCHAR 0066
ENCODING 102
SWIDTH 282 0
DWIDTH 11 0
BBX 9 29 1 0
BITMAP
0F80
0800
0800
0800
0800
0800
0800
0800
0800
FF80
0800
0800
0800
0800
0800
0800
0800
0800
0800
0800
0800
0800
0800
0800
0800
0800
0800
0800
0800
ENDCHAR
STARTCHAR 0067
ENCODING 103
SWIDTH 514 0
DWIDTH 20 0
BBX 18 30 2 -8
BITMAP
0007C0
000800
07E800
181800
100400
200400
200200
400200
400200
400200
200200
200400
100400
080800
07F000
180000
200000
200000
200000
300000
0FFE00
300100
400080
800080
800080
800080
800080
400080
600300
1FFC00
ENDCHAR
STARTCHAR 0068
ENCODING 104
SWIDTH 540 0
DWIDTH 21 0
BBX 14 29 4 0
BITMAP
8000
8000
8000
8000
8000
8000
8000
8000
8000
8FC0
B030
C008
8008
8004
8004
8004
8004
8004
8004
8004
8004
8004
8004
8004
8004
8004
8004
8004
8004
ENDCHAR
STARTCHAR 0069
ENCODING 105
SWIDTH 205 0
DWIDTH 8 0
BBX 1 28 4 0
BITMAP
80
80
00
00
00
00
00
00
80
80
80
80
80
80
80
80
80
80
80
80
80
80
80
80
80
80
80
80
ENDCHAR
STARTCHAR 006A
ENCODING 106
SWIDTH 205 0
DWIDTH 8 0
BBX 4 36 1 -8
BITMAP
10
10
00
00
00
00
00
00
10
10
10
10
10
10
10
10
10
10
10
10
10
10
10
10
10
10
10
10
10
10
10
10
10
10
10
F0
ENDCHAR
STARTCHAR 006B
ENCODING 107
SWIDTH 488 0
DWIDTH 19 0
BBX 14 29 4 0
BITMAP
8000
8000
8000
8000
8000
8000
8000
8000
8000
8008
8010
8020
8040
8080
8100
8200
8400
8800
9400
A400
C200
8100
8080
8040
8020
8020
8010
8008
8004
ENDCHAR
STARTCHAR 006C
ENCODING 108
SWIDTH 231 0
DWIDTH 9 0
BBX 4 29 4 0
BITMAP
80
80
80
80
80
80
80
80
80
80
80
80
80
80
80
80
80
80
80
80
80
80
80
80
80
80
80
80
F0
ENDCHAR
STARTCHAR 006D
ENCODING 109
SWIDTH 874 0
DWIDTH 34 0
BBX 26 20 4 0
BITMAP
8FC0FE00
B0310100
C0120080
800C0040
80040040
80040040
80040040
80040040
80040040
80040040
80040040
80040040
80040040
80040040
80040040
80040040
80040040
80040040
80040040
80040040
ENDCHAR
STARTCHAR 006E
ENCODING 110
SWIDTH 540 0
DWIDTH 21 0
BBX 14 20 4 0
BITMAP
8FC0
B030
C008
8008
8004
8004
8004
8004
8004
8004
8004
8004
8004
8004
8004
8004
8004
8004
8004
8004
ENDCHAR
STARTCHAR 006F
ENCODING 111
SWIDTH 540 0
DWIDTH 21 0
BBX 17 20 2 0
BITMAP
07F000
180C00
200200
200200
400100
400100
800100
800100
800080
800080
800080
800080
800080
800100
400100
400100
400200
200200
100400
0FF800
ENDCHAR
STARTCHAR 0070
ENCODING 112
SWIDTH 540 0
DWIDTH 21 0
BBX 16 28 4 -8
BITMAP
8FE0
B018
C00C
C004
8002
8002
8002
8002
8001
8001
8001
8001
8001
8002
8002
8002
8004
C004
A008
9C60
8380
8000
8000
8000
8000
8000
8000
8000
ENDCHAR
STARTCHAR 0071
ENCODING 113
SWIDTH 540 0
DWIDTH 21 0
BBX 16 28 2 -8
BITMAP
07F1
180D
2005
2003
4001
4001
8001
8001
8001
8001
8001
8001
8001
8001
4001
4001
6001
2003
1005
0E31
01C1
0001
0001
0001
0001
0001
0001
0001
ENDCHAR
STARTCHAR 0072
ENCODING 114
SWIDTH 334 0
DWIDTH 13 0
BBX 9 20 4 0
BITMAP
8380
9800
A000
C000
8000
8000
8000
8000
8000
8000
8000
8000
8000
8000
8000
8000
8000
8000
8000
8000
ENDCHAR
STARTCHAR 0073
ENCODING 115
SWIDTH 437 0
DWIDTH 17 0
BBX 14 20 2 0
BITMAP
1FC0
2030
4008
4000
8000
8000
4000
4000
2000
1E00
01E0
0010
0008
0008
0004
0004
8004
C008
6018
1FE0
ENDCHAR
STARTCHAR 0074
ENCODING 116
SWIDTH 308 0
DWIDTH 12 0
BBX 9 25 1 0
BITMAP
0800
0800
0800
0800
0800
FF80
0800
0800
0800
0800
0800
0800
0800
0800
0800
0800
0800
0800
0800
0800
0800
0800
0800
0800
0F80
ENDCHAR
STARTCHAR 0075
ENCODING 117
SWIDTH 540 0
DWIDTH 21 0
BBX 14 20 4 0
BITMAP
8004
8004
8004
8004
8004
8004
8004
8004
8004
8004
8004
8004
8004
8004
8004
8004
800C
4014
6014
1FE4
ENDCHAR
STARTCHAR 0076
ENCODING 118
SWIDTH 437 0
DWIDTH 17 0
BBX 16 20 1 0
BITMAP
8001
8002
4002
4004
4004
2004
2008
2008
1008
1010
0810
0820
0820
0420
0440
0440
0240
0280
0180
0100
ENDCHAR
STARTCHAR 0077
ENCODING 119
SWIDTH 720 0
DWIDTH 28 0
BBX 26 20 1 0
BITMAP
80040040
400C0080
400C0080
40120080
40120080
20120100
20120100
20210100
10210200
10210200
10408200
08408400
08408400
08804400
08804400
04804800
05002800
05002800
03003000
03001000
ENDCHAR
STARTCHAR 0078
ENCODING 120
SWIDTH 462 0
DWIDTH 18 0
BBX 15 20 2 0
BITMAP
8002
8004
4008
2010
3010
1020
0840
0440
0480
0300
0300
0280
0480
0840
1020
1010
2010
4008
8004
8002
ENDCHAR
STARTCHAR 0079
ENCODING 121
SWIDTH 437 0
DWIDTH 17 0
BBX 16 28 1 -8
BITMAP
8001
8002
4002
4004
4004
2004
2008
2008
1008
1010
0810
0820
0820
0420
0440
0440
0240
0280
0180
0180
0100
0100
0200
0200
0200
0400
0400
7800
ENDCHAR
STARTCHAR 007A
ENCODING 122
SWIDTH 411 0
DWIDTH 16 0
BBX 14 20 1 0
BITMAP
FFFC
0004
0008
0010
0010
0020
0040
0080
0080
0100
0200
0200
0400
0800
1000
1000
2000
4000
8000
FFFC
ENDCHAR
STARTCHAR 007B
ENCODING 123
SWIDTH 308 0
DWIDTH 12 0
BBX 9 35 1 -5
BITMAP
0780
0800
0800
0800
0800
0800
0800
0800
0800
0800
0800
0800
0800
0800
1000
1000
3000
8000
C000
3000
1000
1000
0800
0800
0800
0800
0800
0800
0800
0800
0800
0800
0800
0800
0F00
ENDCHAR
STARTCHAR 007C
ENCODING 124
SWIDTH 231 0
DWIDTH 9 0
BBX 1 35 4 -5
BITMAP
80
80
80
80
80
80
80
80
80
80
80
80
80
80
80
80
80
80
80
80
80
80
80
80
80
80
80
80
80
80
80
80
80
80
80
ENDCHAR
STARTCHAR 007D
ENCODING 125
SWIDTH 308 0
DWIDTH 12 0
BBX 8 35 3 -5
BITMAP
F0
08
08
08
08
08
08
08
08
08
08
08
08
08
08
08
04
03
03
04
08
08
08
08
08
08
08
08
08
08
08
08
08
08
F0
ENDCHAR
STARTCHAR 007E
ENCODING 126
SWIDTH 591 0
DWIDTH 23 0
BBX 17 4 3 10
BITMAP
180000
C70000
00C080
003F00
ENDCHAR
STARTCHAR 00A0
ENCODING 160
SWIDTH 231 0
DWIDTH 9 0
BBX 0 0 0 0
BITMAP
ENDCHAR
STARTCHAR 00A1
ENCODING 161
SWIDTH 231 0
DWIDTH 9 0
BBX 2 27 4 -7
BITMAP
C0
C0
00
00
00
00
00
00
80
80
80
80
80
80
80
80
80
80
80
80
80
80
80
80
80
80
80
ENDCHAR
STARTCHAR 00A2
ENCODING 162
SWIDTH 488 0
DWIDTH 19 0
BBX 15 28 2 -4
BITMAP
0080
0080
0080
0080
07F0
1888
2084
2082
4080
4080
8080
8080
8080
8080
8080
8080
8080
8080
4080
4080
4080
2082
1084
0EB8
01C0
0080
0080
0080
ENDCHAR
STARTCHAR 00A3
ENCODING 163
SWIDTH 565 0
DWIDTH 22 0
BBX 17 28 3 0
BITMAP
00C000
071C00
080200
100100
200080
200000
400000
400000
400000
400000
400000
200000
200000
200000
100000
FFF800
100000
080000
080000
080000
080000
080000
100000
100000
200000
200000
400000
FFFF80
ENDCHAR
STARTCHAR 00A4
ENCODING 164
SWIDTH 565 0
DWIDTH 22 0
BBX 21 21 1 3
BITMAP
800008
400010
21FC20
160240
0C0180
080080
100080
100040
100040
100040
100040
100040
100040
100040
100080
080080
0C0180
120240
21FC20
400010
800008
ENDCHAR
STARTCHAR 00A5
ENCODING 165
SWIDTH 565 0
DWIDTH 22 0
BBX 18 27 2 0
BITMAP
800040
400040
400080
200100
100100
100200
080200
040400
040800
020800
021000
011000
00A000
00C000
3F7F80
004000
004000
004000
004000
004000
3FFF80
004000
004000
004000
004000
004000
004000
ENDCHAR
STARTCHAR 00A6
ENCODING 166
SWIDTH 231 0
DWIDTH 9 0
BBX 1 35 4 -5
BITMAP
80
80
80
80
80
80
80
80
80
80
80
80
80
80
00
00
00
00
00
00
00
80
80
80
80
80
80
80
80
80
80
80
80
80
80
ENDCHAR
STARTCHAR 00A7
ENCODING 167
SWIDTH 540 0
DWIDTH 21 0
BBX 16 34 3 -6
BITMAP
00C0
0E38
1004
2000
2000
2000
2000
2000
2000
1000
0C00
1B80
2070
400C
8002
8002
8002
8001
8001
4002
2002
1804
070C
00F0
0010
0008
0004
0004
0004
0004
0004
0008
3010
0FE0
ENDCHAR
STARTCHAR 00A8
ENCODING 168
SWIDTH 591 0
DWIDTH 23 0
BBX 9 2 7 25
BITMAP
C180
C180
ENDCHAR
STARTCHAR 00A9
ENCODING 169
SWIDTH 694 0
DWIDTH 27 0
BBX 25 28 1 0
BITMAP
000E0000
01E1C000
02003000
0C000800
18000400
10000200
20000200
403E0100
40418100
40808080
81000080
81000080
81000080
81000080
81000080
81000080
81000080
81000080
81000080
40808080
40408100
20360100
20080200
10000200
08000400
04000800
02003000
01FFC000
ENDCHAR
STARTCHAR 00AA
ENCODING 170
SWIDTH 334 0
DWIDTH 13 0
BBX 11 13 2 14
BITMAP
7F00
8100
8080
0080
0080
0080
7F80
8080
8080
8080
8080
8180
7EE0
ENDCHAR
STARTCHAR 00AB
ENCODING 171
SWIDTH 462 0
DWIDTH 18 0
BBX 15 13 1 5
BITMAP
0102
0204
0C18
1020
2040
4080
8100
4080
2040
1020
0810
0408
0306
ENDCHAR
STARTCHAR 00AC
ENCODING 172
SWIDTH 591 0
DWIDTH 23 0
BBX 17 8 3 4
BITMAP
FFFF80
000080
000080
000080
000080
000080
000080
000080
ENDCHAR
STARTCHAR 00AD
ENCODING 173
SWIDTH 385 0
DWIDTH 15 0
BBX 9 1 3 11
BITMAP
FF80
ENDCHAR
STARTCHAR 00AE
ENCODING 174
SWIDTH 462 0
DWIDTH 18 0
BBX 16 16 1 12
BITMAP
0180
0E70
1008
2004
43C2
4422
8421
8421
83C1
8441
8441
4422
4002
2004
1008
0FF0
ENDCHAR
STARTCHAR 00AF
ENCODING 175
SWIDTH 591 0
DWIDTH 23 0
BBX 9 1 7 25
BITMAP
FF80
ENDCHAR
STARTCHAR 00B0
ENCODING 176
SWIDTH 462 0
DWIDTH 18 0
BBX 12 13 3 15
BITMAP
0600
39C0
4020
4020
8010
8010
8010
8010
8010
8010
4020
6020
1FC0
ENDCHAR
STARTCHAR 00B1
ENCODING 177
SWIDTH 591 0
DWIDTH 23 0
BBX 19 23 2 0
BITMAP
004000
004000
004000
004000
004000
004000
004000
004000
004000
7FFFC0
004000
004000
004000
004000
004000
004000
004000
004000
004000
000000
000000
000000
FFFFE0
ENDCHAR
STARTCHAR 00B2
ENCODING 178
SWIDTH 334 0
DWIDTH 13 0
BBX 9 14 2 13
BITMAP
3F00
C080
8080
0080
0080
0080
0100
0100
0200
0C00
1000
2000
4000
FF80
ENDCHAR
STARTCHAR 00B3
ENCODING 179
SWIDTH 334 0
DWIDTH 13 0
BBX 9 14 2 13
BITMAP
7F00
8100
0080
0080
0080
0100
3E00
0100
0080
0080
0080
0080
8080
7F00
ENDCHAR
STARTCHAR 00B4
ENCODING 180
SWIDTH 591 0
DWIDTH 23 0
BBX 5 6 10 23
BITMAP
08
18
10
20
40
80
ENDCHAR
STARTCHAR 00B5
ENCODING 181
SWIDTH 565 0
DWIDTH 22 0
BBX 14 28 4 -8
BITMAP
8004
8004
8004
8004
8004
8004
8004
8004
8004
8004
8004
8004
8004
8004
8004
8004
8004
C00C
A014
9864
8780
8000
8000
8000
8000
8000
8000
8000
ENDCHAR
STARTCHAR 00B6
ENCODING 182
SWIDTH 565 0
DWIDTH 22 0
BBX 17 33 2 -6
BITMAP
0FFF80
1F8400
3F8400
7F8400
FF8400
FF8400
FF8400
FF8400
FF8400
FF8400
7F8400
7F8400
1F8400
0F8400
008400
008400
008400
008400
008400
008400
008400
008400
008400
008400
008400
008400
008400
008400
008400
008400
008400
008400
008000
ENDCHAR
STARTCHAR 00B7
ENCODING 183
SWIDTH 282 0
DWIDTH 11 0
BBX 2 2 5 11
BITMAP
C0
C0
ENDCHAR
STARTCHAR 00B8
ENCODING 184
SWIDTH 591 0
DWIDTH 23 0
BBX 6 8 9 -8
BITMAP
20
20
40
3C
04
04
84
78
ENDCHAR
STARTCHAR 00B9
ENCODING 185
SWIDTH 360 0
DWIDTH 14 0
BBX 10 14 2 13
BITMAP
0C00
1400
2400
4400
8400
0400
0400
0400
0400
0400
0400
0400
0400
7FC0
ENDCHAR
STARTCHAR 00BA
ENCODING 186
SWIDTH 360 0
DWIDTH 14 0
BBX 10 13 2 14
BITMAP
3F00
4080
8040
8040
8040
8040
8040
8040
8040
8040
4080
6080
1F00
ENDCHAR
STARTCHAR 00BB
ENCODING 187
SWIDTH 462 0
DWIDTH 18 0
BBX 15 15 2 4
BITMAP
8100
4080
2040
1020
0810
0408
0204
0102
0204
0408
0810
1020
2040
4080
8100
ENDCHAR
STARTCHAR 00BC
ENCODING 188
SWIDTH 848 0
DWIDTH 33 0
BBX 30 27 2 0
BITMAP
0C000080
14000100
24000200
44000200
84000400
04000400
04000800
04001000
04001000
04002000
04004000
04004000
04008000
04010020
7BC10060
000200A0
00040120
00040220
00080220
00080420
00100820
00201020
00201020
00403FFC
00800020
00800020
01000020
ENDCHAR
STARTCHAR 00BD
ENCODING 189
SWIDTH 874 0
DWIDTH 34 0
BBX 31 27 2 0
BITMAP
0C000080
14000100
24000200
44000200
84000400
04000400
04000800
04001000
04001000
04002000
04004000
04004000
04008040
04010398
7BC10404
00020404
00040004
00040004
00080004
00080008
00100010
00200020
00200040
00400080
00800100
00800200
010007FE
ENDCHAR
STARTCHAR 00BE
ENCODING 190
SWIDTH 797 0
DWIDTH 31 0
BBX 29 27 2 0
BITMAP
7F000200
81000200
00800400
00800800
00800800
01001000
3E002000
01002000
00804000
00804000
00808000
00810000
80810000
430200C0
3C040140
00040140
00080240
00100440
00100840
00201040
00201040
00402040
00804040
00807FF8
01000040
02000040
02000040
ENDCHAR
STARTCHAR 00BF
ENCODING 191
SWIDTH 437 0
DWIDTH 17 0
BBX 15 28 1 -8
BITMAP
0080
00C0
0000
0000
0000
0000
0000
0080
0080
0080
0080
0080
0080
0380
0C00
3000
2000
4000
4000
8000
8000
8000
8002
4002
4004
200C
1010
0FE0
ENDCHAR
STARTCHAR 00C0
ENCODING 192
SWIDTH 591 0
DWIDTH 23 0
BBX 21 36 1 0
BITMAP
010000
008000
004000
004000
002000
001000
000000
000000
000000
002000
005000
005000
004800
008800
008800
008400
010400
010400
020200
020200
020200
040100
040100
040080
080080
080080
0FFFC0
100040
100040
100020
200020
200020
400010
400010
400008
800008
ENDCHAR
STARTCHAR 00C1
ENCODING 193
SWIDTH 591 0
DWIDTH 23 0
BBX 21 36 1 0
BITMAP
000400
000C00
000800
001000
002000
004000
000000
000000
000000
002000
005000
005000
004800
008800
008800
008400
010400
010400
020200
020200
020200
040100
040100
040080
080080
080080
0FFFC0
100040
100040
100020
200020
200020
400010
400010
400008
800008
ENDCHAR
STARTCHAR 00C2
ENCODING 194
SWIDTH 591 0
DWIDTH 23 0
BBX 21 36 1 0
BITMAP
003000
005000
008800
010400
020200
040100
000000
000000
000000
002000
005000
005000
004800
008800
008800
008400
010400
010400
020200
020200
020200
040100
040100
040080
080080
080080
0FFFC0
100040
100040
100020
200020
200020
400010
400010
400008
800008
ENDCHAR
STARTCHAR 00C3
ENCODING 195
SWIDTH 591 0
DWIDTH 23 0
BBX 21 34 1 0
BITMAP
03C000
043100
000E00
000000
000000
000000
000000
002000
005000
005000
004800
008800
008800
008400
010400
010400
020200
020200
020200
040100
040100
040080
080080
080080
0FFFC0
100040
100040
100020
200020
200020
400010
400010
400008
800008
ENDCHAR
STARTCHAR 00C4
ENCODING 196
SWIDTH 591 0
DWIDTH 23 0
BBX 21 34 1 0
BITMAP
030600
030600
000000
000000
000000
000000
000000
002000
005000
005000
004800
008800
008800
008400
010400
010400
020200
020200
020200
040100
040100
040080
080080
080080
0FFFC0
100040
100040
100020
200020
200020
400010
400010
400008
800008
ENDCHAR
STARTCHAR 00C5
ENCODING 197
SWIDTH 591 0
DWIDTH 23 0
BBX 21 37 1 0
BITMAP
007800
008400
010400
010400
010400
008400
007800
000000
000000
000000
002000
005000
005000
004800
008800
008800
008400
010400
010400
020200
020200
020200
040100
040100
040080
080080
080080
0FFFC0
100040
100040
100020
200020
200020
400010
400010
400008
800008
ENDCHAR
STARTCHAR 00C6
ENCODING 198
SWIDTH 848 0
DWIDTH 33 0
BBX 31 27 0 0
BITMAP
0001FFFE
00028000
00048000
00048000
00088000
00088000
00108000
00108000
00208000
00208000
00408000
00408000
00808000
0100FFFC
01008000
02008000
02008000
07FF8000
04008000
08008000
08008000
10008000
10008000
20008000
40008000
40008000
8000FFFE
ENDCHAR
STARTCHAR 00C7
ENCODING 199
SWIDTH 591 0
DWIDTH 23 0
BBX 18 36 3 -8
BITMAP
006000
071C00
080300
100080
200080
400040
400000
800000
800000
800000
800000
800000
800000
800000
800000
800000
800000
800000
800000
800000
800000
800000
400000
400040
200080
100080
080300
071C00
00E000
004000
004000
003800
000800
000800
010800
00F000
ENDCHAR
STARTCHAR 00C8
ENCODING 200
SWIDTH 540 0
DWIDTH 21 0
BBX 15 36 4 0
BITMAP
0800
0400
0200
0200
0100
0080
0000
0000
0000
FFFE
8000
8000
8000
8000
8000
8000
8000
8000
8000
8000
8000
8000
FFFE
8000
8000
8000
8000
8000
8000
8000
8000
8000
8000
8000
8000
FFFE
ENDCHAR
STARTCHAR 00C9
ENCODING 201
SWIDTH 540 0
DWIDTH 21 0
BBX 15 36 4 0
BITMAP
0020
0060
0040
0080
0100
0200
0000
0000
0000
FFFE
8000
8000
8000
8000
8000
8000
8000
8000
8000
8000
8000
8000
FFFE
8000
8000
8000
8000
8000
8000
8000
8000
8000
8000
8000
8000
FFFE
ENDCHAR
STARTCHAR 00CA
ENCODING 202
SWIDTH 540 0
DWIDTH 21 0
BBX 15 36 4 0
BITMAP
0180
0280
0440
0820
1010
2008
0000
0000
0000
FFFE
8000
8000
8000
8000
8000
8000
8000
8000
8000
8000
8000
8000
FFFE
8000
8000
8000
8000
8000
8000
8000
8000
8000
8000
8000
8000
FFFE
ENDCHAR
STARTCHAR 00CB
ENCODING 203
SWIDTH 540 0
DWIDTH 21 0
BBX 15 34 4 0
BITMAP
1830
1830
0000
0000
0000
0000
0000
FFFE
8000
8000
8000
8000
8000
8000
8000
8000
8000
8000
8000
8000
FFFE
8000
8000
8000
8000
8000
8000
8000
8000
8000
8000
8000
8000
FFFE
ENDCHAR
STARTCHAR 00CC
ENCODING 204
SWIDTH 360 0
DWIDTH 14 0
BBX 9 36 3 0
BITMAP
4000
4000
2000
1000
0800
0800
0000
0000
0000
FF80
0800
0800
0800
0800
0800
0800
0800
0800
0800
0800
0800
0800
0800
0800
0800
0800
0800
0800
0800
0800
0800
0800
0800
0800
0800
FF80
ENDCHAR
STARTCHAR 00CD
ENCODING 205
SWIDTH 360 0
DWIDTH 14 0
BBX 9 36 3 0
BITMAP
0100
0200
0400
0400
0800
1000
0000
0000
0000
FF80
0800
0800
0800
0800
0800
0800
0800
0800
0800
0800
0800
0800
0800
0800
0800
0800
0800
0800
0800
0800
0800
0800
0800
0800
0800
FF80
ENDCHAR
STARTCHAR 00CE
ENCODING 206
SWIDTH 360 0
DWIDTH 14 0
BBX 10 36 2 0
BITMAP
0C00
1A00
3100
6080
4040
8000
0000
0000
0000
7FC0
0400
0400
0400
0400
0400
0400
0400
0400
0400
0400
0400
0400
0400
0400
0400
0400
0400
0400
0400
0400
0400
0400
0400
0400
0400
7FC0
ENDCHAR
STARTCHAR 00CF
ENCODING 207
SWIDTH 360 0
DWIDTH 14 0
BBX 9 34 3 0
BITMAP
8100
C180
0000
0000
0000
0000
0000
FF80
0800
0800
0800
0800
0800
0800
0800
0800
0800
0800
0800
0800
0800
0800
0800
0800
0800
0800
0800
0800
0800
0800
0800
0800
0800
FF80
ENDCHAR
STARTCHAR 00D0
ENCODING 208
SWIDTH 642 0
DWIDTH 25 0
BBX 22 27 1 0
BITMAP
1FFE00
100180
100060
100030
100010
100008
100008
100008
100004
100004
100004
100004
FFE004
100004
100004
100004
100004
100004
100004
100008
100008
100008
100010
100020
100040
100180
1FFE00
ENDCHAR
STARTCHAR 00D1
ENCODING 209
SWIDTH 668 0
DWIDTH 26 0
BBX 19 34 4 0
BITMAP
0F8000
006200
000C00
000000
000000
000000
000000
C00020
C00020
A00020
900020
900020
880020
840020
840020
820020
820020
810020
808020
808020
804020
802020
802020
801020
801820
800820
800420
800420
800220
800120
800120
8000A0
800060
800060
ENDCHAR
STARTCHAR 00D2
ENCODING 210
SWIDTH 668 0
DWIDTH 26 0
BBX 21 36 3 0
BITMAP
010000
010000
008000
004000
002000
002000
000000
000000
006000
078E00
080180
1000C0
200040
400020
400020
800010
800010
800010
800010
800008
800008
800008
800008
800008
800008
800008
800010
800010
800010
400010
400020
400020
200040
1000C0
080180
07FE00
ENDCHAR
STARTCHAR 00D3
ENCODING 211
SWIDTH 668 0
DWIDTH 26 0
BBX 21 36 3 0
BITMAP
000400
000800
001000
001000
002000
004000
000000
000000
006000
078E00
080180
1000C0
200040
400020
400020
800010
800010
800010
800010
800008
800008
800008
800008
800008
800008
800008
800010
800010
800010
400010
400020
400020
200040
1000C0
080180
07FE00
ENDCHAR
STARTCHAR 00D4
ENCODING 212
SWIDTH 668 0
DWIDTH 26 0
BBX 21 36 3 0
BITMAP
006000
00D000
018800
030400
020200
040000
000000
000000
006000
078E00
080180
1000C0
200040
400020
400020
800010
800010
800010
800010
800008
800008
800008
800008
800008
800008
800008
800010
800010
800010
400010
400020
400020
200040
1000C0
080180
07FE00
ENDCHAR
STARTCHAR 00D5
ENCODING 213
SWIDTH 668 0
DWIDTH 26 0
BBX 21 34 3 0
BITMAP
07C000
003300
000000
000000
000000
000000
006000
078E00
080180
1000C0
200040
400020
400020
800010
800010
800010
800010
800008
800008
800008
800008
800008
800008
800008
800010
800010
800010
400010
400020
400020
200040
1000C0
080180
07FE00
ENDCHAR
STARTCHAR 00D6
ENCODING 214
SWIDTH 668 0
DWIDTH 26 0
BBX 21 34 3 0
BITMAP
020400
030600
000000
000000
000000
000000
006000
078E00
080180
1000C0
200040
400020
400020
800010
800010
800010
800010
800008
800008
800008
800008
800008
800008
800008
800010
800010
800010
400010
400020
400020
200040
1000C0
080180
07FE00
ENDCHAR
STARTCHAR 00D7
ENCODING 215
SWIDTH 591 0
DWIDTH 23 0
BBX 15 15 4 4
BITMAP
4002
2004
1008
0810
0420
0240
0180
0180
0240
0420
0830
1018
200C
4006
8002
ENDCHAR
STARTCHAR 00D8
ENCODING 216
SWIDTH 668 0
DWIDTH 26 0
BBX 21 29 3 -1
BITMAP
007010
078E10
0801A0
1000C0
200040
4000A0
400120
800110
800210
800410
800810
800808
801008
802008
802008
804008
808008
808008
810010
820010
840010
440010
480020
500020
300040
3000C0
480180
470E00
80F000
ENDCHAR
STARTCHAR 00D9
ENCODING 217
SWIDTH 642 0
DWIDTH 25 0
BBX 17 36 4 0
BITMAP
040000
020000
010000
010000
008000
004000
000000
000000
000000
800080
800080
800080
800080
800080
800080
800080
800080
800080
800080
800080
800080
800080
800080
800080
800080
800080
800080
800080
800080
800080
800080
800080
400100
600100
300200
0FFC00
ENDCHAR
STARTCHAR 00DA
ENCODING 218
SWIDTH 642 0
DWIDTH 25 0
BBX 17 36 4 0
BITMAP
001000
002000
002000
004000
008000
010000
000000
000000
000000
800080
800080
800080
800080
800080
800080
800080
800080
800080
800080
800080
800080
800080
800080
800080
800080
800080
800080
800080
800080
800080
800080
800080
400100
600100
300200
0FFC00
ENDCHAR
STARTCHAR 00DB
ENCODING 219
SWIDTH 642 0
DWIDTH 25 0
BBX 17 36 4 0
BITMAP
008000
014000
022000
041000
080800
100400
000000
000000
000000
800080
800080
800080
800080
800080
800080
800080
800080
800080
800080
800080
800080
800080
800080
800080
800080
800080
800080
800080
800080
800080
800080
800080
400100
600100
300200
0FFC00
ENDCHAR
STARTCHAR 00DC
ENCODING 220
SWIDTH 642 0
DWIDTH 25 0
BBX 17 34 4 0
BITMAP
0C1800
0C1800
000000
000000
000000
000000
000000
800080
800080
800080
800080
800080
800080
800080
800080
800080
800080
800080
800080
800080
800080
800080
800080
800080
800080
800080
800080
800080
800080
800080
400100
600100
300200
0FFC00
ENDCHAR
STARTCHAR 00DD
ENCODING 221
SWIDTH 540 0
DWIDTH 21 0
BBX 19 36 1 0
BITMAP
000800
001000
001000
002000
004000
008000
000000
000000
000000
800020
400040
400040
200080
100080
100100
080200
080200
040400
020400
020800
011000
011000
00A000
006000
004000
004000
004000
004000
004000
004000
004000
004000
004000
004000
004000
004000
ENDCHAR
STARTCHAR 00DE
ENCODING 222
SWIDTH 591 0
DWIDTH 23 0
BBX 17 27 4 0
BITMAP
800000
800000
800000
800000
800000
800000
FFFC00
800200
800100
800080
800080
800080
800080
800080
800080
800080
800080
800100
800300
800E00
FFE000
800000
800000
800000
800000
800000
800000
ENDCHAR
STARTCHAR 00DF
ENCODING 223
SWIDTH 642 0
DWIDTH 25 0
BBX 21 29 2 0
BITMAP
01FC00
020300
040080
080080
080040
100040
100040
100040
100040
F000C0
100E00
101000
102000
102000
104000
102000
102000
101000
100E00
1001C0
100030
100008
100008
100008
100008
100008
108008
104010
103FE0
ENDCHAR
STARTCHAR 00E0
ENCODING 224
SWIDTH 514 0
DWIDTH 20 0
BBX 17 29 2 0
BITMAP
080000
040000
020000
020000
010000
008000
000000
000000
000000
0FE000
101000
200800
400400
000400
000400
000400
000400
000400
03FC00
180400
600400
400400
800400
800400
800400
800400
400C00
601400
1FE780
ENDCHAR
STARTCHAR 00E1
ENCODING 225
SWIDTH 514 0
DWIDTH 20 0
BBX 17 29 2 0
BITMAP
002000
002000
004000
008000
010000
010000
000000
000000
000000
0FE000
101000
200800
400400
000400
000400
000400
000400
000400
03FC00
180400
600400
400400
800400
800400
800400
800400
400C00
601400
1FE780
ENDCHAR
STARTCHAR 00E2
ENCODING 226
SWIDTH 514 0
DWIDTH 20 0
BBX 17 29 2 0
BITMAP
018000
02C000
046000
082000
101000
000800
000000
000000
000000
0FE000
101000
200800
400400
000400
000400
000400
000400
000400
03FC00
180400
600400
400400
800400
800400
800400
800400
400C00
601400
1FE780
ENDCHAR
STARTCHAR 00E3
ENCODING 227
SWIDTH 514 0
DWIDTH 20 0
BBX 17 27 2 0
BITMAP
1E0000
218800
007000
000000
000000
000000
000000
0FE000
101000
200800
400400
000400
000400
000400
000400
000400
03FC00
180400
600400
400400
800400
800400
800400
800400
400C00
601400
1FE780
ENDCHAR
STARTCHAR 00E4
ENCODING 228
SWIDTH 514 0
DWIDTH 20 0
BBX 17 27 2 0
BITMAP
183000
183000
000000
000000
000000
000000
000000
0FE000
101000
200800
400400
000400
000400
000400
000400
000400
03FC00
180400
600400
400400
800400
800400
800400
800400
400C00
601400
1FE780
ENDCHAR
STARTCHAR 00E5
ENCODING 229
SWIDTH 514 0
DWIDTH 20 0
BBX 17 30 2 0
BITMAP
03C000
042000
082000
082000
082000
042000
03C000
000000
000000
000000
0FE000
101000
200800
400400
000400
000400
000400
000400
000400
03FC00
180400
600400
400400
800400
800400
800400
800400
400C00
601400
1FE780
ENDCHAR
STARTCHAR 00E6
ENCODING 230
SWIDTH 848 0
DWIDTH 33 0
BBX 29 20 2 0
BITMAP
0FE03F00
3010C0C0
20090020
400A0010
00060010
00040008
00040008
00040008
00040008
03FFFFF8
38040000
40040000
40040000
80040000
80040000
80060008
800A0010
40090010
40108020
3FE07FC0
ENDCHAR
STARTCHAR 00E7
ENCODING 231
SWIDTH 462 0
DWIDTH 18 0
BBX 15 28 2 -8
BITMAP
07F0
1808
2004
2002
4000
4000
8000
8000
8000
8000
8000
8000
8000
8000
4000
4000
4000
2002
1004
0E18
01E0
0080
0100
00E0
0010
0010
0210
01E0
ENDCHAR
STARTCHAR 00E8
ENCODING 232
SWIDTH 514 0
DWIDTH 20 0
BBX 16 29 2 0
BITMAP
0400
0200
0200
0100
0080
00C0
0000
0000
0000
07F0
1808
2004
2002
4002
4001
8001
8001
8001
FFFF
8000
8000
8000
8000
4000
4001
6002
2002
1004
0FF8
ENDCHAR
STARTCHAR 00E9
ENCODING 233
SWIDTH 514 0
DWIDTH 20 0
BBX 16 29 2 0
BITMAP
0010
0020
0020
0040
0080
0100
0000
0000
0000
07F0
1808
2004
2002
4002
4001
8001
8001
8001
FFFF
8000
8000
8000
8000
4000
4001
6002
2002
1004
0FF8
ENDCHAR
STARTCHAR 00EA
ENCODING 234
SWIDTH 514 0
DWIDTH 20 0
BBX 16 29 2 0
BITMAP
0080
0140
0220
0410
0808
1004
0000
0000
0000
07F0
1808
2004
2002
4002
4001
8001
8001
8001
FFFF
8000
8000
8000
8000
4000
4001
6002
2002
1004
0FF8
ENDCHAR
STARTCHAR 00EB
ENCODING 235
SWIDTH 514 0
DWIDTH 20 0
BBX 16 27 2 0
BITMAP
0C18
0C18
0000
0000
0000
0000
0000
07F0
1808
2004
2002
4002
4001
8001
8001
8001
FFFF
8000
8000
8000
8000
4000
4001
6002
2002
1004
0FF8
ENDCHAR
STARTCHAR 00EC
ENCODING 236
SWIDTH 205 0
DWIDTH 8 0
BBX 5 29 1 0
BITMAP
80
40
40
20
10
08
00
00
00
10
10
10
10
10
10
10
10
10
10
10
10
10
10
10
10
10
10
10
10
ENDCHAR
STARTCHAR 00ED
ENCODING 237
SWIDTH 205 0
DWIDTH 8 0
BBX 5 29 3 0
BITMAP
08
10
10
20
40
80
00
00
00
40
40
40
40
40
40
40
40
40
40
40
40
40
40
40
40
40
40
40
40
ENDCHAR
STARTCHAR 00EE
ENCODING 238
SWIDTH 205 0
DWIDTH 8 0
BBX 11 29 -1 0
BITMAP
0400
0A00
1100
2080
4040
8020
0000
0000
0000
0400
0400
0400
0400
0400
0400
0400
0400
0400
0400
0400
0400
0400
0400
0400
0400
0400
0400
0400
0400
ENDCHAR
STARTCHAR 00EF
ENCODING 239
SWIDTH 205 0
DWIDTH 8 0
BBX 9 27 0 0
BITMAP
C180
C180
0000
0000
0000
0000
0000
0800
0800
0800
0800
0800
0800
0800
0800
0800
0800
0800
0800
0800
0800
0800
0800
0800
0800
0800
0800
ENDCHAR
STARTCHAR 00F0
ENCODING 240
SWIDTH 540 0
DWIDTH 21 0
BBX 17 29 2 0
BITMAP
040800
021000
01E000
00C000
012000
061000
001000
000800
000400
000400
07F200
180E00
200200
200300
400100
400100
800100
800080
800080
800080
800080
800080
800100
400100
400100
200200
200200
100400
0FF800
ENDCHAR
STARTCHAR 00F1
ENCODING 241
SWIDTH 540 0
DWIDTH 21 0
BBX 14 27 4 0
BITMAP
3E00
0110
00C0
0000
0000
0000
0000
8FC0
B030
C008
8008
8004
8004
8004
8004
8004
8004
8004
8004
8004
8004
8004
8004
8004
8004
8004
8004
ENDCHAR
STARTCHAR 00F2
ENCODING 242
SWIDTH 540 0
DWIDTH 21 0
BBX 17 29 2 0
BITMAP
040000
020000
020000
010000
008000
004000
000000
000000
000000
07F000
180C00
200200
200200
400100
400100
800100
800100
800080
800080
800080
800080
800080
800100
400100
400100
400200
200200
100400
0FF800
ENDCHAR
STARTCHAR 00F3
ENCODING 243
SWIDTH 540 0
DWIDTH 21 0
BBX 17 29 2 0
BITMAP
001000
002000
002000
004000
008000
010000
000000
000000
000000
07F000
180C00
200200
200200
400100
400100
800100
800100
800080
800080
800080
800080
800080
800100
400100
400100
400200
200200
100400
0FF800
ENDCHAR
STARTCHAR 00F4
ENCODING 244
SWIDTH 540 0
DWIDTH 21 0
BBX 17 29 2 0
BITMAP
008000
014000
022000
041000
080800
100400
000000
000000
000000
07F000
180C00
200200
200200
400100
400100
800100
800100
800080
800080
800080
800080
800080
800100
400100
400100
400200
200200
100400
0FF800
ENDCHAR
STARTCHAR 00F5
ENCODING 245
SWIDTH 540 0
DWIDTH 21 0
BBX 17 27 2 0
BITMAP
0F0000
10C400
003800
000000
000000
000000
000000
07F000
180C00
200200
200200
400100
400100
800100
800100
800080
800080
800080
800080
800080
800100
400100
400100
400200
200200
100400
0FF800
ENDCHAR
STARTCHAR 00F6
ENCODING 246
SWIDTH 540 0
DWIDTH 21 0
BBX 17 27 2 0
BITMAP
0C1800
0C1800
000000
000000
000000
000000
000000
07F000
180C00
200200
200200
400100
400100
800100
800100
800080
800080
800080
800080
800080
800100
400100
400100
400200
200200
100400
0FF800
ENDCHAR
STARTCHAR 00F7
ENCODING 247
SWIDTH 591 0
DWIDTH 23 0
BBX 17 18 3 3
BITMAP
008000
01C000
00C000
000000
000000
000000
000000
000000
000000
FFFF80
000000
000000
000000
000000
000000
008000
01C000
00C000
ENDCHAR
STARTCHAR 00F8
ENCODING 248
SWIDTH 540 0
DWIDTH 21 0
BBX 18 22 2 -1
BITMAP
000040
07F080
080D00
100200
200600
400500
400900
401100
802080
804080
808080
808080
810080
820080
440080
480100
480100
300100
200200
500400
8E1800
81E000
ENDCHAR
STARTCHAR 00F9
ENCODING 249
SWIDTH 540 0
DWIDTH 21 0
BBX 14 29 4 0
BITMAP
1000
0800
0400
0400
0200
0100
0000
0000
0000
8004
8004
8004
8004
8004
8004
8004
8004
8004
8004
8004
8004
8004
8004
8004
8004
800C
4014
6014
1FE4
ENDCHAR
STARTCHAR 00FA
ENCODING 250
SWIDTH 540 0
DWIDTH 21 0
BBX 14 29 4 0
BITMAP
0040
00C0
0080
0100
0200
0400
0000
0000
0000
8004
8004
8004
8004
8004
8004
8004
8004
8004
8004
8004
8004
8004
8004
8004
8004
800C
4014
6014
1FE4
ENDCHAR
STARTCHAR 00FB
ENCODING 251
SWIDTH 540 0
DWIDTH 21 0
BBX 14 29 4 0
BITMAP
0300
0500
0880
1040
2020
4010
0000
0000
0000
8004
8004
8004
8004
8004
8004
8004
8004
8004
8004
8004
8004
8004
8004
8004
8004
800C
4014
6014
1FE4
ENDCHAR
STARTCHAR 00FC
ENCODING 252
SWIDTH 540 0
DWIDTH 21 0
BBX 14 27 4 0
BITMAP
3060
3060
0000
0000
0000
0000
0000
8004
8004
8004
8004
8004
8004
8004
8004
8004
8004
8004
8004
8004
8004
8004
8004
800C
4014
6014
1FE4
ENDCHAR
STARTCHAR 00FD
ENCODING 253
SWIDTH 437 0
DWIDTH 17 0
BBX 16 37 1 -8
BITMAP
0030
0020
0040
0080
0100
0100
0000
0000
0000
8001
8002
4002
4004
4004
2004
2008
2008
1008
1010
0810
0820
0820
0420
0440
0440
0240
0280
0180
0180
0100
0100
0200
0200
0200
0400
0400
7800
ENDCHAR
STARTCHAR 00FE
ENCODING 254
SWIDTH 540 0
DWIDTH 21 0
BBX 16 37 4 -8
BITMAP
8000
8000
8000
8000
8000
8000
8000
8000
8000
8FE0
B018
C00C
C004
8002
8002
8002
8002
8001
8001
8001
8001
8001
8002
8002
8002
8004
C004
A008
9C60
8380
8000
8000
8000
8000
8000
8000
8000
ENDCHAR
STARTCHAR 00FF
ENCODING 255
SWIDTH 437 0
DWIDTH 17 0
BBX 16 35 1 -8
BITMAP
0810
0810
0000
0000
0000
0000
0000
8001
8002
4002
4004
4004
2004
2008
2008
1008
1010
0810
0820
0820
0420
0440
0440
0240
0280
0180
0180
0100
0100
0200
0200
0200
0400
0400
7800
ENDCHAR
STARTCHAR 0100
ENCODING 256
SWIDTH 591 0
DWIDTH 23 0
BBX 21 33 1 0
BITMAP
03FE00
000000
000000
000000
000000
000000
002000
005000
005000
004800
008800
008800
008400
010400
010400
020200
020200
020200
040100
040100
040080
080080
080080
0FFFC0
100040
100040
100020
200020
200020
400010
400010
400008
800008
ENDCHAR
STARTCHAR 0101
ENCODING 257
SWIDTH 514 0
DWIDTH 20 0
BBX 17 26 2 0
BITMAP
1FF000
000000
000000
000000
000000
000000
0FE000
101000
200800
400400
000400
000400
000400
000400
000400
03FC00
180400
600400
400400
800400
800400
800400
800400
400C00
601400
1FE780
ENDCHAR
STARTCHAR 0102
ENCODING 258
SWIDTH 591 0
DWIDTH 23 0
BBX 21 35 1 0
BITMAP
020200
020200
010400
008800
007000
000000
000000
000000
002000
005000
005000
004800
008800
008800
008400
010400
010400
020200
020200
020200
040100
040100
040080
080080
080080
0FFFC0
100040
100040
100020
200020
200020
400010
400010
400008
800008
ENDCHAR
STARTCHAR 0103
ENCODING 259
SWIDTH 514 0
DWIDTH 20 0
BBX 17 28 2 0
BITMAP
100800
101000
082000
046000
038000
000000
000000
000000
0FE000
101000
200800
400400
000400
000400
000400
000400
000400
03FC00
180400
600400
400400
800400
800400
800400
800400
400C00
601400
1FE780
ENDCHAR
STARTCHAR 0104
ENCODING 260
SWIDTH 591 0
DWIDTH 23 0
BBX 22 35 1 -8
BITMAP
002000
005000
005000
004800
008800
008800
008400
010400
010400
020200
020200
020200
040100
040100
040080
080080
080080
0FFFC0
100040
100040
100020
200020
200020
400010
400010
400008
800008
000010
000020
000040
000080
000080
000080
000084
000078
ENDCHAR
STARTCHAR 0105
ENCODING 261
SWIDTH 514 0
DWIDTH 20 0
BBX 18 28 2 -8
BITMAP
0FE000
101000
200800
400400
000400
000400
000400
000400
000400
03FC00
180400
600400
400400
800400
800400
800400
800400
400C00
601400
18E780
070080
000300
000400
000800
000800
000800
000840
000780
ENDCHAR
STARTCHAR 0106
ENCODING 262
SWIDTH 591 0
DWIDTH 23 0
BBX 18 36 3 0
BITMAP
000800
000800
001000
002000
004000
004000
000000
000000
006000
071C00
080300
100080
200080
400040
400000
800000
800000
800000
800000
800000
800000
800000
800000
800000
800000
800000
800000
800000
800000
800000
400000
400040
200080
100080
080300
07FC00
ENDCHAR
STARTCHAR 0107
ENCODING 263
SWIDTH 462 0
DWIDTH 18 0
BBX 15 29 2 0
BITMAP
0010
0020
0020
0040
0080
0100
0000
0000
0000
07F0
1808
2004
2002
4000
4000
8000
8000
8000
8000
8000
8000
8000
8000
4000
4000
4000
2002
1004
0FF8
ENDCHAR
STARTCHAR 0108
ENCODING 264
SWIDTH 591 0
DWIDTH 23 0
BBX 18 36 3 0
BITMAP
006000
009000
011800
020C00
040400
000200
000000
000000
006000
071C00
080300
100080
200080
400040
400000
800000
800000
800000
800000
800000
800000
800000
800000
800000
800000
800000
800000
800000
800000
800000
400000
400040
200080
100080
080300
07FC00
ENDCHAR
STARTCHAR 0109
ENCODING 265
SWIDTH 462 0
DWIDTH 18 0
BBX 15 29 2 0
BITMAP
0080
0140
0220
0410
0808
1004
0000
0000
0000
07F0
1808
2004
2002
4000
4000
8000
8000
8000
8000
8000
8000
8000
8000
4000
4000
4000
2002
1004
0FF8
ENDCHAR
STARTCHAR 010A
ENCODING 266
SWIDTH 591 0
DWIDTH 23 0
BBX 18 34 3 0
BITMAP
006000
006000
000000
000000
000000
000000
006000
071C00
080300
100080
200080
400040
400000
800000
800000
800000
800000
800000
800000
800000
800000
800000
800000
800000
800000
800000
800000
800000
400000
400040
200080
100080
080300
07FC00
ENDCHAR
STARTCHAR 010B
ENCODING 267
SWIDTH 462 0
DWIDTH 18 0
BBX 15 27 2 0
BITMAP
0080
0080
0000
0000
0000
0000
0000
07F0
1808
2004
2002
4000
4000
8000
8000
8000
8000
8000
8000
8000
8000
4000
4000
4000
2002
1004
0FF8
ENDCHAR
STARTCHAR 010C
ENCODING 268
SWIDTH 591 0
DWIDTH 23 0
BBX 18 36 3 0
BITMAP
080200
040400
020800
011000
00A000
004000
000000
000000
006000
071C00
080300
100080
200080
400040
400000
800000
800000
800000
800000
800000
800000
800000
800000
800000
800000
800000
800000
800000
800000
800000
400000
400040
200080
100080
080300
07FC00
ENDCHAR
STARTCHAR 010D
ENCODING 269
SWIDTH 462 0
DWIDTH 18 0
BBX 15 29 2 0
BITMAP
1004
0808
0410
0220
0140
0080
0000
0000
0000
07F0
1808
2004
2002
4000
4000
8000
8000
8000
8000
8000
8000
8000
8000
4000
4000
4000
2002
1004
0FF8
ENDCHAR
STARTCHAR 010E
ENCODING 270
SWIDTH 642 0
DWIDTH 25 0
BBX 19 36 4 0
BITMAP
200800
101000
082000
044000
028000
010000
000000
000000
000000
FFF000
800C00
800300
800100
800080
800040
800040
800040
800040
800020
800020
800020
800020
800020
800020
800020
800020
800020
800040
800040
800040
800080
800080
800100
800200
800C00
FFF000
ENDCHAR
STARTCHAR 010F
ENCODING 271
SWIDTH 540 0
DWIDTH 21 0
BBX 21 29 2 0
BITMAP
000108
000108
000108
000110
000110
000110
000110
000100
000100
07F100
180D00
200500
200300
400100
400100
800100
800100
800100
800100
800100
800100
800100
800100
400100
400100
600100
200300
100500
0FF100
ENDCHAR
STARTCHAR 0110
ENCODING 272
SWIDTH 642 0
DWIDTH 25 0
BBX 22 27 1 0
BITMAP
1FFE00
100180
100060
100030
100010
100008
100008
100008
100004
100004
100004
100004
FFE004
100004
100004
100004
100004
100004
100004
100008
100008
100008
100010
100020
100040
100180
1FFE00
ENDCHAR
STARTCHAR 0111
ENCODING 273
SWIDTH 565 0
DWIDTH 22 0
BBX 18 29 2 0
BITMAP
000100
000100
000100
000100
007FC0
000100
000100
000100
000100
07F100
180D00
200500
200300
400100
400100
800100
800100
800100
800100
800100
800100
800100
800100
400100
400100
600100
200300
100500
0FF100
ENDCHAR
STARTCHAR 0112
ENCODING 274
SWIDTH 540 0
DWIDTH 21 0
BBX 15 33 4 0
BITMAP
1FF0
0000
0000
0000
0000
0000
FFFE
8000
8000
8000
8000
8000
8000
8000
8000
8000
8000
8000
8000
FFFE
8000
8000
8000
8000
8000
8000
8000
8000
8000
8000
8000
8000
FFFE
ENDCHAR
STARTCHAR 0113
ENCODING 275
SWIDTH 514 0
DWIDTH 20 0
BBX 16 26 2 0
BITMAP
0FF8
0000
0000
0000
0000
0000
07F0
1808
2004
2002
4002
4001
8001
8001
8001
FFFF
8000
8000
8000
8000
4000
4001
6002
2002
1004
0FF8
ENDCHAR
STARTCHAR 0114
ENCODING 276
SWIDTH 540 0
DWIDTH 21 0
BBX 15 35 4 0
BITMAP
1010
1010
0820
0440
0380
0000
0000
0000
FFFE
8000
8000
8000
8000
8000
8000
8000
8000
8000
8000
8000
8000
FFFE
8000
8000
8000
8000
8000
8000
8000
8000
8000
8000
8000
8000
FFFE
ENDCHAR
STARTCHAR 0115
ENCODING 277
SWIDTH 514 0
DWIDTH 20 0
BBX 16 28 2 0
BITMAP
1008
0808
0410
0220
01C0
0000
0000
0000
07F0
1808
2004
2002
4002
4001
8001
8001
8001
FFFF
8000
8000
8000
8000
4000
4001
6002
2002
1004
0FF8
ENDCHAR
STARTCHAR 0116
ENCODING 278
SWIDTH 540 0
DWIDTH 21 0
BBX 15 34 4 0
BITMAP
0100
0180
0000
0000
0000
0000
0000
FFFE
8000
8000
8000
8000
8000
8000
8000
8000
8000
8000
8000
8000
FFFE
8000
8000
8000
8000
8000
8000
8000
8000
8000
8000
8000
8000
FFFE
ENDCHAR
STARTCHAR 0117
ENCODING 279
SWIDTH 514 0
DWIDTH 20 0
BBX 16 27 2 0
BITMAP
0080
0080
0000
0000
0000
0000
0000
07F0
1808
2004
2002
4002
4001
8001
8001
8001
FFFF
8000
8000
8000
8000
4000
4001
6002
2002
1004
0FF8
ENDCHAR
STARTCHAR 0118
ENCODING 280
SWIDTH 540 0
DWIDTH 21 0
BBX 15 35 4 -8
BITMAP
FFFE
8000
8000
8000
8000
8000
8000
8000
8000
8000
8000
8000
8000
FFFE
8000
8000
8000
8000
8000
8000
8000
8000
8000
8000
8000
8000
FFFE
0004
0008
0010
0020
0040
0040
0020
001E
ENDCHAR
STARTCHAR 0119
ENCODING 281
SWIDTH 514 0
DWIDTH 20 0
BBX 16 28 2 -8
BITMAP
07F0
1808
2004
2002
4002
4001
8001
8001
8001
FFFF
8000
8000
8000
8000
4000
4001
6002
2002
1004
0E38
01E0
0040
0080
0100
0100
0100
0108
00F0
ENDCHAR
STARTCHAR 011A
ENCODING 282
SWIDTH 540 0
DWIDTH 21 0
BBX 15 36 4 0
BITMAP
2008
1010
0820
0440
0280
0100
0000
0000
0000
FFFE
8000
8000
8000
8000
8000
8000
8000
8000
8000
8000
8000
8000
FFFE
8000
8000
8000
8000
8000
8000
8000
8000
8000
8000
8000
8000
FFFE
ENDCHAR
STARTCHAR 011B
ENCODING 283
SWIDTH 514 0
DWIDTH 20 0
BBX 16 29 2 0
BITMAP
1004
0808
0410
0220
0140
0080
0000
0000
0000
07F0
1808
2004
2002
4002
4001
8001
8001
8001
FFFF
8000
8000
8000
8000
4000
4001
6002
2002
1004
0FF8
ENDCHAR
STARTCHAR 011C
ENCODING 284
SWIDTH 642 0
DWIDTH 25 0
BBX 20 36 3 0
BITMAP
006000
00D000
018800
030400
020200
040000
000000
000000
006000
078E00
080100
1000C0
200040
400020
400000
800000
800000
800000
800000
800000
800000
800000
800000
800FF0
800010
800010
800010
800010
800010
400010
400010
400030
200050
100050
080190
07FE10
ENDCHAR
STARTCHAR 011D
ENCODING 285
SWIDTH 514 0
DWIDTH 20 0
BBX 17 37 2 -8
BITMAP
018000
034000
022000
041000
080800
100000
000000
000000
000000
07FF80
180800
100400
200400
200200
400200
400200
400200
200200
200400
100400
080800
07F000
180000
200000
200000
200000
300000
0FFE00
300100
400080
800080
800080
800080
800080
400080
600300
1FFC00
ENDCHAR
STARTCHAR 011E
ENCODING 286
SWIDTH 642 0
DWIDTH 25 0
BBX 20 35 3 0
BITMAP
040200
020400
010400
019800
006000
000000
000000
006000
078E00
080100
1000C0
200040
400020
400000
800000
800000
800000
800000
800000
800000
800000
800000
800FF0
800010
800010
800010
800010
800010
400010
400010
400030
200050
100050
080190
07FE10
ENDCHAR
STARTCHAR 011F
ENCODING 287
SWIDTH 514 0
DWIDTH 20 0
BBX 17 36 2 -8
BITMAP
100800
080800
041000
022000
01C000
000000
000000
000000
07FF80
180800
100400
200400
200200
400200
400200
400200
200200
200400
100400
080800
07F000
180000
200000
200000
200000
300000
0FFE00
300100
400080
800080
800080
800080
800080
400080
600300
1FFC00
ENDCHAR
STARTCHAR 0120
ENCODING 288
SWIDTH 642 0
DWIDTH 25 0
BBX 20 34 3 0
BITMAP
006000
006000
000000
000000
000000
000000
006000
078E00
080100
1000C0
200040
400020
400000
800000
800000
800000
800000
800000
800000
800000
800000
800FF0
800010
800010
800010
800010
800010
400010
400010
400030
200050
100050
080190
07FE10
ENDCHAR
STARTCHAR 0121
ENCODING 289
SWIDTH 514 0
DWIDTH 20 0
BBX 17 35 2 -8
BITMAP
008000
018000
000000
000000
000000
000000
000000
07FF80
180800
100400
200400
200200
400200
400200
400200
200200
200400
100400
080800
07F000
180000
200000
200000
200000
300000
0FFE00
300100
400080
800080
800080
800080
800080
400080
600300
1FFC00
ENDCHAR
STARTCHAR 0122
ENCODING 290
SWIDTH 642 0
DWIDTH 25 0
BBX 20 36 3 -8
BITMAP
006000
078E00
080100
1000C0
200040
400020
400000
800000
800000
800000
800000
800000
800000
800000
800000
800FF0
800010
800010
800010
800010
800010
400010
400010
400030
200050
100050
080190
071E10
00E000
000000
000000
006000
002000
002000
004000
004000
ENDCHAR
STARTCHAR 0123
ENCODING 291
SWIDTH 514 0
DWIDTH 20 0
BBX 17 36 2 -7
BITMAP
008000
010000
010000
018000
008000
000000
000000
000000
07FF80
180800
100400
200400
200200
400200
400200
400200
200200
200400
100400
080800
07F000
180000
200000
200000
200000
300000
0FFE00
300100
400080
800080
800080
800080
800080
400080
600300
1FFC00
ENDCHAR
STARTCHAR 0124
ENCODING 292
SWIDTH 668 0
DWIDTH 26 0
BBX 19 36 4 0
BITMAP
004000
00A000
011000
020800
040400
080200
000000
000000
000000
800020
800020
800020
800020
800020
800020
800020
800020
800020
800020
800020
800020
800020
FFFFE0
800020
800020
800020
800020
800020
800020
800020
800020
800020
800020
800020
800020
800020
ENDCHAR
STARTCHAR 0125
ENCODING 293
SWIDTH 540 0
DWIDTH 21 0
BBX 18 35 0 0
BITMAP
0C0000
140000
220000
410000
808000
000000
080000
080000
080000
080000
080000
080000
080000
080000
080000
08FC00
0B0300
0C0080
080080
080040
080040
080040
080040
080040
080040
080040
080040
080040
080040
080040
080040
080040
080040
080040
080040
ENDCHAR
STARTCHAR 0126
ENCODING 294
SWIDTH 694 0
DWIDTH 27 0
BBX 25 27 1 0
BITMAP
10000400
10000400
10000400
10000400
10000400
FFFFFF80
10000400
10000400
10000400
10000400
10000400
10000400
10000400
1FFFFC00
10000400
10000400
10000400
10000400
10000400
10000400
10000400
10000400
10000400
10000400
10000400
10000400
10000400
ENDCHAR
STARTCHAR 0127
ENCODING 295
SWIDTH 540 0
DWIDTH 21 0
BBX 16 29 2 0
BITMAP
2000
2000
2000
2000
FF80
2000
2000
2000
2000
23F8
2804
3002
3002
2001
2001
2001
2001
2001
2001
2001
2001
2001
2001
2001
2001
2001
2001
2001
2001
ENDCHAR
STARTCHAR 0128
ENCODING 296
SWIDTH 360 0
DWIDTH 14 0
BBX 11 34 2 0
BITMAP
F800
0660
0000
0000
0000
0000
0000
7FC0
0400
0400
0400
0400
0400
0400
0400
0400
0400
0400
0400
0400
0400
0400
0400
0400
0400
0400
0400
0400
0400
0400
0400
0400
0400
7FC0
ENDCHAR
STARTCHAR 0129
ENCODING 297
SWIDTH 205 0
DWIDTH 8 0
BBX 11 27 -1 0
BITMAP
F800
0620
01C0
0000
0000
0000
0000
0400
0400
0400
0400
0400
0400
0400
0400
0400
0400
0400
0400
0400
0400
0400
0400
0400
0400
0400
0400
ENDCHAR
STARTCHAR 012A
ENCODING 298
SWIDTH 360 0
DWIDTH 14 0
BBX 9 33 3 0
BITMAP
FF80
0000
0000
0000
0000
0000
FF80
0800
0800
0800
0800
0800
0800
0800
0800
0800
0800
0800
0800
0800
0800
0800
0800
0800
0800
0800
0800
0800
0800
0800
0800
0800
FF80
ENDCHAR
STARTCHAR 012B
ENCODING 299
SWIDTH 205 0
DWIDTH 8 0
BBX 9 26 0 0
BITMAP
FF80
0000
0000
0000
0000
0000
0800
0800
0800
0800
0800
0800
0800
0800
0800
0800
0800
0800
0800
0800
0800
0800
0800
0800
0800
0800
ENDCHAR
STARTCHAR 012C
ENCODING 300
SWIDTH 360 0
DWIDTH 14 0
BBX 10 35 2 0
BITMAP
8040
4080
2080
3300
0C00
0000
0000
0000
7FC0
0400
0400
0400
0400
0400
0400
0400
0400
0400
0400
0400
0400
0400
0400
0400
0400
0400
0400
0400
0400
0400
0400
0400
0400
0400
7FC0
ENDCHAR
STARTCHAR 012D
ENCODING 301
SWIDTH 205 0
DWIDTH 8 0
BBX 10 28 -1 0
BITMAP
8040
4040
2080
1100
0E00
0000
0000
0000
0400
0400
0400
0400
0400
0400
0400
0400
0400
0400
0400
0400
0400
0400
0400
0400
0400
0400
0400
0400
ENDCHAR
STARTCHAR 012E
ENCODING 302
SWIDTH 360 0
DWIDTH 14 0
BBX 9 35 3 -8
BITMAP
FF80
0800
0800
0800
0800
0800
0800
0800
0800
0800
0800
0800
0800
0800
0800
0800
0800
0800
0800
0800
0800
0800
0800
0800
0800
0800
FF80
0100
0200
0C00
0800
1000
1000
0880
0700
ENDCHAR
STARTCHAR 012F
ENCODING 303
SWIDTH 205 0
DWIDTH 8 0
BBX 5 36 1 -8
BITMAP
10
10
00
00
00
00
00
00
10
10
10
10
10
10
10
10
10
10
10
10
10
10
10
10
10
10
10
10
20
40
80
80
80
80
80
78
ENDCHAR
STARTCHAR 0130
ENCODING 304
SWIDTH 360 0
DWIDTH 14 0
BBX 9 34 3 0
BITMAP
1800
1800
0000
0000
0000
0000
0000
FF80
0800
0800
0800
0800
0800
0800
0800
0800
0800
0800
0800
0800
0800
0800
0800
0800
0800
0800
0800
0800
0800
0800
0800
0800
0800
FF80
ENDCHAR
STARTCHAR 0131
ENCODING 305
SWIDTH 205 0
DWIDTH 8 0
BBX 1 20 4 0
BITMAP
80
80
80
80
80
80
80
80
80
80
80
80
80
80
80
80
80
80
80
80
ENDCHAR
STARTCHAR 0132
ENCODING 306
SWIDTH 617 0
DWIDTH 24 0
BBX 17 27 4 0
BITMAP
80FF80
800080
800080
800080
800080
800080
800080
800080
800080
800080
800080
800080
800080
800080
800080
800080
000080
000080
000080
000080
000080
000100
800100
800100
400200
200400
1FF800
ENDCHAR
STARTCHAR 0133
ENCODING 307
SWIDTH 437 0
DWIDTH 17 0
BBX 10 36 4 -8
BITMAP
8040
8040
0000
0000
0000
0000
0000
0000
8040
8040
8040
8040
8040
8040
8040
8040
8040
8040
8040
8040
8040
8040
8040
8040
8040
8040
8040
8040
0040
0040
0040
0040
0040
0040
0040
03C0
ENDCHAR
STARTCHAR 0134
ENCODING 308
SWIDTH 462 0
DWIDTH 18 0
BBX 13 36 1 0
BITMAP
0180
0240
0420
0810
1008
0000
0000
0000
0000
1FF8
0008
0008
0008
0008
0008
0008
0008
0008
0008
0008
0008
0008
0008
0008
0008
0008
0008
0008
0008
0008
0008
8008
8008
4010
6020
1FC0
ENDCHAR
STARTCHAR 0135
ENCODING 309
SWIDTH 205 0
DWIDTH 8 0
BBX 11 37 -1 -8
BITMAP
0400
0A00
1100
2080
4040
8020
0000
0000
0000
0400
0400
0400
0400
0400
0400
0400
0400
0400
0400
0400
0400
0400
0400
0400
0400
0400
0400
0400
0400
0400
0400
0400
0400
0400
0400
0400
3C00
ENDCHAR
STARTCHAR 0136
ENCODING 310
SWIDTH 565 0
DWIDTH 22 0
BBX 17 35 4 -8
BITMAP
800080
800100
800200
800400
800800
801000
802000
804000
808000
818000
810000
820000
850000
890000
908000
A04000
C04000
802000
801000
801000
800800
800400
800400
800200
800100
800100
800080
000000
000000
000000
018000
008000
008000
010000
010000
ENDCHAR
STARTCHAR 0137
ENCODING 311
SWIDTH 488 0
DWIDTH 19 0
BBX 14 37 4 -8
BITMAP
8000
8000
8000
8000
8000
8000
8000
8000
8000
8008
8010
8020
8040
8080
8100
8200
8400
8800
9400
A400
C200
8100
8080
8040
8020
8020
8010
8008
8004
0000
0000
0000
0200
0200
0200
0200
0400
ENDCHAR
STARTCHAR 0138
ENCODING 312
SWIDTH 488 0
DWIDTH 19 0
BBX 14 20 4 0
BITMAP
8008
8010
8020
8040
8080
8100
8200
8400
8800
9800
A400
C200
8100
8080
8040
8040
8020
8010
8008
8004
ENDCHAR
STARTCHAR 0139
ENCODING 313
SWIDTH 462 0
DWIDTH 18 0
BBX 15 36 3 0
BITMAP
0800
1800
1000
2000
4000
8000
0000
0000
0000
4000
4000
4000
4000
4000
4000
4000
4000
4000
4000
4000
4000
4000
4000
4000
4000
4000
4000
4000
4000
4000
4000
4000
4000
4000
4000
7FFE
ENDCHAR
STARTCHAR 013A
ENCODING 314
SWIDTH 231 0
DWIDTH 9 0
BBX 5 37 3 0
BITMAP
08
18
10
20
40
80
00
00
40
40
40
40
40
40
40
40
40
40
40
40
40
40
40
40
40
40
40
40
40
40
40
40
40
40
40
40
78
ENDCHAR
STARTCHAR 013B
ENCODING 315
SWIDTH 462 0
DWIDTH 18 0
BBX 14 35 4 -8
BITMAP
8000
8000
8000
8000
8000
8000
8000
8000
8000
8000
8000
8000
8000
8000
8000
8000
8000
8000
8000
8000
8000
8000
8000
8000
8000
8000
FFFC
0000
0000
0000
0300
0100
0100
0100
0200
ENDCHAR
STARTCHAR 013C
ENCODING 316
SWIDTH 231 0
DWIDTH 9 0
BBX 4 37 4 -8
BITMAP
80
80
80
80
80
80
80
80
80
80
80
80
80
80
80
80
80
80
80
80
80
80
80
80
80
80
80
80
F0
00
00
00
60
20
20
20
40
ENDCHAR
STARTCHAR 013D
ENCODING 317
SWIDTH 462 0
DWIDTH 18 0
BBX 14 29 4 0
BITMAP
0200
0400
8400
8400
8400
8400
8400
8000
8000
8000
8000
8000
8000
8000
8000
8000
8000
8000
8000
8000
8000
8000
8000
8000
8000
8000
8000
8000
FFFC
ENDCHAR
STARTCHAR 013E
ENCODING 318
SWIDTH 231 0
DWIDTH 9 0
BBX 6 29 4 0
BITMAP
84
84
84
84
84
88
88
80
80
80
80
80
80
80
80
80
80
80
80
80
80
80
80
80
80
80
80
80
F0
ENDCHAR
STARTCHAR 013F
ENCODING 319
SWIDTH 462 0
DWIDTH 18 0
BBX 14 27 4 0
BITMAP
8000
8000
8000
8000
8000
8000
8000
8000
8000
8000
8000
8000
8000
8000
8000
8060
8000
8000
8000
8000
8000
8000
8000
8000
8000
8000
FFFC
ENDCHAR
STARTCHAR 0140
ENCODING 320
SWIDTH 257 0
DWIDTH 10 0
BBX 7 29 4 0
BITMAP
80
80
80
80
80
80
80
80
80
80
80
80
80
80
80
80
80
80
86
84
80
80
80
80
80
80
80
80
F0
ENDCHAR
STARTCHAR 0141
ENCODING 321
SWIDTH 462 0
DWIDTH 18 0
BBX 17 27 1 0
BITMAP
100000
100000
100000
100000
100000
100000
100000
100000
100000
100000
100000
100000
107000
138000
1C0000
F00000
100000
100000
100000
100000
100000
100000
100000
100000
100000
100000
1FFF80
ENDCHAR
STARTCHAR 0142
ENCODING 322
SWIDTH 257 0
DWIDTH 10 0
BBX 8 29 1 0
BITMAP
10
10
10
10
10
10
10
10
10
10
10
10
10
13
1C
F0
10
10
10
10
10
10
10
10
10
10
10
10
1E
ENDCHAR
STARTCHAR 0143
ENCODING 323
SWIDTH 668 0
DWIDTH 26 0
BBX 19 36 4 0
BITMAP
000800
001000
001000
002000
004000
008000
000000
000000
000000
C00020
C00020
A00020
900020
900020
880020
840020
840020
820020
820020
810020
808020
808020
804020
802020
802020
801020
801820
800820
800420
800420
800220
800120
800120
8000A0
800060
800060
ENDCHAR
STARTCHAR 0144
ENCODING 324
SWIDTH 540 0
DWIDTH 21 0
BBX 14 29 4 0
BITMAP
0020
0040
0080
0100
0100
0200
0000
0000
0000
8FC0
B030
C008
8008
8004
8004
8004
8004
8004
8004
8004
8004
8004
8004
8004
8004
8004
8004
8004
8004
ENDCHAR
STARTCHAR 0145
ENCODING 325
SWIDTH 668 0
DWIDTH 26 0
BBX 19 35 4 -8
BITMAP
C00020
C00020
A00020
900020
900020
880020
840020
840020
820020
820020
810020
808020
808020
804020
802020
802020
801020
801820
800820
800420
800420
800220
800120
800120
8000A0
800060
800060
000000
000000
000000
004000
004000
004000
004000
008000
ENDCHAR
STARTCHAR 0146
ENCODING 326
SWIDTH 540 0
DWIDTH 21 0
BBX 14 28 4 -8
BITMAP
8FC0
B030
C008
8008
8004
8004
8004
8004
8004
8004
8004
8004
8004
8004
8004
8004
8004
8004
8004
8004
0000
0000
0000
0300
0100
0100
0200
0200
ENDCHAR
STARTCHAR 0147
ENCODING 327
SWIDTH 668 0
DWIDTH 26 0
BBX 19 36 4 0
BITMAP
080200
040400
020800
011000
00A000
004000
000000
000000
000000
C00020
C00020
A00020
900020
900020
880020
840020
840020
820020
820020
810020
808020
808020
804020
802020
802020
801020
801820
800820
800420
800420
800220
800120
800120
8000A0
800060
800060
ENDCHAR
STARTCHAR 0148
ENCODING 328
SWIDTH 540 0
DWIDTH 21 0
BBX 14 29 4 0
BITMAP
2010
1020
0860
04C0
0380
0100
0000
0000
0000
8FC0
B030
C008
8008
8004
8004
8004
8004
8004
8004
8004
8004
8004
8004
8004
8004
8004
8004
8004
8004
ENDCHAR
STARTCHAR 0149
ENCODING 329
SWIDTH 745 0
DWIDTH 29 0
BBX 24 29 2 0
BITMAP
300000
300000
100000
100000
200000
200000
400000
800000
000000
0023F0
002C0C
003002
002002
002001
002001
002001
002001
002001
002001
002001
002001
002001
002001
002001
002001
002001
002001
002001
002001
ENDCHAR
STARTCHAR 014A
ENCODING 330
SWIDTH 668 0
DWIDTH 26 0
BBX 19 35 4 -8
BITMAP
C00020
C00020
A00020
900020
900020
880020
840020
840020
820020
820020
810020
808020
808020
804020
802020
802020
801020
801820
800820
800420
800420
800220
800120
800120
8000A0
800060
800060
000020
000020
000020
000020
000020
000020
000020
0001C0
ENDCHAR
STARTCHAR 014B
ENCODING 331
SWIDTH 540 0
DWIDTH 21 0
BBX 14 28 4 -8
BITMAP
8FC0
B030
C008
8008
8004
8004
8004
8004
8004
8004
8004
8004
8004
8004
8004
8004
8004
8004
8004
8004
0004
0004
0004
0004
0004
0004
0004
003C
ENDCHAR
STARTCHAR 014C
ENCODING 332
SWIDTH 668 0
DWIDTH 26 0
BBX 21 33 3 0
BITMAP
03FE00
000000
000000
000000
000000
006000
078E00
080180
1000C0
200040
400020
400020
800010
800010
800010
800010
800008
800008
800008
800008
800008
800008
800008
800010
800010
800010
400010
400020
400020
200040
1000C0
080180
07FE00
ENDCHAR
STARTCHAR 014D
ENCODING 333
SWIDTH 540 0
DWIDTH 21 0
BBX 17 26 2 0
BITMAP
0FF800
000000
000000
000000
000000
000000
07F000
180C00
200200
200200
400100
400100
800100
800100
800080
800080
800080
800080
800080
800100
400100
400100
400200
200200
100400
0FF800
ENDCHAR
STARTCHAR 014E
ENCODING 334
SWIDTH 668 0
DWIDTH 26 0
BBX 21 35 3 0
BITMAP
040200
020400
010400
019800
006000
000000
000000
006000
078E00
080180
1000C0
200040
400020
400020
800010
800010
800010
800010
800008
800008
800008
800008
800008
800008
800008
800010
800010
800010
400010
400020
400020
200040
1000C0
080180
07FE00
ENDCHAR
STARTCHAR 014F
ENCODING 335
SWIDTH 540 0
DWIDTH 21 0
BBX 17 28 2 0
BITMAP
080800
080800
041000
022000
01C000
000000
000000
000000
07F000
180C00
200200
200200
400100
400100
800100
800100
800080
800080
800080
800080
800080
800100
400100
400100
400200
200200
100400
0FF800
ENDCHAR
STARTCHAR 0150
ENCODING 336
SWIDTH 668 0
DWIDTH 26 0
BBX 21 36 3 0
BITMAP
002040
002080
004100
008200
010200
010400
000000
000000
006000
078E00
080180
1000C0
200040
400020
400020
800010
800010
800010
800010
800008
800008
800008
800008
800008
800008
800008
800010
800010
800010
400010
400020
400020
200040
1000C0
080180
07FE00
ENDCHAR
STARTCHAR 0151
ENCODING 337
SWIDTH 540 0
DWIDTH 21 0
BBX 17 29 2 0
BITMAP
004100
008200
010400
020400
020800
041000
000000
000000
000000
07F000
180C00
200200
200200
400100
400100
800100
800100
800080
800080
800080
800080
800080
800100
400100
400100
400200
200200
100400
0FF800
ENDCHAR
STARTCHAR 0152
ENCODING 338
SWIDTH 951 0
DWIDTH 37 0
BBX 32 28 3 0
BITMAP
007C0000
0383FFFF
0C004000
10004000
20004000
20004000
40004000
40004000
80004000
80004000
80004000
80004000
80004000
80004000
80007FFE
80004000
80004000
80004000
80004000
80004000
80004000
40004000
40004000
20004000
20004000
18004000
0C004000
03FFFFFF
ENDCHAR
STARTCHAR 0153
ENCODING 339
SWIDTH 925 0
DWIDTH 36 0
BBX 32 20 2 0
BITMAP
07F007E0
180C1818
20022004
20024004
40018002
40018002
80008002
80008001
80008001
8000FFFF
80008000
80008000
80008000
80008000
40018000
40018002
40024002
20022004
10041008
0FF80FF0
ENDCHAR
STARTCHAR 0154
ENCODING 340
SWIDTH 617 0
DWIDTH 24 0
BBX 18 36 4 0
BITMAP
002000
002000
004000
008000
010000
010000
000000
000000
000000
FFFC00
800200
800100
800080
800080
800080
800080
800080
800080
800080
800080
800100
800300
800C00
FFF000
802000
801000
801000
800800
800400
800400
800200
800200
800100
800080
800080
800040
ENDCHAR
STARTCHAR 0155
ENCODING 341
SWIDTH 334 0
DWIDTH 13 0
BBX 9 29 4 0
BITMAP
0100
0200
0200
0400
0800
1000
0000
0000
0000
8380
9800
A000
C000
8000
8000
8000
8000
8000
8000
8000
8000
8000
8000
8000
8000
8000
8000
8000
8000
ENDCHAR
STARTCHAR 0156
ENCODING 342
SWIDTH 617 0
DWIDTH 24 0
BBX 18 35 4 -8
BITMAP
FFFC00
800200
800100
800080
800080
800080
800080
800080
800080
800080
800080
800100
800300
800C00
FFF000
802000
801000
801000
800800
800400
800400
800200
800200
800100
800080
800080
800040
000000
000000
000000
018000
008000
010000
010000
010000
ENDCHAR
STARTCHAR 0157
ENCODING 343
SWIDTH 334 0
DWIDTH 13 0
BBX 10 28 3 -8
BITMAP
41C0
4C00
5000
6000
4000
4000
4000
4000
4000
4000
4000
4000
4000
4000
4000
4000
4000
4000
4000
4000
0000
0000
0000
4000
4000
4000
4000
8000
ENDCHAR
STARTCHAR 0158
ENCODING 344
SWIDTH 617 0
DWIDTH 24 0
BBX 18 36 4 0
BITMAP
200800
101000
082000
044000
028000
010000
000000
000000
000000
FFFC00
800200
800100
800080
800080
800080
800080
800080
800080
800080
800080
800100
800300
800C00
FFF000
802000
801000
801000
800800
800400
800400
800200
800200
800100
800080
800080
800040
ENDCHAR
STARTCHAR 0159
ENCODING 345
SWIDTH 334 0
DWIDTH 13 0
BBX 11 29 3 0
BITMAP
8020
4040
2080
1100
0A00
0400
0000
0000
0000
41C0
4C00
5000
6000
4000
4000
4000
4000
4000
4000
4000
4000
4000
4000
4000
4000
4000
4000
4000
4000
ENDCHAR
STARTCHAR 015A
ENCODING 346
SWIDTH 540 0
DWIDTH 21 0
BBX 17 36 2 0
BITMAP
001000
002000
002000
004000
008000
010000
000000
000000
00C000
1E3C00
200200
400100
400000
800000
800000
800000
800000
800000
400000
200000
100000
0F0000
00F000
000C00
000200
000100
000080
000080
000080
000080
000080
000080
800100
400100
300200
0FFC00
ENDCHAR
STARTCHAR 015B
ENCODING 347
SWIDTH 437 0
DWIDTH 17 0
BBX 14 29 2 0
BITMAP
0040
0040
0080
0100
0200
0200
0000
0000
0000
1FC0
2030
4008
4000
8000
8000
4000
4000
2000
1E00
01E0
0010
0008
0008
0004
0004
8004
C008
6018
1FE0
ENDCHAR
STARTCHAR 015C
ENCODING 348
SWIDTH 540 0
DWIDTH 21 0
BBX 17 36 2 0
BITMAP
008000
014000
022000
041000
080800
100400
000000
000000
00C000
1E3C00
200200
400100
400000
800000
800000
800000
800000
800000
400000
200000
100000
0F0000
00F000
000C00
000200
000100
000080
000080
000080
000080
000080
000080
800100
400100
300200
0FFC00
ENDCHAR
STARTCHAR 015D
ENCODING 349
SWIDTH 437 0
DWIDTH 17 0
BBX 14 29 2 0
BITMAP
0300
0580
0880
1040
2020
0010
0000
0000
0000
1FC0
2030
4008
4000
8000
8000
4000
4000
2000
1E00
01E0
0010
0008
0008
0004
0004
8004
C008
6018
1FE0
ENDCHAR
STARTCHAR 015E
ENCODING 350
SWIDTH 540 0
DWIDTH 21 0
BBX 17 36 2 -8
BITMAP
00C000
1E3C00
200200
400100
400000
800000
800000
800000
800000
800000
400000
200000
100000
0F0000
00F000
000C00
000200
000100
000080
000080
000080
000080
000080
000080
800100
400100
300200
0E3C00
01C000
008000
010000
00F000
001000
001000
021000
01E000
ENDCHAR
STARTCHAR 015F
ENCODING 351
SWIDTH 437 0
DWIDTH 17 0
BBX 14 28 2 -8
BITMAP
1FC0
2030
4008
4000
8000
8000
4000
4000
2000
1E00
01E0
0010
0008
0008
0004
0004
8004
C008
6010
1860
0780
0200
0200
01C0
0020
0020
0040
0780
ENDCHAR
STARTCHAR 0160
ENCODING 352
SWIDTH 540 0
DWIDTH 21 0
BBX 17 36 2 0
BITMAP
100400
080800
041000
022000
014000
008000
000000
000000
00C000
1E3C00
200200
400100
400000
800000
800000
800000
800000
800000
400000
200000
100000
0F0000
00F000
000C00
000200
000100
000080
000080
000080
000080
000080
000080
800100
400100
300200
0FFC00
ENDCHAR
STARTCHAR 0161
ENCODING 353
SWIDTH 437 0
DWIDTH 17 0
BBX 14 29 2 0
BITMAP
4010
2020
1040
0880
0500
0200
0000
0000
0000
1FC0
2030
4008
4000
8000
8000
4000
4000
2000
1E00
01E0
0010
0008
0008
0004
0004
8004
C008
6018
1FE0
ENDCHAR
STARTCHAR 0162
ENCODING 354
SWIDTH 540 0
DWIDTH 21 0
BBX 20 35 1 -8
BITMAP
FFFFF0
004000
004000
004000
004000
004000
004000
004000
004000
004000
004000
004000
004000
004000
004000
004000
004000
004000
004000
004000
004000
004000
004000
004000
004000
004000
004000
000000
000000
000000
006000
002000
002000
004000
004000
ENDCHAR
STARTCHAR 0163
ENCODING 355
SWIDTH 308 0
DWIDTH 12 0
BBX 9 33 1 -8
BITMAP
0800
0800
0800
0800
0800
FF80
0800
0800
0800
0800
0800
0800
0800
0800
0800
0800
0800
0800
0800
0800
0800
0800
0800
0800
0F80
0000
0000
0000
0600
0200
0200
0200
0400
ENDCHAR
STARTCHAR 0164
ENCODING 356
SWIDTH 540 0
DWIDTH 21 0
BBX 20 36 1 0
BITMAP
040200
020400
010800
019000
00E000
004000
000000
000000
000000
FFFFF0
004000
004000
004000
004000
004000
004000
004000
004000
004000
004000
004000
004000
004000
004000
004000
004000
004000
004000
004000
004000
004000
004000
004000
004000
004000
004000
ENDCHAR
STARTCHAR 0165
ENCODING 357
SWIDTH 308 0
DWIDTH 12 0
BBX 10 29 1 0
BITMAP
0040
0040
0040
0040
0840
0880
0880
0800
0800
FF80
0800
0800
0800
0800
0800
0800
0800
0800
0800
0800
0800
0800
0800
0800
0800
0800
0800
0800
0F80
ENDCHAR
STARTCHAR 0166
ENCODING 358
SWIDTH 540 0
DWIDTH 21 0
BBX 20 27 1 0
BITMAP
FFFFF0
004000
004000
004000
004000
004000
004000
004000
004000
004000
004000
004000
3FFFC0
004000
004000
004000
004000
004000
004000
004000
004000
004000
004000
004000
004000
004000
004000
ENDCHAR
STARTCHAR 0167
ENCODING 359
SWIDTH 308 0
DWIDTH 12 0
BBX 10 25 1 0
BITMAP
0800
0800
0800
0800
0800
FFC0
0800
0800
0800
0800
0800
0800
0800
7F80
0800
0800
0800
0800
0800
0800
0800
0800
0800
0800
0F80
ENDCHAR
STARTCHAR 0168
ENCODING 360
SWIDTH 642 0
DWIDTH 25 0
BBX 17 34 4 0
BITMAP
0F0000
10C400
003800
000000
000000
000000
000000
800080
800080
800080
800080
800080
800080
800080
800080
800080
800080
800080
800080
800080
800080
800080
800080
800080
800080
800080
800080
800080
800080
800080
400100
600100
300200
0FFC00
ENDCHAR
STARTCHAR 0169
ENCODING 361
SWIDTH 540 0
DWIDTH 21 0
BBX 14 27 4 0
BITMAP
3C00
4310
00E0
0000
0000
0000
0000
8004
8004
8004
8004
8004
8004
8004
8004
8004
8004
8004
8004
8004
8004
8004
8004
800C
4014
6014
1FE4
ENDCHAR
STARTCHAR 016A
ENCODING 362
SWIDTH 642 0
DWIDTH 25 0
BBX 17 33 4 0
BITMAP
0FF800
000000
000000
000000
000000
000000
800080
800080
800080
800080
800080
800080
800080
800080
800080
800080
800080
800080
800080
800080
800080
800080
800080
800080
800080
800080
800080
800080
800080
400100
600100
300200
0FFC00
ENDCHAR
STARTCHAR 016B
ENCODING 363
SWIDTH 540 0
DWIDTH 21 0
BBX 14 26 4 0
BITMAP
3FE0
0000
0000
0000
0000
0000
8004
8004
8004
8004
8004
8004
8004
8004
8004
8004
8004
8004
8004
8004
8004
8004
800C
4014
6014
1FE4
ENDCHAR
STARTCHAR 016C
ENCODING 364
SWIDTH 642 0
DWIDTH 25 0
BBX 17 35 4 0
BITMAP
080800
080800
041000
022000
01C000
000000
000000
000000
800080
800080
800080
800080
800080
800080
800080
800080
800080
800080
800080
800080
800080
800080
800080
800080
800080
800080
800080
800080
800080
800080
800080
400100
600100
300200
0FFC00
ENDCHAR
STARTCHAR 016D
ENCODING 365
SWIDTH 540 0
DWIDTH 21 0
BBX 14 28 4 0
BITMAP
2020
2020
1040
0880
0700
0000
0000
0000
8004
8004
8004
8004
8004
8004
8004
8004
8004
8004
8004
8004
8004
8004
8004
8004
800C
4014
6014
1FE4
ENDCHAR
STARTCHAR 016E
ENCODING 366
SWIDTH 642 0
DWIDTH 25 0
BBX 17 37 4 0
BITMAP
01E000
021000
041000
041000
041000
061000
01E000
000000
000000
000000
800080
800080
800080
800080
800080
800080
800080
800080
800080
800080
800080
800080
800080
800080
800080
800080
800080
800080
800080
800080
800080
800080
800080
400100
600100
300200
0FFC00
ENDCHAR
STARTCHAR 016F
ENCODING 367
SWIDTH 540 0
DWIDTH 21 0
BBX 14 30 4 0
BITMAP
0780
0840
1040
1040
1040
0840
0780
0000
0000
0000
8004
8004
8004
8004
8004
8004
8004
8004
8004
8004
8004
8004
8004
8004
8004
8004
800C
4014
6014
1FE4
ENDCHAR
STARTCHAR 0170
ENCODING 368
SWIDTH 642 0
DWIDTH 25 0
BBX 17 36 4 0
BITMAP
004100
008200
010200
010400
020800
041000
000000
000000
000000
800080
800080
800080
800080
800080
800080
800080
800080
800080
800080
800080
800080
800080
800080
800080
800080
800080
800080
800080
800080
800080
800080
800080
400100
600100
300200
0FFC00
ENDCHAR
STARTCHAR 0171
ENCODING 369
SWIDTH 540 0
DWIDTH 21 0
BBX 14 29 4 0
BITMAP
0104
0208
0408
0410
0820
1040
0000
0000
0000
8004
8004
8004
8004
8004
8004
8004
8004
8004
8004
8004
8004
8004
8004
8004
8004
800C
4014
6014
1FE4
ENDCHAR
STARTCHAR 0172
ENCODING 370
SWIDTH 642 0
DWIDTH 25 0
BBX 17 35 4 -8
BITMAP
800080
800080
800080
800080
800080
800080
800080
800080
800080
800080
800080
800080
800080
800080
800080
800080
800080
800080
800080
800080
800080
800080
800080
400100
600100
300200
0C1C00
03F000
004000
008000
008000
010000
010000
008000
007800
ENDCHAR
STARTCHAR 0173
ENCODING 371
SWIDTH 540 0
DWIDTH 21 0
BBX 15 28 4 -8
BITMAP
8004
8004
8004
8004
8004
8004
8004
8004
8004
8004
8004
8004
8004
8004
8004
8004
800C
4014
6014
18E4
0708
0010
0020
0040
0040
0040
0042
003C
ENDCHAR
STARTCHAR 0174
ENCODING 372
SWIDTH 848 0
DWIDTH 33 0
BBX 32 36 1 0
BITMAP
00018000
00024000
00042000
00081000
00100800
00000000
00000000
00000000
00000000
80018001
40018002
40028002
40024002
40024002
20024004
20044004
20042004
20042008
10082008
10081008
10081008
10081010
08101010
08100810
08100810
08100820
04200420
04200420
04200420
02400440
02400240
02400240
02400280
01800280
01800180
01800180
ENDCHAR
STARTCHAR 0175
ENCODING 373
SWIDTH 720 0
DWIDTH 28 0
BBX 26 29 1 0
BITMAP
000C0000
00120000
00210000
00408000
00804000
00000000
00000000
00000000
00000000
80040040
400C0080
400C0080
40120080
40120080
20120100
20120100
20210100
10210200
10210200
10408200
08408400
08408400
08804400
08804400
04804800
05002800
05002800
03003000
03001000
ENDCHAR
STARTCHAR 0176
ENCODING 374
SWIDTH 540 0
DWIDTH 21 0
BBX 19 36 1 0
BITMAP
004000
00A000
011000
020800
040400
080200
000000
000000
000000
800020
400040
400040
200080
100080
100100
080200
080200
040400
020400
020800
011000
011000
00A000
006000
004000
004000
004000
004000
004000
004000
004000
004000
004000
004000
004000
004000
ENDCHAR
STARTCHAR 0177
ENCODING 375
SWIDTH 437 0
DWIDTH 17 0
BBX 16 37 1 -8
BITMAP
0180
0240
0420
0810
1008
0000
0000
0000
0000
8001
8002
4002
4004
4004
2004
2008
2008
1008
1010
0810
0820
0820
0420
0440
0440
0240
0280
0180
0180
0100
0100
0200
0200
0200
0400
0400
7800
ENDCHAR
STARTCHAR 0178
ENCODING 376
SWIDTH 540 0
DWIDTH 21 0
BBX 19 34 1 0
BITMAP
060C00
060C00
000000
000000
000000
000000
000000
800020
400040
400040
200080
100080
100100
080200
080200
040400
020400
020800
011000
011000
00A000
006000
004000
004000
004000
004000
004000
004000
004000
004000
004000
004000
004000
004000
ENDCHAR
STARTCHAR 0179
ENCODING 377
SWIDTH 540 0
DWIDTH 21 0
BBX 19 36 2 0
BITMAP
000800
001000
002000
004000
004000
008000
000000
000000
000000
FFFFC0
000080
000100
000100
000200
000400
000400
000800
001000
001000
002000
004000
004000
008000
010000
010000
020000
040000
040000
080000
100000
100000
200000
400000
400000
800000
FFFFE0
ENDCHAR
STARTCHAR 017A
ENCODING 378
SWIDTH 411 0
DWIDTH 16 0
BBX 14 29 1 0
BITMAP
0020
0040
0080
0080
0100
0200
0000
0000
0000
FFFC
0004
0008
0010
0010
0020
0040
0080
0080
0100
0200
0200
0400
0800
1000
1000
2000
4000
8000
FFFC
ENDCHAR
STARTCHAR 017B
ENCODING 379
SWIDTH 540 0
DWIDTH 21 0
BBX 19 34 2 0
BITMAP
00C000
00C000
000000
000000
000000
000000
000000
FFFFC0
000080
000100
000100
000200
000400
000400
000800
001000
001000
002000
004000
004000
008000
010000
010000
020000
040000
040000
080000
100000
100000
200000
400000
400000
800000
FFFFE0
ENDCHAR
STARTCHAR 017C
ENCODING 380
SWIDTH 411 0
DWIDTH 16 0
BBX 14 27 1 0
BITMAP
0300
0300
0000
0000
0000
0000
0000
FFFC
0004
0008
0010
0010
0020
0040
0080
0080
0100
0200
0200
0400
0800
1000
1000
2000
4000
8000
FFFC
ENDCHAR
STARTCHAR 017D
ENCODING 381
SWIDTH 540 0
DWIDTH 21 0
BBX 19 36 2 0
BITMAP
080400
040800
021000
012000
00E000
00C000
000000
000000
000000
FFFFC0
000080
000100
000100
000200
000400
000400
000800
001000
001000
002000
004000
004000
008000
010000
010000
020000
040000
040000
080000
100000
100000
200000
400000
400000
800000
FFFFE0
ENDCHAR
STARTCHAR 017E
ENCODING 382
SWIDTH 411 0
DWIDTH 16 0
BBX 14 29 1 0
BITMAP
2010
1010
0820
0440
0280
0100
0000
0000
0000
FFFC
0004
0008
0010
0010
0020
0040
0080
0080
0100
0200
0200
0400
0800
1000
1000
2000
4000
8000
FFFC
ENDCHAR
STARTCHAR 018F
ENCODING 399
SWIDTH 668 0
DWIDTH 26 0
BBX 21 28 3 0
BITMAP
006000
078E00
080180
1000C0
200040
400020
400020
400010
000010
000010
000010
000008
000008
000008
FFFFF8
800008
800008
800008
800010
800010
800010
400010
400020
400020
200040
1000C0
080180
07FE00
ENDCHAR
STARTCHAR 0192
ENCODING 402
SWIDTH 462 0
DWIDTH 18 0
BBX 18 32 0 -5
BITMAP
003FC0
002000
002000
004000
004000
004000
004000
004000
004000
004000
004000
004000
004000
008000
3FFFC0
008000
008000
008000
008000
008000
008000
008000
008000
010000
010000
010000
010000
010000
010000
010000
010000
FF0000
ENDCHAR
STARTCHAR 01A0
ENCODING 416
SWIDTH 668 0
DWIDTH 26 0
BBX 21 32 3 0
BITMAP
000008
000008
000008
000008
007008
078FF0
080180
1000C0
200040
400020
400020
800010
800010
800010
800010
800008
800008
800008
800008
800008
800008
800008
800010
800010
800010
400010
400020
400020
200040
1000C0
080180
07FE00
ENDCHAR
STARTCHAR 01A1
ENCODING 417
SWIDTH 540 0
DWIDTH 21 0
BBX 17 23 2 1
BITMAP
000100
000100
000100
07FF00
180C00
200200
200200
400100
400100
800100
800100
800080
800080
800080
800080
800080
800100
400100
400100
400200
200200
100400
0FF800
ENDCHAR
STARTCHAR 01AF
ENCODING 431
SWIDTH 642 0
DWIDTH 25 0
BBX 21 31 4 0
BITMAP
000008
000008
000008
000008
800070
800080
800080
800080
800080
800080
800080
800080
800080
800080
800080
800080
800080
800080
800080
800080
800080
800080
800080
800080
800080
800080
800080
400100
600100
300200
0FFC00
ENDCHAR
STARTCHAR 01B0
ENCODING 432
SWIDTH 540 0
DWIDTH 21 0
BBX 17 24 4 0
BITMAP
000080
000080
000080
000080
800700
800400
800400
800400
800400
800400
800400
800400
800400
800400
800400
800400
800400
800400
800400
800400
800C00
401400
601400
1FE400
ENDCHAR
STARTCHAR 01FA
ENCODING 506
SWIDTH 591 0
DWIDTH 23 0
BBX 21 42 1 0
BITMAP
000C00
000800
001000
002000
000000
007800
008400
010400
010400
010400
008400
007800
000000
000000
000000
002000
005000
005000
004800
008800
008800
008400
010400
010400
020200
020200
020200
040100
040100
040080
080080
080080
0FFFC0
100040
100040
100020
200020
200020
400010
400010
400008
800008
ENDCHAR
STARTCHAR 01FB
ENCODING 507
SWIDTH 514 0
DWIDTH 20 0
BBX 17 35 2 0
BITMAP
002000
004000
008000
010000
000000
03C000
042000
082000
082000
082000
042000
03C000
000000
000000
000000
0FE000
101000
200800
400400
000400
000400
000400
000400
000400
03FC00
180400
600400
400400
800400
800400
800400
800400
400C00
601400
1FE780
ENDCHAR
STARTCHAR 01FC
ENCODING 508
SWIDTH 848 0
DWIDTH 33 0
BBX 31 36 0 0
BITMAP
00000020
00000040
000000C0
00000080
00000100
00000200
00000000
00000000
00000000
0001FFFE
00028000
00048000
00048000
00088000
00088000
00108000
00108000
00208000
00208000
00408000
00408000
00808000
0100FFFC
01008000
02008000
02008000
07FF8000
04008000
08008000
08008000
10008000
10008000
20008000
40008000
40008000
8000FFFE
ENDCHAR
STARTCHAR 01FD
ENCODING 509
SWIDTH 848 0
DWIDTH 33 0
BBX 29 29 2 0
BITMAP
00004000
0000C000
00008000
00010000
00020000
00040000
00000000
00000000
00000000
0FE03F00
3010C0C0
20090020
400A0010
00060010
00040008
00040008
00040008
00040008
03FFFFF8
38040000
40040000
40040000
80040000
80040000
80060008
800A0010
40090010
40108020
3FE07FC0
ENDCHAR
STARTCHAR 01FE
ENCODING 510
SWIDTH 668 0
DWIDTH 26 0
BBX 21 37 3 -1
BITMAP
000400
000800
001000
001000
002000
004000
000000
000000
007010
078E10
0801A0
1000C0
200040
4000A0
400120
800110
800210
800410
800810
800808
801008
802008
802008
804008
808008
808008
810010
820010
840010
440010
480020
500020
300040
3000C0
480180
470E00
80F000
ENDCHAR
STARTCHAR 01FF
ENCODING 511
SWIDTH 540 0
DWIDTH 21 0
BBX 18 30 2 -1
BITMAP
001000
003000
002000
004000
008000
008000
000000
000000
000040
07F080
080D00
100200
200600
400500
400900
401100
802080
804080
808080
808080
810080
820080
440080
480100
480100
300100
200200
500400
8E1800
81E000
ENDCHAR
STARTCHAR 0218
ENCODING 536
SWIDTH 540 0
DWIDTH 21 0
BBX 17 36 2 -8
BITMAP
00C000
1E3C00
200200
400100
400000
800000
800000
800000
800000
800000
400000
200000
100000
0F0000
00F000
000C00
000200
000100
000080
000080
000080
000080
000080
000080
800100
400100
300200
0E3C00
01C000
000000
000000
00C000
004000
008000
008000
010000
ENDCHAR
STARTCHAR 0219
ENCODING 537
SWIDTH 437 0
DWIDTH 17 0
BBX 14 28 2 -8
BITMAP
1FC0
2030
4008
4000
8000
8000
4000
4000
2000
1E00
01E0
0010
0008
0008
0004
0004
8004
C008
6018
1860
0780
0000
0000
0300
0100
0100
0200
0200
ENDCHAR
STARTCHAR 021A
ENCODING 538
SWIDTH 540 0
DWIDTH 21 0
BBX 20 35 1 -8
BITMAP
FFFFF0
004000
004000
004000
004000
004000
004000
004000
004000
004000
004000
004000
004000
004000
004000
004000
004000
004000
004000
004000
004000
004000
004000
004000
004000
004000
004000
000000
000000
000000
006000
002000
002000
004000
004000
ENDCHAR
STARTCHAR 021B
ENCODING 539
SWIDTH 308 0
DWIDTH 12 0
BBX 9 33 1 -8
BITMAP
0800
0800
0800
0800
0800
FF80
0800
0800
0800
0800
0800
0800
0800
0800
0800
0800
0800
0800
0800
0800
0800
0800
0800
0800
0F80
0000
0000
0000
0600
0200
0200
0200
0400
ENDCHAR
STARTCHAR 0237
ENCODING 567
SWIDTH 205 0
DWIDTH 8 0
BBX 4 28 1 -8
BITMAP
10
10
10
10
10
10
10
10
10
10
10
10
10
10
10
10
10
10
10
10
10
10
10
10
10
10
10
F0
ENDCHAR
STARTCHAR 0259
ENCODING 601
SWIDTH 514 0
DWIDTH 20 0
BBX 16 20 2 0
BITMAP
07F0
1808
2004
4002
4002
0001
0001
0001
0001
0001
FFFF
8001
8001
8001
4001
4001
2002
2002
100C
0FF0
ENDCHAR
STARTCHAR 02BB
ENCODING 699
SWIDTH 591 0
DWIDTH 23 0
BBX 2 6 11 23
BITMAP
40
80
80
80
C0
80
ENDCHAR
STARTCHAR 02BC
ENCODING 700
SWIDTH 591 0
DWIDTH 23 0
BBX 2 7 9 22
BITMAP
40
40
40
80
80
80
80
ENDCHAR
STARTCHAR 02C6
ENCODING 710
SWIDTH 591 0
DWIDTH 23 0
BBX 11 6 6 23
BITMAP
0600
0A00
1100
2080
4040
8020
ENDCHAR
STARTCHAR 02C7
ENCODING 711
SWIDTH 591 0
DWIDTH 23 0
BBX 11 6 6 23
BITMAP
8020
4040
2080
1100
0A00
0400
ENDCHAR
STARTCHAR 02D8
ENCODING 728
SWIDTH 591 0
DWIDTH 23 0
BBX 9 4 7 24
BITMAP
8080
8080
4100
3E00
ENDCHAR
STARTCHAR 02D9
ENCODING 729
SWIDTH 591 0
DWIDTH 23 0
BBX 2 2 11 25
BITMAP
80
C0
ENDCHAR
STARTCHAR 02DA
ENCODING 730
SWIDTH 591 0
DWIDTH 23 0
BBX 7 7 8 23
BITMAP
3C
42
82
82
82
42
3C
ENDCHAR
STARTCHAR 02DB
ENCODING 731
SWIDTH 591 0
DWIDTH 23 0
BBX 6 8 6 -7
BITMAP
08
20
40
80
80
80
84
38
ENDCHAR
STARTCHAR 02DC
ENCODING 732
SWIDTH 591 0
DWIDTH 23 0
BBX 11 3 6 24
BITMAP
7800
8620
01C0
ENDCHAR
STARTCHAR 02DD
ENCODING 733
SWIDTH 591 0
DWIDTH 23 0
BBX 11 6 8 23
BITMAP
0820
1040
2040
2080
4100
8200
ENDCHAR
STARTCHAR 0300
ENCODING 768
SWIDTH 0 0
DWIDTH 0 0
BBX 5 6 -4 23
BITMAP
80
40
20
10
10
08
ENDCHAR
STARTCHAR 0301
ENCODING 769
SWIDTH 0 0
DWIDTH 0 0
BBX 5 6 -1 23
BITMAP
08
10
20
40
40
80
ENDCHAR
STARTCHAR 0302
ENCODING 770
SWIDTH 0 0
DWIDTH 0 0
BBX 10 5 -5 23
BITMAP
0C00
1200
2100
4080
8040
ENDCHAR
STARTCHAR 0303
ENCODING 771
SWIDTH 0 0
DWIDTH 0 0
BBX 10 3 -5 24
BITMAP
F800
0440
0380
ENDCHAR
STARTCHAR 0304
ENCODING 772
SWIDTH 0 0
DWIDTH 0 0
BBX 9 1 -4 25
BITMAP
FF80
ENDCHAR
STARTCHAR 0306
ENCODING 774
SWIDTH 0 0
DWIDTH 0 0
BBX 10 4 -5 24
BITMAP
8040
4080
4080
3F00
ENDCHAR
STARTCHAR 0307
ENCODING 775
SWIDTH 0 0
DWIDTH 0 0
BBX 2 2 -1 25
BITMAP
C0
C0
ENDCHAR
STARTCHAR 0308
ENCODING 776
SWIDTH 0 0
DWIDTH 0 0
BBX 8 2 -4 25
BITMAP
81
81
ENDCHAR
STARTCHAR 0309
ENCODING 777
SWIDTH 0 0
DWIDTH 0 0
BBX 6 6 -3 23
BITMAP
FC
04
04
08
10
10
ENDCHAR
STARTCHAR 030A
ENCODING 778
SWIDTH 0 0
DWIDTH 0 0
BBX 7 7 -3 23
BITMAP
78
84
84
82
84
84
78
ENDCHAR
STARTCHAR 030B
ENCODING 779
SWIDTH 0 0
DWIDTH 0 0
BBX 11 6 -4 23
BITMAP
0820
1020
1040
2080
4100
8100
ENDCHAR
STARTCHAR 030C
ENCODING 780
SWIDTH 0 0
DWIDTH 0 0
BBX 10 6 -5 23
BITMAP
8040
4080
2100
1200
0E00
0400
ENDCHAR
STARTCHAR 0312
ENCODING 786
SWIDTH 0 0
DWIDTH 0 0
BBX 2 6 -1 23
BITMAP
40
40
80
80
C0
C0
ENDCHAR
STARTCHAR 0315
ENCODING 789
SWIDTH 0 0
DWIDTH 0 0
BBX 2 7 0 22
BITMAP
40
80
80
80
80
80
80
ENDCHAR
STARTCHAR 031B
ENCODING 795
SWIDTH 0 0
DWIDTH 0 0
BBX 4 5 -3 19
BITMAP
10
10
10
10
F0
ENDCHAR
STARTCHAR 0323
ENCODING 803
SWIDTH 0 0
DWIDTH 0 0
BBX 2 2 -1 -5
BITMAP
80
C0
ENDCHAR
STARTCHAR 0326
ENCODING 806
SWIDTH 0 0
DWIDTH 0 0
BBX 2 5 -1 -8
BITMAP
C0
40
40
80
80
ENDCHAR
STARTCHAR 0327
ENCODING 807
SWIDTH 0 0
DWIDTH 0 0
BBX 7 8 -3 -8
BITMAP
20
20
20
1C
02
02
84
38
ENDCHAR
STARTCHAR 0328
ENCODING 808
SWIDTH 0 0
DWIDTH 0 0
BBX 5 9 -5 -8
BITMAP
08
10
20
40
80
80
80
80
78
ENDCHAR
STARTCHAR 037E
ENCODING 894
SWIDTH 257 0
DWIDTH 10 0
BBX 3 24 3 -6
BITMAP
60
60
00
00
00
00
00
00
00
00
00
00
00
00
00
00
00
60
60
20
20
40
40
80
ENDCHAR
STARTCHAR 0384
ENCODING 900
SWIDTH 591 0
DWIDTH 23 0
BBX 3 6 11 23
BITMAP
20
20
20
40
40
80
ENDCHAR
STARTCHAR 0385
ENCODING 901
SWIDTH 591 0
DWIDTH 23 0
BBX 9 6 7 23
BITMAP
0400
0400
C980
C980
1000
1000
ENDCHAR
STARTCHAR 0386
ENCODING 902
SWIDTH 591 0
DWIDTH 23 0
BBX 21 29 1 0
BITMAP
040000
080000
082000
105000
105000
204800
008800
008800
008400
010400
010400
020200
020200
020200
040100
040100
040080
080080
080080
0FFFC0
100040
100040
100020
200020
200020
400010
400010
400008
800008
ENDCHAR
STARTCHAR 0387
ENCODING 903
SWIDTH 257 0
DWIDTH 10 0
BBX 2 2 4 17
BITMAP
C0
C0
ENDCHAR
STARTCHAR 0388
ENCODING 904
SWIDTH 565 0
DWIDTH 22 0
BBX 21 29 -1 0
BITMAP
200000
200000
23FFF8
420000
420000
820000
020000
020000
020000
020000
020000
020000
020000
020000
020000
03FFF0
020000
020000
020000
020000
020000
020000
020000
020000
020000
020000
020000
020000
03FFF8
ENDCHAR
STARTCHAR 0389
ENCODING 905
SWIDTH 694 0
DWIDTH 27 0
BBX 25 29 -1 0
BITMAP
20000000
20000000
22000080
42000080
42000080
82000080
02000080
02000080
02000080
02000080
02000080
02000080
02000080
02000080
02000080
03FFFF80
02000080
02000080
02000080
02000080
02000080
02000080
02000080
02000080
02000080
02000080
02000080
02000080
02000080
ENDCHAR
STARTCHAR 038A
ENCODING 906
SWIDTH 411 0
DWIDTH 16 0
BBX 15 29 -1 0
BITMAP
2000
2000
23FE
4020
4020
8020
0020
0020
0020
0020
0020
0020
0020
0020
0020
0020
0020
0020
0020
0020
0020
0020
0020
0020
0020
0020
0020
0020
03FE
ENDCHAR
STARTCHAR 038C
ENCODING 908
SWIDTH 668 0
DWIDTH 26 0
BBX 25 29 -1 0
BITMAP
20000000
20060000
2078E000
40801800
41000C00
82000400
04000200
04000200
08000100
08000100
08000100
08000100
08000080
08000080
08000080
08000080
08000080
08000080
08000080
08000100
08000100
08000100
04000100
04000200
04000200
02000400
01000C00
00801800
007FE000
ENDCHAR
STARTCHAR 038E
ENCODING 910
SWIDTH 617 0
DWIDTH 24 0
BBX 24 29 -1 0
BITMAP
200000
200000
240001
420001
420002
810004
008004
008008
004008
004010
002020
001020
001040
000840
000880
000500
000300
000200
000200
000200
000200
000200
000200
000200
000200
000200
000200
000200
000200
ENDCHAR
STARTCHAR 038F
ENCODING 911
SWIDTH 668 0
DWIDTH 26 0
BBX 25 29 -1 0
BITMAP
20000000
20070000
2078F000
40800800
41000400
82000200
04000100
04000100
04000100
08000080
08000080
08000080
08000080
08000080
08000080
08000080
08000080
08000080
08000080
08000080
04000100
04000100
02000200
02000200
01000400
00800800
00603000
00104000
0FF07F80
ENDCHAR
STARTCHAR 0390
ENCODING 912
SWIDTH 257 0
DWIDTH 10 0
BBX 8 29 1 0
BITMAP
04
08
89
91
10
20
00
00
00
10
10
10
10
10
10
10
10
10
10
10
10
10
10
10
10
10
10
10
1F
ENDCHAR
STARTCHAR 0391
ENCODING 913
SWIDTH 591 0
DWIDTH 23 0
BBX 21 27 1 0
BITMAP
002000
005000
005000
004800
008800
008800
008400
010400
010400
020200
020200
020200
040100
040100
040080
080080
080080
0FFFC0
100040
100040
100020
200020
200020
400010
400010
400008
800008
ENDCHAR
STARTCHAR 0392
ENCODING 914
SWIDTH 591 0
DWIDTH 23 0
BBX 17 27 4 0
BITMAP
FFF800
800600
800200
800100
800100
800100
800100
800100
800100
800100
800200
800400
FFF800
800600
800100
800100
800080
800080
800080
800080
800080
800080
800080
800080
800100
800200
FFFC00
ENDCHAR
STARTCHAR 0393
ENCODING 915
SWIDTH 488 0
DWIDTH 19 0
BBX 14 27 4 0
BITMAP
FFFC
8000
8000
8000
8000
8000
8000
8000
8000
8000
8000
8000
8000
8000
8000
8000
8000
8000
8000
8000
8000
8000
8000
8000
8000
8000
8000
ENDCHAR
STARTCHAR 0394
ENCODING 916
SWIDTH 591 0
DWIDTH 23 0
BBX 20 27 2 0
BITMAP
004000
00A000
00A000
009000
011000
011000
010800
020800
020800
040400
040400
040400
080200
080200
080100
100100
100100
100080
200080
200080
200040
400040
400040
800020
800020
800010
FFFFF0
ENDCHAR
STARTCHAR 0395
ENCODING 917
SWIDTH 540 0
DWIDTH 21 0
BBX 15 27 4 0
BITMAP
FFFE
8000
8000
8000
8000
8000
8000
8000
8000
8000
8000
8000
8000
FFFE
8000
8000
8000
8000
8000
8000
8000
8000
8000
8000
8000
8000
FFFE
ENDCHAR
STARTCHAR 0396
ENCODING 918
SWIDTH 540 0
DWIDTH 21 0
BBX 19 27 2 0
BITMAP
FFFFC0
000080
000100
000100
000200
000400
000400
000800
001000
001000
002000
004000
004000
008000
010000
010000
020000
040000
040000
080000
100000
100000
200000
400000
400000
800000
FFFFE0
ENDCHAR
STARTCHAR 0397
ENCODING 919
SWIDTH 668 0
DWIDTH 26 0
BBX 19 27 4 0
BITMAP
800020
800020
800020
800020
800020
800020
800020
800020
800020
800020
800020
800020
800020
FFFFE0
800020
800020
800020
800020
800020
800020
800020
800020
800020
800020
800020
800020
800020
ENDCHAR
STARTCHAR 0398
ENCODING 920
SWIDTH 668 0
DWIDTH 26 0
BBX 21 28 3 0
BITMAP
006000
078E00
080180
1000C0
200040
400020
400020
800010
800010
800010
800010
800008
800008
800008
8FFF88
800008
800008
800008
800010
800010
800010
400010
400020
400020
200040
1000C0
080180
07FE00
ENDCHAR
STARTCHAR 0399
ENCODING 921
SWIDTH 360 0
DWIDTH 14 0
BBX 9 27 3 0
BITMAP
FF80
0800
0800
0800
0800
0800
0800
0800
0800
0800
0800
0800
0800
0800
0800
0800
0800
0800
0800
0800
0800
0800
0800
0800
0800
0800
FF80
ENDCHAR
STARTCHAR 039A
ENCODING 922
SWIDTH 565 0
DWIDTH 22 0
BBX 17 27 4 0
BITMAP
800080
800100
800200
800400
800800
801000
802000
804000
808000
818000
810000
820000
850000
890000
908000
A04000
C04000
802000
801000
801000
800800
800400
800400
800200
800100
800100
800080
ENDCHAR
STARTCHAR 039B
ENCODING 923
SWIDTH 565 0
DWIDTH 22 0
BBX 21 27 1 0
BITMAP
002000
005000
005000
009000
008800
008800
010800
010400
010400
020400
020200
020200
040100
040100
040100
080080
080080
080080
100040
100040
200040
200020
200020
400020
400010
400010
800008
ENDCHAR
STARTCHAR 039C
ENCODING 924
SWIDTH 771 0
DWIDTH 30 0
BBX 23 27 4 0
BITMAP
C00006
C0000A
A0000A
900012
900012
880022
840042
840042
820082
820082
810102
808202
808202
804402
804402
802802
801002
801002
800002
800002
800002
800002
800002
800002
800002
800002
800002
ENDCHAR
STARTCHAR 039D
ENCODING 925
SWIDTH 668 0
DWIDTH 26 0
BBX 19 27 4 0
BITMAP
C00020
C00020
A00020
900020
900020
880020
840020
840020
820020
820020
810020
808020
808020
804020
802020
802020
801020
801820
800820
800420
800420
800220
800120
800120
8000A0
800060
800060
ENDCHAR
STARTCHAR 039E
ENCODING 926
SWIDTH 540 0
DWIDTH 21 0
BBX 16 27 3 0
BITMAP
FFFF
0000
0000
0000
0000
0000
0000
0000
0000
0000
0000
0000
0000
7FFE
0000
0000
0000
0000
0000
0000
0000
0000
0000
0000
0000
0000
FFFF
ENDCHAR
STARTCHAR 039F
ENCODING 927
SWIDTH 668 0
DWIDTH 26 0
BBX 21 28 3 0
BITMAP
006000
078E00
080180
1000C0
200040
400020
400020
800010
800010
800010
800010
800008
800008
800008
800008
800008
800008
800008
800010
800010
800010
400010
400020
400020
200040
1000C0
080180
07FE00
ENDCHAR
STARTCHAR 03A0
ENCODING 928
SWIDTH 668 0
DWIDTH 26 0
BBX 18 27 4 0
BITMAP
FFFFC0
800040
800040
800040
800040
800040
800040
800040
800040
800040
800040
800040
800040
800040
800040
800040
800040
800040
800040
800040
800040
800040
800040
800040
800040
800040
800040
ENDCHAR
STARTCHAR 03A1
ENCODING 929
SWIDTH 591 0
DWIDTH 23 0
BBX 17 27 4 0
BITMAP
FFFC00
800200
800100
800080
800080
800080
800080
800080
800080
800080
800080
800100
800300
800C00
FFF000
800000
800000
800000
800000
800000
800000
800000
800000
800000
800000
800000
800000
ENDCHAR
STARTCHAR 03A3
ENCODING 931
SWIDTH 565 0
DWIDTH 22 0
BBX 18 27 2 0
BITMAP
FFFFC0
400000
200000
100000
100000
080000
040000
020000
010000
008000
008000
004000
002000
002000
002000
004000
008000
010000
020000
040000
040000
080000
100000
200000
400000
800000
FFFFC0
ENDCHAR
STARTCHAR 03A4
ENCODING 932
SWIDTH 540 0
DWIDTH 21 0
BBX 20 27 1 0
BITMAP
FFFFF0
004000
004000
004000
004000
004000
004000
004000
004000
004000
004000
004000
004000
004000
004000
004000
004000
004000
004000
004000
004000
004000
004000
004000
004000
004000
004000
ENDCHAR
STARTCHAR 03A5
ENCODING 933
SWIDTH 540 0
DWIDTH 21 0
BBX 19 27 1 0
BITMAP
800020
400040
400040
200080
100080
100100
080200
080200
040400
020400
020800
011000
011000
00A000
006000
004000
004000
004000
004000
004000
004000
004000
004000
004000
004000
004000
004000
ENDCHAR
STARTCHAR 03A6
ENCODING 934
SWIDTH 822 0
DWIDTH 32 0
BBX 27 29 3 -1
BITMAP
00080000
00080000
01FFE000
06081800
18080600
20080100
20080180
40080080
80080040
80080040
80080040
80080040
80080040
80080020
80080020
80080020
80080040
80080040
80080040
80080040
40080080
40080080
20080100
10080200
0C080C00
03083000
00FFC000
00080000
00080000
ENDCHAR
STARTCHAR 03A7
ENCODING 935
SWIDTH 540 0
DWIDTH 21 0
BBX 19 27 1 0
BITMAP
400020
200040
2000C0
100080
080100
080300
040200
020400
020C00
010800
009000
00A000
006000
006000
00A000
009000
010800
020800
020400
040200
080200
080100
100080
200080
200040
400020
800020
ENDCHAR
STARTCHAR 03A8
ENCODING 936
SWIDTH 745 0
DWIDTH 29 0
BBX 23 27 3 0
BITMAP
801002
801002
801002
801002
801002
801002
801002
801002
801002
801002
801002
801002
801002
401004
401004
201008
101010
0C1060
03FF80
001000
001000
001000
001000
001000
001000
001000
001000
ENDCHAR
STARTCHAR 03A9
ENCODING 937
SWIDTH 668 0
DWIDTH 26 0
BBX 21 28 3 0
BITMAP
007000
078F00
080080
100040
200020
400010
400010
400010
800008
800008
800008
800008
800008
800008
800008
800008
800008
800008
800008
400010
400010
200020
200020
100040
080080
060300
010400
FF07F8
ENDCHAR
STARTCHAR 03AA
ENCODING 938
SWIDTH 360 0
DWIDTH 14 0
BBX 9 34 3 0
BITMAP
8100
C180
0000
0000
0000
0000
0000
FF80
0800
0800
0800
0800
0800
0800
0800
0800
0800
0800
0800
0800
0800
0800
0800
0800
0800
0800
0800
0800
0800
0800
0800
0800
0800
FF80
ENDCHAR
STARTCHAR 03AB
ENCODING 939
SWIDTH 540 0
DWIDTH 21 0
BBX 19 34 1 0
BITMAP
060C00
060C00
000000
000000
000000
000000
000000
800020
400040
400040
200080
100080
100100
080200
080200
040400
020400
020800
011000
011000
00A000
006000
004000
004000
004000
004000
004000
004000
004000
004000
004000
004000
004000
004000
ENDCHAR
STARTCHAR 03AC
ENCODING 940
SWIDTH 617 0
DWIDTH 24 0
BBX 21 29 2 0
BITMAP
002000
002000
004000
004000
008000
008000
000000
000000
000000
07E010
181020
200820
200420
400440
400240
400240
800280
800180
800100
800100
800180
800280
800280
400280
400440
400440
200840
101040
0FE038
ENDCHAR
STARTCHAR 03AD
ENCODING 941
SWIDTH 514 0
DWIDTH 20 0
BBX 15 29 3 0
BITMAP
0040
0040
0080
0080
0100
0100
0000
0000
0000
0FF0
300C
2002
4000
4000
4000
4000
2000
3000
0FF0
1800
2000
4000
8000
8000
8000
8000
4002
6004
1FF8
ENDCHAR
STARTCHAR 03AE
ENCODING 942
SWIDTH 565 0
DWIDTH 22 0
BBX 17 37 1 -8
BITMAP
000800
000800
001000
001000
002000
002000
000000
000000
000000
F1FC00
120200
140100
180080
100080
100080
100080
100080
100080
100080
100080
100080
100080
100080
100080
100080
100080
100080
100080
100080
000080
000080
000080
000080
000080
000080
000080
000080
ENDCHAR
STARTCHAR 03AF
ENCODING 943
SWIDTH 257 0
DWIDTH 10 0
BBX 5 29 4 0
BITMAP
10
20
20
40
40
80
00
00
00
80
80
80
80
80
80
80
80
80
80
80
80
80
80
80
80
80
80
80
F8
ENDCHAR
STARTCHAR 03B0
ENCODING 944
SWIDTH 540 0
DWIDTH 21 0
BBX 14 29 4 0
BITMAP
0100
0100
1120
3220
0200
0400
0000
0000
0000
8004
8004
8004
8004
8004
8004
8004
8004
8004
8004
8004
8004
8004
8008
8008
8008
8008
4010
6010
1FE0
ENDCHAR
STARTCHAR 03B1
ENCODING 945
SWIDTH 617 0
DWIDTH 24 0
BBX 21 20 2 0
BITMAP
07E010
181020
200820
200420
400440
400240
400240
800280
800180
800100
800100
800180
800280
800280
400280
400440
400440
200840
101040
0FE038
ENDCHAR
STARTCHAR 03B2
ENCODING 946
SWIDTH 565 0
DWIDTH 22 0
BBX 16 37 4 -8
BITMAP
0FE0
3010
2008
4008
8004
8004
8004
8004
8004
8004
8008
8010
8020
8FE0
8018
8004
8002
8002
8002
8002
8001
8001
8001
8002
8002
8002
C004
A008
8C70
8380
8000
8000
8000
8000
8000
8000
8000
ENDCHAR
STARTCHAR 03B3
ENCODING 947
SWIDTH 462 0
DWIDTH 18 0
BBX 17 28 0 -8
BITMAP
E00080
200080
100100
100100
100100
080200
080200
080200
040400
040400
040800
020800
020800
011000
011000
011000
00A000
00A000
00C000
004000
004000
004000
004000
004000
004000
004000
004000
004000
ENDCHAR
STARTCHAR 03B4
ENCODING 948
SWIDTH 540 0
DWIDTH 21 0
BBX 17 29 2 0
BITMAP
3FFE00
100000
080000
040000
020000
010000
008000
004000
002000
007000
078800
080400
100400
200200
400100
400100
800100
800100
800080
800080
800080
800080
800100
400100
400100
400100
200200
100400
0FF800
ENDCHAR
STARTCHAR 03B5
ENCODING 949
SWIDTH 514 0
DWIDTH 20 0
BBX 15 20 3 0
BITMAP
0FF0
300C
2002
4000
4000
4000
4000
2000
3000
0FF0
1800
2000
4000
8000
8000
8000
8000
4002
6004
1FF8
ENDCHAR
STARTCHAR 03B6
ENCODING 950
SWIDTH 411 0
DWIDTH 16 0
BBX 14 35 2 -6
BITMAP
7FFC
0008
0008
0010
0020
0040
0080
0100
0100
0200
0400
0800
1000
1000
2000
4000
4000
4000
8000
8000
8000
8000
8000
4000
4000
2000
1800
0700
00E0
0018
0008
0010
0010
0010
0010
ENDCHAR
STARTCHAR 03B7
ENCODING 951
SWIDTH 565 0
DWIDTH 22 0
BBX 17 28 1 -8
BITMAP
F1FC00
120200
140100
180080
100080
100080
100080
100080
100080
100080
100080
100080
100080
100080
100080
100080
100080
100080
100080
100080
000080
000080
000080
000080
000080
000080
000080
000080
ENDCHAR
STARTCHAR 03B8
ENCODING 952
SWIDTH 540 0
DWIDTH 21 0
BBX 16 29 3 0
BITMAP
0FE0
1010
2008
4004
4004
4002
8002
8002
8002
8002
8002
8002
8001
8001
FFFF
8001
8001
8001
8002
8002
8002
8002
8002
8002
4004
4004
2008
1018
0FE0
ENDCHAR
STARTCHAR 03B9
ENCODING 953
SWIDTH 257 0
DWIDTH 10 0
BBX 5 20 4 0
BITMAP
80
80
80
80
80
80
80
80
80
80
80
80
80
80
80
80
80
80
80
F8
ENDCHAR
STARTCHAR 03BA
ENCODING 954
SWIDTH 488 0
DWIDTH 19 0
BBX 14 20 4 0
BITMAP
800C
8010
8020
8040
8080
8100
8200
8400
8800
9800
A400
C200
8100
8080
8040
8020
8020
8010
8008
8004
ENDCHAR
STARTCHAR 03BB
ENCODING 955
SWIDTH 462 0
DWIDTH 18 0
BBX 17 29 1 0
BITMAP
380000
080000
040000
040000
040000
020000
020000
020000
010000
010000
030000
028000
028000
048000
044000
044000
084000
082000
102000
102000
101000
201000
200800
200800
400800
400400
800400
800400
800380
ENDCHAR
STARTCHAR 03BC
ENCODING 956
SWIDTH 565 0
DWIDTH 22 0
BBX 17 28 4 -8
BITMAP
800400
800400
800400
800400
800400
800400
800400
800400
800400
800400
800400
800400
800400
800400
800400
800400
800400
C00C00
A01400
986780
878000
800000
800000
800000
800000
800000
800000
800000
ENDCHAR
STARTCHAR 03BD
ENCODING 957
SWIDTH 462 0
DWIDTH 18 0
BBX 17 20 0 0
BITMAP
E00080
200080
100100
100100
100100
080200
080200
080200
040400
040400
040400
020800
020800
021000
011000
011000
00A000
00A000
00A000
004000
ENDCHAR
STARTCHAR 03BE
ENCODING 958
SWIDTH 462 0
DWIDTH 18 0
BBX 13 35 3 -6
BITMAP
FFF8
0C00
1000
2000
4000
4000
4000
4000
4000
4000
2000
1000
0800
0FE0
3000
4000
8000
8000
8000
8000
8000
8000
8000
8000
4000
6000
1000
0E00
01E0
0010
0010
0010
0010
0020
0020
ENDCHAR
STARTCHAR 03BF
ENCODING 959
SWIDTH 540 0
DWIDTH 21 0
BBX 17 20 2 0
BITMAP
07F000
180C00
200200
200200
400100
400100
800100
800100
800080
800080
800080
800080
800080
800100
400100
400100
400200
200200
100400
0FF800
ENDCHAR
STARTCHAR 03C0
ENCODING 960
SWIDTH 565 0
DWIDTH 22 0
BBX 20 20 1 0
BITMAP
FFFFF0
080100
080100
080100
080100
080100
080100
080100
080100
080100
080100
080100
080100
080100
080100
080100
080100
080100
080100
0800E0
ENDCHAR
STARTCHAR 03C1
ENCODING 961
SWIDTH 514 0
DWIDTH 20 0
BBX 15 28 3 -8
BITMAP
0FE0
1018
2008
4004
4002
8002
8002
8002
8002
8002
8002
8002
8002
8002
8002
8002
8004
C004
A008
9C70
8380
8000
8000
8000
8000
8000
8000
8000
ENDCHAR
STARTCHAR 03C2
ENCODING 962
SWIDTH 462 0
DWIDTH 18 0
BBX 15 26 2 -6
BITMAP
07F0
1808
2004
2002
4000
4000
8000
8000
8000
8000
8000
8000
4000
4000
4000
2000
1000
0C00
0380
0070
000C
0004
0008
0008
0008
0008
ENDCHAR
STARTCHAR 03C3
ENCODING 963
SWIDTH 540 0
DWIDTH 21 0
BBX 18 20 2 0
BITMAP
01FFC0
0E0800
100400
200200
400200
400100
400100
800100
800080
800080
800080
800080
800080
800100
400100
400100
400200
200200
100400
0FF800
ENDCHAR
STARTCHAR 03C4
ENCODING 964
SWIDTH 462 0
DWIDTH 18 0
BBX 16 20 1 0
BITMAP
FFFF
0100
0100
0100
0100
0100
0100
0100
0100
0100
0100
0100
0100
0100
0100
0100
0100
0100
0100
00F8
ENDCHAR
STARTCHAR 03C5
ENCODING 965
SWIDTH 540 0
DWIDTH 21 0
BBX 14 20 4 0
BITMAP
8004
8004
8004
8004
8004
8004
8004
8004
8004
8004
8004
8004
8004
8008
8008
8008
8008
4010
6010
1FE0
ENDCHAR
STARTCHAR 03C6
ENCODING 966
SWIDTH 668 0
DWIDTH 26 0
BBX 22 28 2 -8
BITMAP
0C07E0
100810
201010
201008
401008
402008
802004
802004
802004
802004
802004
802004
802004
802008
402008
402008
202010
302020
182040
072300
00FC00
002000
002000
002000
002000
002000
002000
002000
ENDCHAR
STARTCHAR 03C7
ENCODING 967
SWIDTH 437 0
DWIDTH 17 0
BBX 17 28 0 -8
BITMAP
E00000
100100
100200
080200
080400
080400
040800
040800
021000
021000
012000
014000
00C000
008000
00C000
014000
012000
022000
022000
041000
041000
080800
100800
100400
200400
200400
400200
400180
ENDCHAR
STARTCHAR 03C8
ENCODING 968
SWIDTH 668 0
DWIDTH 26 0
BBX 19 36 4 -8
BITMAP
004000
004000
004000
004000
004000
004000
004000
004000
804020
804020
804020
804020
804020
804020
804020
804020
804020
804020
804020
804020
804020
804020
804020
804020
404040
404040
204080
1E4F00
01F000
004000
004000
004000
004000
004000
004000
004000
ENDCHAR
STARTCHAR 03C9
ENCODING 969
SWIDTH 694 0
DWIDTH 27 0
BBX 22 20 3 0
BITMAP
1800C0
200020
400010
400010
800008
800008
802008
802008
802004
802004
802004
802004
802004
802004
802008
806008
805008
805008
408810
3F07E0
ENDCHAR
STARTCHAR 03CA
ENCODING 970
SWIDTH 257 0
DWIDTH 10 0
BBX 9 27 0 0
BITMAP
4080
C080
0000
0000
0000
0000
0000
0800
0800
0800
0800
0800
0800
0800
0800
0800
0800
0800
0800
0800
0800
0800
0800
0800
0800
0800
0F80
ENDCHAR
STARTCHAR 03CB
ENCODING 971
SWIDTH 540 0
DWIDTH 21 0
BBX 14 27 4 0
BITMAP
3060
3060
0000
0000
0000
0000
0000
8004
8004
8004
8004
8004
8004
8004
8004
8004
8004
8004
8004
8004
8008
8008
8008
8008
4010
6010
1FE0
ENDCHAR
STARTCHAR 03CC
ENCODING 972
SWIDTH 540 0
DWIDTH 21 0
BBX 17 29 2 0
BITMAP
002000
002000
004000
004000
008000
008000
000000
000000
000000
07F000
180C00
200200
200200
400100
400100
800100
800100
800080
800080
800080
800080
800080
800100
400100
400100
400200
200200
100400
0FF800
ENDCHAR
STARTCHAR 03CD
ENCODING 973
SWIDTH 540 0
DWIDTH 21 0
BBX 14 29 4 0
BITMAP
0080
0080
0100
0100
0200
0200
0000
0000
0000
8004
8004
8004
8004
8004
8004
8004
8004
8004
8004
8004
8004
8004
8008
8008
8008
8008
4010
6010
1FE0
ENDCHAR
STARTCHAR 03CE
ENCODING 974
SWIDTH 694 0
DWIDTH 27 0
BBX 22 29 3 0
BITMAP
000800
000800
001000
001000
002000
002000
000000
000000
000000
1800C0
200020
400010
400010
800008
800008
802008
802008
802004
802004
802004
802004
802004
802004
802008
806008
805008
805008
408810
3F07E0
ENDCHAR
STARTCHAR 0400
ENCODING 1024
SWIDTH 540 0
DWIDTH 21 0
BBX 15 36 4 0
BITMAP
0800
0400
0200
0200
0100
0080
0000
0000
0000
FFFE
8000
8000
8000
8000
8000
8000
8000
8000
8000
8000
8000
8000
FFFE
8000
8000
8000
8000
8000
8000
8000
8000
8000
8000
8000
8000
FFFE
ENDCHAR
STARTCHAR 0401
ENCODING 1025
SWIDTH 540 0
DWIDTH 21 0
BBX 15 34 4 0
BITMAP
1830
1830
0000
0000
0000
0000
0000
FFFE
8000
8000
8000
8000
8000
8000
8000
8000
8000
8000
8000
8000
FFFE
8000
8000
8000
8000
8000
8000
8000
8000
8000
8000
8000
8000
FFFE
ENDCHAR
STARTCHAR 0402
ENCODING 1026
SWIDTH 771 0
DWIDTH 30 0
BBX 26 33 1 -6
BITMAP
FFFFF000
00400000
00400000
00400000
00400000
00400000
00400000
00400000
00400000
00400000
00400000
005FFC00
00600300
00400080
00400080
00400040
00400040
00400040
00400040
00400040
00400040
00400040
00400040
00400040
00400040
00400040
00400040
00000040
00000040
00000040
00000040
00000080
00000F00
ENDCHAR
STARTCHAR 0403
ENCODING 1027
SWIDTH 488 0
DWIDTH 19 0
BBX 14 36 4 0
BITMAP
0020
0040
0080
0100
0100
0200
0000
0000
0000
FFFC
8000
8000
8000
8000
8000
8000
8000
8000
8000
8000
8000
8000
8000
8000
8000
8000
8000
8000
8000
8000
8000
8000
8000
8000
8000
8000
ENDCHAR
STARTCHAR 0404
ENCODING 1028
SWIDTH 591 0
DWIDTH 23 0
BBX 18 28 3 0
BITMAP
006000
071C00
080300
100080
200080
400040
400000
800000
800000
800000
800000
800000
800000
800000
FFFC00
800000
800000
800000
800000
800000
800000
800000
400000
400040
200080
100080
080300
07FC00
ENDCHAR
STARTCHAR 0405
ENCODING 1029
SWIDTH 540 0
DWIDTH 21 0
BBX 17 28 2 0
BITMAP
00C000
1E3C00
200200
400100
400000
800000
800000
800000
800000
800000
400000
200000
100000
0F0000
00F000
000C00
000200
000100
000080
000080
000080
000080
000080
000080
800100
400100
300200
0FFC00
ENDCHAR
STARTCHAR 0406
ENCODING 1030
SWIDTH 360 0
DWIDTH 14 0
BBX 9 27 3 0
BITMAP
FF80
0800
0800
0800
0800
0800
0800
0800
0800
0800
0800
0800
0800
0800
0800
0800
0800
0800
0800
0800
0800
0800
0800
0800
0800
0800
FF80
ENDCHAR
STARTCHAR 0407
ENCODING 1031
SWIDTH 360 0
DWIDTH 14 0
BBX 9 34 3 0
BITMAP
8100
C180
0000
0000
0000
0000
0000
FF80
0800
0800
0800
0800
0800
0800
0800
0800
0800
0800
0800
0800
0800
0800
0800
0800
0800
0800
0800
0800
0800
0800
0800
0800
0800
FF80
ENDCHAR
STARTCHAR 0408
ENCODING 1032
SWIDTH 462 0
DWIDTH 18 0
BBX 13 27 1 0
BITMAP
1FF8
0008
0008
0008
0008
0008
0008
0008
0008
0008
0008
0008
0008
0008
0008
0008
0008
0008
0008
0008
0008
0008
8008
8008
4010
6020
1FC0
ENDCHAR
STARTCHAR 0409
ENCODING 1033
SWIDTH 977 0
DWIDTH 38 0
BBX 36 27 0 0
BITMAP
01FFF00000
0100100000
0100100000
0100100000
0100100000
0100100000
0100100000
0100100000
0100100000
0100100000
0100100000
0100100000
01001FFF80
0100100040
0100100020
0200100020
0200100020
0200100010
0200100010
0200100010
0200100010
0400100020
0400100020
0400100020
0800100040
1000100080
E0001FFF00
ENDCHAR
STARTCHAR 040A
ENCODING 1034
SWIDTH 1028 0
DWIDTH 40 0
BBX 34 27 4 0
BITMAP
8000400000
8000400000
8000400000
8000400000
8000400000
8000400000
8000400000
8000400000
8000400000
8000400000
8000400000
8000400000
FFFFFFF000
8000400600
8000400100
8000400080
8000400080
8000400040
8000400040
8000400040
8000400040
8000400040
8000400080
8000400080
8000400180
8000400300
80007FFC00
ENDCHAR
STARTCHAR 040B
ENCODING 1035
SWIDTH 771 0
DWIDTH 30 0
BBX 27 27 1 0
BITMAP
FFFFF000
00400000
00400000
00400000
00400000
00400000
00400000
00400000
00400000
00400000
00400000
005FFE00
00600100
00400080
00400040
00400040
00400040
00400020
00400020
00400020
00400020
00400020
00400020
00400020
00400020
00400020
00400020
ENDCHAR
STARTCHAR 040C
ENCODING 1036
SWIDTH 591 0
DWIDTH 23 0
BBX 18 36 4 0
BITMAP
003000
002000
004000
008000
010000
010000
000000
000000
000000
8001C0
800200
800400
800400
800800
800800
801000
802000
802000
804000
804000
808000
810000
FF0000
808000
808000
804000
802000
802000
801000
801000
800800
800400
800400
800200
800100
8001C0
ENDCHAR
STARTCHAR 040D
ENCODING 1037
SWIDTH 668 0
DWIDTH 26 0
BBX 19 36 4 0
BITMAP
020000
030000
010000
008000
004000
004000
000000
000000
000000
800020
800060
8000A0
8000A0
800120
800220
800220
800420
800820
800820
801020
802020
802020
804020
808020
808020
810020
820020
820020
840020
880020
880020
900020
A00020
A00020
C00020
800020
ENDCHAR
STARTCHAR 040E
ENCODING 1038
SWIDTH 565 0
DWIDTH 22 0
BBX 20 35 1 0
BITMAP
020200
020200
010400
00C800
003000
000000
000000
000000
800010
400020
400020
200020
200040
100040
100080
080080
080080
040100
040100
020200
020200
010200
010400
008400
008800
004800
004800
003000
003000
002000
002000
002000
004000
004000
078000
ENDCHAR
STARTCHAR 040F
ENCODING 1039
SWIDTH 668 0
DWIDTH 26 0
BBX 18 33 4 -6
BITMAP
800040
800040
800040
800040
800040
800040
800040
800040
800040
800040
800040
800040
800040
800040
800040
800040
800040
800040
800040
800040
800040
800040
800040
800040
800040
800040
FFFFC0
004000
004000
004000
004000
004000
004000
ENDCHAR
STARTCHAR 0410
ENCODING 1040
SWIDTH 591 0
DWIDTH 23 0
BBX 21 27 1 0
BITMAP
002000
005000
005000
004800
008800
008800
008400
010400
010400
020200
020200
020200
040100
040100
040080
080080
080080
0FFFC0
100040
100040
100020
200020
200020
400010
400010
400008
800008
ENDCHAR
STARTCHAR 0411
ENCODING 1041
SWIDTH 591 0
DWIDTH 23 0
BBX 17 27 4 0
BITMAP
FFFE00
800000
800000
800000
800000
800000
800000
800000
800000
800000
800000
800000
FFFC00
800200
800100
800100
800080
800080
800080
800080
800080
800080
800080
800100
800300
800600
FFF800
ENDCHAR
STARTCHAR 0412
ENCODING 1042
SWIDTH 591 0
DWIDTH 23 0
BBX 17 27 4 0
BITMAP
FFF800
800600
800200
800100
800100
800100
800100
800100
800100
800100
800200
800400
FFF800
800600
800100
800100
800080
800080
800080
800080
800080
800080
800080
800080
800100
800200
FFFC00
ENDCHAR
STARTCHAR 0413
ENCODING 1043
SWIDTH 488 0
DWIDTH 19 0
BBX 14 27 4 0
BITMAP
FFFC
8000
8000
8000
8000
8000
8000
8000
8000
8000
8000
8000
8000
8000
8000
8000
8000
8000
8000
8000
8000
8000
8000
8000
8000
8000
8000
ENDCHAR
STARTCHAR 0414
ENCODING 1044
SWIDTH 642 0
DWIDTH 25 0
BBX 24 33 0 -6
BITMAP
01FFF8
010008
010008
010008
010008
010008
010008
010008
010008
010008
010008
010008
010008
010008
020008
020008
020008
020008
020008
020008
040008
040008
040008
080008
080008
080008
FFFFFF
800001
800001
800001
800001
800001
800001
ENDCHAR
STARTCHAR 0415
ENCODING 1045
SWIDTH 540 0
DWIDTH 21 0
BBX 15 27 4 0
BITMAP
FFFE
8000
8000
8000
8000
8000
8000
8000
8000
8000
8000
8000
8000
FFFE
8000
8000
8000
8000
8000
8000
8000
8000
8000
8000
8000
8000
FFFE
ENDCHAR
STARTCHAR 0416
ENCODING 1046
SWIDTH 900 0
DWIDTH 35 0
BBX 31 27 2 0
BITMAP
E001000E
10010010
10010010
08010020
08010020
04010040
02010040
02010080
01010080
01010100
00810200
00810200
00410400
007FFC00
00810200
00810200
01010100
01010100
02010080
02010080
04010040
04010020
08010020
10010010
10010010
20010008
E001000E
ENDCHAR
STARTCHAR 0417
ENCODING 1047
SWIDTH 565 0
DWIDTH 22 0
BBX 18 28 2 0
BITMAP
01C000
0E1C00
100200
200100
400080
000080
000080
000080
000080
000080
000080
000100
000200
000C00
07F800
000600
000100
000080
000080
000040
000040
000040
000040
000080
800080
400100
300200
0FFC00
ENDCHAR
STARTCHAR 0418
ENCODING 1048
SWIDTH 668 0
DWIDTH 26 0
BBX 19 27 4 0
BITMAP
800020
800060
8000A0
8000A0
800120
800220
800220
800420
800820
800820
801020
802020
802020
804020
808020
808020
810020
820020
820020
840020
880020
880020
900020
A00020
A00020
C00020
800020
ENDCHAR
STARTCHAR 0419
ENCODING 1049
SWIDTH 668 0
DWIDTH 26 0
BBX 19 35 4 0
BITMAP
080400
040400
020800
013000
00C000
000000
000000
000000
800020
800060
8000A0
8000A0
800120
800220
800220
800420
800820
800820
801020
802020
802020
804020
808020
808020
810020
820020
820020
840020
880020
880020
900020
A00020
A00020
C00020
800020
ENDCHAR
STARTCHAR 041A
ENCODING 1050
SWIDTH 591 0
DWIDTH 23 0
BBX 18 27 4 0
BITMAP
8001C0
800200
800400
800400
800800
800800
801000
802000
802000
804000
804000
808000
810000
FF0000
808000
808000
804000
802000
802000
801000
801000
800800
800400
800400
800200
800100
8001C0
ENDCHAR
STARTCHAR 041B
ENCODING 1051
SWIDTH 617 0
DWIDTH 24 0
BBX 21 27 0 0
BITMAP
01FFF8
010008
010008
010008
010008
010008
010008
010008
010008
010008
010008
010008
010008
010008
010008
020008
020008
020008
020008
020008
020008
040008
040008
040008
080008
100008
E00008
ENDCHAR
STARTCHAR 041C
ENCODING 1052
SWIDTH 771 0
DWIDTH 30 0
BBX 23 27 4 0
BITMAP
C00006
C0000A
A0000A
900012
900012
880022
840042
840042
820082
820082
810102
808202
808202
804402
804402
802802
801002
801002
800002
800002
800002
800002
800002
800002
800002
800002
800002
ENDCHAR
STARTCHAR 041D
ENCODING 1053
SWIDTH 668 0
DWIDTH 26 0
BBX 19 27 4 0
BITMAP
800020
800020
800020
800020
800020
800020
800020
800020
800020
800020
800020
800020
800020
FFFFE0
800020
800020
800020
800020
800020
800020
800020
800020
800020
800020
800020
800020
800020
ENDCHAR
STARTCHAR 041E
ENCODING 1054
SWIDTH 668 0
DWIDTH 26 0
BBX 21 28 3 0
BITMAP
006000
078E00
080180
1000C0
200040
400020
400020
800010
800010
800010
800010
800008
800008
800008
800008
800008
800008
800008
800010
800010
800010
400010
400020
400020
200040
1000C0
080180
07FE00
ENDCHAR
STARTCHAR 041F
ENCODING 1055
SWIDTH 668 0
DWIDTH 26 0
BBX 18 27 4 0
BITMAP
FFFFC0
800040
800040
800040
800040
800040
800040
800040
800040
800040
800040
800040
800040
800040
800040
800040
800040
800040
800040
800040
800040
800040
800040
800040
800040
800040
800040
ENDCHAR
STARTCHAR 0420
ENCODING 1056
SWIDTH 591 0
DWIDTH 23 0
BBX 17 27 4 0
BITMAP
FFFC00
800200
800100
800080
800080
800080
800080
800080
800080
800080
800080
800100
800300
800C00
FFF000
800000
800000
800000
800000
800000
800000
800000
800000
800000
800000
800000
800000
ENDCHAR
STARTCHAR 0421
ENCODING 1057
SWIDTH 591 0
DWIDTH 23 0
BBX 18 28 3 0
BITMAP
006000
071C00
080300
100080
200080
400040
400000
800000
800000
800000
800000
800000
800000
800000
800000
800000
800000
800000
800000
800000
800000
800000
400000
400040
200080
100080
080300
07FC00
ENDCHAR
STARTCHAR 0422
ENCODING 1058
SWIDTH 540 0
DWIDTH 21 0
BBX 20 27 1 0
BITMAP
FFFFF0
004000
004000
004000
004000
004000
004000
004000
004000
004000
004000
004000
004000
004000
004000
004000
004000
004000
004000
004000
004000
004000
004000
004000
004000
004000
004000
ENDCHAR
STARTCHAR 0423
ENCODING 1059
SWIDTH 565 0
DWIDTH 22 0
BBX 20 27 1 0
BITMAP
800010
400020
400020
200020
200040
100040
100080
080080
080080
040100
040100
020200
020200
010200
010400
008400
008800
004800
004800
003000
003000
002000
002000
002000
004000
004000
078000
ENDCHAR
STARTCHAR 0424
ENCODING 1060
SWIDTH 797 0
DWIDTH 31 0
BBX 27 29 2 -1
BITMAP
00040000
00040000
00040000
007FE000
03841C00
0C040200
10040100
20040080
20040040
40040040
40040020
80040020
80040020
80040020
80040020
80040020
80040020
80040020
40040020
40040040
20040040
30040080
18040100
0C040200
03041C00
00BFE000
00040000
00040000
00040000
ENDCHAR
STARTCHAR 0425
ENCODING 1061
SWIDTH 540 0
DWIDTH 21 0
BBX 19 27 1 0
BITMAP
400020
200040
2000C0
100080
080100
080300
040200
020400
020C00
010800
009000
00A000
006000
006000
00A000
009000
010800
020800
020400
040200
080200
080100
100080
200080
200040
400020
800020
ENDCHAR
STARTCHAR 0426
ENCODING 1062
SWIDTH 694 0
DWIDTH 27 0
BBX 22 33 4 -6
BITMAP
800040
800040
800040
800040
800040
800040
800040
800040
800040
800040
800040
800040
800040
800040
800040
800040
800040
800040
800040
800040
800040
800040
800040
800040
800040
800040
FFFFFC
000004
000004
000004
000004
000004
000004
ENDCHAR
STARTCHAR 0427
ENCODING 1063
SWIDTH 617 0
DWIDTH 24 0
BBX 17 27 3 0
BITMAP
800080
800080
800080
800080
800080
800080
800080
800080
800080
800080
800080
800080
400080
600080
300080
0FFF80
000080
000080
000080
000080
000080
000080
000080
000080
000080
000080
000080
ENDCHAR
STARTCHAR 0428
ENCODING 1064
SWIDTH 900 0
DWIDTH 35 0
BBX 27 27 4 0
BITMAP
80040020
80040020
80040020
80040020
80040020
80040020
80040020
80040020
80040020
80040020
80040020
80040020
80040020
80040020
80040020
80040020
80040020
80040020
80040020
80040020
80040020
80040020
80040020
80040020
80040020
80040020
FFFFFFE0
ENDCHAR
STARTCHAR 0429
ENCODING 1065
SWIDTH 925 0
DWIDTH 36 0
BBX 30 32 4 -6
BITMAP
80040020
80040020
80040020
80040020
80040020
80040020
80040020
80040020
80040020
80040020
80040020
80040020
80040020
80040020
80040020
80040020
80040020
80040020
80040020
80040020
80040020
80040020
80040020
80040020
80040020
80040020
FFFFFFFC
00000004
00000004
00000004
00000004
00000004
ENDCHAR
STARTCHAR 042A
ENCODING 1066
SWIDTH 720 0
DWIDTH 28 0
BBX 25 27 1 0
BITMAP
FF800000
00800000
00800000
00800000
00800000
00800000
00800000
00800000
00800000
00800000
00800000
00800000
00FFFC00
00800200
00800100
00800100
00800080
00800080
00800080
00800080
00800080
00800080
00800100
00800100
00800300
00800600
00FFF800
ENDCHAR
STARTCHAR 042B
ENCODING 1067
SWIDTH 797 0
DWIDTH 31 0
BBX 24 27 4 0
BITMAP
800001
800001
800001
800001
800001
800001
800001
800001
800001
800001
800001
800001
FFFC01
800201
800101
800101
800081
800081
800081
800081
800081
800081
800081
800101
800301
800601
FFF801
ENDCHAR
STARTCHAR 042C
ENCODING 1068
SWIDTH 591 0
DWIDTH 23 0
BBX 17 27 4 0
BITMAP
800000
800000
800000
800000
800000
800000
800000
800000
800000
800000
800000
800000
FFFC00
800300
800100
800080
800080
800080
800080
800080
800080
800080
800080
800080
800100
800200
FFFC00
ENDCHAR
STARTCHAR 042D
ENCODING 1069
SWIDTH 591 0
DWIDTH 23 0
BBX 19 28 2 0
BITMAP
01C000
0E1C00
100200
200100
400080
400080
000040
000040
000040
000020
000020
000020
000020
000020
07FFE0
000020
000020
000020
000020
000020
000040
000040
800040
400080
400080
200100
100200
0FFC00
ENDCHAR
STARTCHAR 042E
ENCODING 1070
SWIDTH 900 0
DWIDTH 35 0
BBX 28 28 4 0
BITMAP
0000E000
80070E00
80080100
80100080
80200040
80400020
80400020
80400010
80800010
80800010
80800010
80800010
80800010
80800010
FF800010
80800010
80800010
80800010
80800010
80800010
80800010
80400010
80400020
80400020
80200040
80100080
80080100
8007FE00
ENDCHAR
STARTCHAR 042F
ENCODING 1071
SWIDTH 617 0
DWIDTH 24 0
BBX 19 27 1 0
BITMAP
03FFE0
0C0020
100020
100020
200020
200020
200020
200020
200020
200020
100020
100020
080020
070020
00FFE0
008020
008020
010020
010020
020020
020020
040020
040020
080020
080020
100020
E00020
ENDCHAR
STARTCHAR 0430
ENCODING 1072
SWIDTH 514 0
DWIDTH 20 0
BBX 17 20 2 0
BITMAP
0FE000
101000
200800
400400
000400
000400
000400
000400
000400
03FC00
180400
600400
400400
800400
800400
800400
800400
400C00
601400
1FE780
ENDCHAR
STARTCHAR 0431
ENCODING 1073
SWIDTH 540 0
DWIDTH 21 0
BBX 17 29 2 0
BITMAP
003E00
03C000
0C0000
100000
100000
200000
200000
400000
400000
41E000
4E1800
500400
600200
E00100
400100
400100
800080
800080
800080
800080
800080
800080
400080
400100
400100
200100
200200
100400
0FF800
ENDCHAR
STARTCHAR 0432
ENCODING 1074
SWIDTH 540 0
DWIDTH 21 0
BBX 14 20 4 0
BITMAP
FFC0
8030
8008
8008
8008
8008
8008
8008
8010
8060
FFB0
8008
8004
8004
8004
8004
8004
8004
8008
FFF0
ENDCHAR
STARTCHAR 0433
ENCODING 1075
SWIDTH 437 0
DWIDTH 17 0
BBX 12 20 4 0
BITMAP
FFF0
8000
8000
8000
8000
8000
8000
8000
8000
8000
8000
8000
8000
8000
8000
8000
8000
8000
8000
8000
ENDCHAR
STARTCHAR 0434
ENCODING 1076
SWIDTH 540 0
DWIDTH 21 0
BBX 20 25 0 -5
BITMAP
07FF80
040080
040080
040080
040080
040080
040080
040080
040080
040080
040080
040080
040080
080080
080080
080080
100080
100080
100080
FFFFF0
800010
800010
800010
800010
800010
ENDCHAR
STARTCHAR 0435
ENCODING 1077
SWIDTH 514 0
DWIDTH 20 0
BBX 16 20 2 0
BITMAP
07F0
1808
2004
2002
4002
4001
8001
8001
8001
FFFF
8000
8000
8000
8000
4000
4001
6002
2002
1004
0FF8
ENDCHAR
STARTCHAR 0436
ENCODING 1078
SWIDTH 720 0
DWIDTH 28 0
BBX 25 20 2 0
BITMAP
C0080380
20080400
10080400
10080800
08080800
08081000
04081000
02082000
02084000
01FF8000
02084000
02082000
04082000
04081000
08081000
08080800
10080800
10080400
20080400
E0080380
ENDCHAR
STARTCHAR 0437
ENCODING 1079
SWIDTH 488 0
DWIDTH 19 0
BBX 14 20 2 0
BITMAP
0FE0
3010
4008
8008
0004
0004
0008
0008
0010
0FC0
0030
0008
0004
0004
0004
0004
8004
4008
6008
1FF0
ENDCHAR
STARTCHAR 0438
ENCODING 1080
SWIDTH 565 0
DWIDTH 22 0
BBX 14 20 4 0
BITMAP
8004
8004
800C
8014
8014
8024
8044
8044
8084
8104
8204
8204
8404
8804
8804
9004
A004
A004
C004
8004
ENDCHAR
STARTCHAR 0439
ENCODING 1081
SWIDTH 565 0
DWIDTH 22 0
BBX 14 28 4 0
BITMAP
2010
1020
1020
0CC0
0300
0000
0000
0000
8004
8004
800C
8014
8014
8024
8044
8044
8084
8104
8204
8204
8404
8804
8804
9004
A004
A004
C004
8004
ENDCHAR
STARTCHAR 043A
ENCODING 1082
SWIDTH 514 0
DWIDTH 20 0
BBX 15 20 4 0
BITMAP
800C
8010
8020
8040
8040
8080
8100
8100
8200
FC00
8200
8100
8100
8080
8080
8040
8020
8020
8010
800E
ENDCHAR
STARTCHAR 043B
ENCODING 1083
SWIDTH 514 0
DWIDTH 20 0
BBX 17 20 0 0
BITMAP
03FF80
020080
020080
020080
020080
020080
020080
020080
040080
040080
040080
040080
040080
040080
040080
080080
080080
080080
100080
E00080
ENDCHAR
STARTCHAR 043C
ENCODING 1084
SWIDTH 668 0
DWIDTH 26 0
BBX 18 20 4 0
BITMAP
C00040
C000C0
A000C0
A00140
900240
880240
880440
840440
840840
821040
811040
812040
80A040
804040
800040
800040
800040
800040
800040
800040
ENDCHAR
STARTCHAR 043D
ENCODING 1085
SWIDTH 565 0
DWIDTH 22 0
BBX 14 20 4 0
BITMAP
8004
8004
8004
8004
8004
8004
8004
8004
8004
FFFC
8004
8004
8004
8004
8004
8004
8004
8004
8004
8004
ENDCHAR
STARTCHAR 043E
ENCODING 1086
SWIDTH 540 0
DWIDTH 21 0
BBX 17 20 2 0
BITMAP
07F000
180C00
200200
200200
400100
400100
800100
800100
800080
800080
800080
800080
800080
800100
400100
400100
400200
200200
100400
0FF800
ENDCHAR
STARTCHAR 043F
ENCODING 1087
SWIDTH 565 0
DWIDTH 22 0
BBX 14 20 4 0
BITMAP
FFFC
8004
8004
8004
8004
8004
8004
8004
8004
8004
8004
8004
8004
8004
8004
8004
8004
8004
8004
8004
ENDCHAR
STARTCHAR 0440
ENCODING 1088
SWIDTH 540 0
DWIDTH 21 0
BBX 16 28 4 -8
BITMAP
8FE0
B018
C00C
C004
8002
8002
8002
8002
8001
8001
8001
8001
8001
8002
8002
8002
8004
C004
A008
9C60
8380
8000
8000
8000
8000
8000
8000
8000
ENDCHAR
STARTCHAR 0441
ENCODING 1089
SWIDTH 462 0
DWIDTH 18 0
BBX 15 20 2 0
BITMAP
07F0
1808
2004
2002
4000
4000
8000
8000
8000
8000
8000
8000
8000
8000
4000
4000
4000
2002
1004
0FF8
ENDCHAR
STARTCHAR 0442
ENCODING 1090
SWIDTH 462 0
DWIDTH 18 0
BBX 16 20 1 0
BITMAP
FFFF
0080
0080
0080
0080
0080
0080
0080
0080
0080
0080
0080
0080
0080
0080
0080
0080
0080
0080
0080
ENDCHAR
STARTCHAR 0443
ENCODING 1091
SWIDTH 437 0
DWIDTH 17 0
BBX 16 28 1 -8
BITMAP
8001
8002
4002
4004
4004
2004
2008
2008
1008
1010
0810
0820
0820
0420
0440
0440
0240
0280
0180
0180
0100
0100
0200
0200
0200
0400
0400
7800
ENDCHAR
STARTCHAR 0444
ENCODING 1092
SWIDTH 720 0
DWIDTH 28 0
BBX 24 36 2 -8
BITMAP
000800
000800
000800
000800
000800
000800
000800
000800
0F89F0
106A0C
202C04
401802
400802
400802
400801
800801
800801
800801
800801
800801
800801
400801
400802
400802
401802
201804
202C04
18CB18
0708E0
000800
000800
000800
000800
000800
000800
000800
ENDCHAR
STARTCHAR 0445
ENCODING 1093
SWIDTH 462 0
DWIDTH 18 0
BBX 15 20 2 0
BITMAP
8002
8004
4008
2010
3010
1020
0840
0440
0480
0300
0300
0280
0480
0840
1020
1010
2010
4008
8004
8002
ENDCHAR
STARTCHAR 0446
ENCODING 1094
SWIDTH 565 0
DWIDTH 22 0
BBX 17 25 4 -5
BITMAP
800400
800400
800400
800400
800400
800400
800400
800400
800400
800400
800400
800400
800400
800400
800400
800400
800400
800400
800400
FFFF80
000080
000080
000080
000080
000080
ENDCHAR
STARTCHAR 0447
ENCODING 1095
SWIDTH 514 0
DWIDTH 20 0
BBX 14 20 2 0
BITMAP
8004
8004
8004
8004
8004
8004
8004
8004
8004
400C
2014
1CE4
0304
0004
0004
0004
0004
0004
0004
0004
ENDCHAR
STARTCHAR 0448
ENCODING 1096
SWIDTH 771 0
DWIDTH 30 0
BBX 22 20 4 0
BITMAP
801004
801004
801004
801004
801004
801004
801004
801004
801004
801004
801004
801004
801004
801004
801004
801004
801004
801004
801004
FFFFFC
ENDCHAR
STARTCHAR 0449
ENCODING 1097
SWIDTH 771 0
DWIDTH 30 0
BBX 25 25 4 -5
BITMAP
80100400
80100400
80100400
80100400
80100400
80100400
80100400
80100400
80100400
80100400
80100400
80100400
80100400
80100400
80100400
80100400
80100400
80100400
80100400
FFFFFF80
00000080
00000080
00000080
00000080
00000080
ENDCHAR
STARTCHAR 044A
ENCODING 1098
SWIDTH 565 0
DWIDTH 22 0
BBX 20 20 1 0
BITMAP
FE0000
020000
020000
020000
020000
020000
020000
020000
020000
03FF80
020040
020020
020020
020010
020010
020010
020020
020020
020040
03FF00
ENDCHAR
STARTCHAR 044B
ENCODING 1099
SWIDTH 668 0
DWIDTH 26 0
BBX 18 20 4 0
BITMAP
800040
800040
800040
800040
800040
800040
800040
800040
800040
FFC040
803040
801040
800840
800840
800840
800840
800840
801040
802040
FFC040
ENDCHAR
STARTCHAR 044C
ENCODING 1100
SWIDTH 488 0
DWIDTH 19 0
BBX 14 20 4 0
BITMAP
8000
8000
8000
8000
8000
8000
8000
8000
8000
FFE0
8010
8008
8008
8008
8004
8008
8008
8008
8010
FFE0
ENDCHAR
STARTCHAR 044D
ENCODING 1101
SWIDTH 488 0
DWIDTH 19 0
BBX 15 20 2 0
BITMAP
0FC0
3030
4008
8004
0004
0004
0002
0002
0002
0002
0FFE
0002
0002
0002
0006
0004
8004
4008
6010
1FE0
ENDCHAR
STARTCHAR 044E
ENCODING 1102
SWIDTH 720 0
DWIDTH 28 0
BBX 22 20 4 0
BITMAP
801FC0
806020
808010
808008
810008
810004
820004
820004
820004
FE0004
820004
820004
820004
820004
810004
810008
810008
808010
804030
803FC0
ENDCHAR
STARTCHAR 044F
ENCODING 1103
SWIDTH 514 0
DWIDTH 20 0
BBX 15 20 1 0
BITMAP
03FE
0C02
1002
2002
2002
2002
2002
2002
2002
1002
0802
07FE
0202
0202
0402
0402
0802
0802
1002
E002
ENDCHAR
STARTCHAR 0450
ENCODING 1104
SWIDTH 514 0
DWIDTH 20 0
BBX 16 29 2 0
BITMAP
0400
0200
0200
0100
0080
00C0
0000
0000
0000
07F0
1808
2004
2002
4002
4001
8001
8001
8001
FFFF
8000
8000
8000
8000
4000
4001
6002
2002
1004
0FF8
ENDCHAR
STARTCHAR 0451
ENCODING 1105
SWIDTH 514 0
DWIDTH 20 0
BBX 16 27 2 0
BITMAP
0C18
0C18
0000
0000
0000
0000
0000
07F0
1808
2004
2002
4002
4001
8001
8001
8001
FFFF
8000
8000
8000
8000
4000
4001
6002
2002
1004
0FF8
ENDCHAR
STARTCHAR 0452
ENCODING 1106
SWIDTH 540 0
DWIDTH 21 0
BBX 16 37 2 -8
BITMAP
2000
2000
2000
2000
FF80
2000
2000
2000
2000
23F8
2804
3002
3002
2001
2001
2001
2001
2001
2001
2001
2001
2001
2001
2001
2001
2001
2001
2001
2001
0001
0001
0001
0001
0001
0001
0001
000F
ENDCHAR
STARTCHAR 0453
ENCODING 1107
SWIDTH 437 0
DWIDTH 17 0
BBX 12 29 4 0
BITMAP
00C0
0080
0100
0200
0200
0400
0000
0000
0000
FFF0
8000
8000
8000
8000
8000
8000
8000
8000
8000
8000
8000
8000
8000
8000
8000
8000
8000
8000
8000
ENDCHAR
STARTCHAR 0454
ENCODING 1108
SWIDTH 488 0
DWIDTH 19 0
BBX 15 20 2 0
BITMAP
07F0
1808
2004
2002
4000
4000
8000
8000
8000
8000
FFE0
8000
8000
8000
4000
4000
4000
2002
1004
0FF8
ENDCHAR
STARTCHAR 0455
ENCODING 1109
SWIDTH 437 0
DWIDTH 17 0
BBX 14 20 2 0
BITMAP
1FC0
2030
4008
4000
8000
8000
4000
4000
2000
1E00
01E0
0010
0008
0008
0004
0004
8004
C008
6018
1FE0
ENDCHAR
STARTCHAR 0456
ENCODING 1110
SWIDTH 205 0
DWIDTH 8 0
BBX 1 28 4 0
BITMAP
80
80
00
00
00
00
00
00
80
80
80
80
80
80
80
80
80
80
80
80
80
80
80
80
80
80
80
80
ENDCHAR
STARTCHAR 0457
ENCODING 1111
SWIDTH 205 0
DWIDTH 8 0
BBX 9 27 0 0
BITMAP
C180
C180
0000
0000
0000
0000
0000
0800
0800
0800
0800
0800
0800
0800
0800
0800
0800
0800
0800
0800
0800
0800
0800
0800
0800
0800
0800
ENDCHAR
STARTCHAR 0458
ENCODING 1112
SWIDTH 205 0
DWIDTH 8 0
BBX 4 36 1 -8
BITMAP
10
10
00
00
00
00
00
00
10
10
10
10
10
10
10
10
10
10
10
10
10
10
10
10
10
10
10
10
10
10
10
10
10
10
10
F0
ENDCHAR
STARTCHAR 0459
ENCODING 1113
SWIDTH 745 0
DWIDTH 29 0
BBX 28 20 0 0
BITMAP
03FF0000
02010000
02010000
02010000
02010000
02010000
02010000
02010000
04010000
0401FF80
04010040
04010020
04010020
04010020
04010010
08010020
08010020
08010020
10010040
E001FF80
ENDCHAR
STARTCHAR 045A
ENCODING 1114
SWIDTH 797 0
DWIDTH 31 0
BBX 25 20 4 0
BITMAP
80080000
80080000
80080000
80080000
80080000
80080000
80080000
80080000
80080000
FFFFFC00
80080300
80080100
80080080
80080080
80080080
80080080
80080080
80080100
80080300
800FFC00
ENDCHAR
STARTCHAR 045B
ENCODING 1115
SWIDTH 540 0
DWIDTH 21 0
BBX 16 29 2 0
BITMAP
2000
2000
2000
2000
FF80
2000
2000
2000
2000
23F8
2804
3002
3002
2001
2001
2001
2001
2001
2001
2001
2001
2001
2001
2001
2001
2001
2001
2001
2001
ENDCHAR
STARTCHAR 045C
ENCODING 1116
SWIDTH 514 0
DWIDTH 20 0
BBX 15 29 4 0
BITMAP
0040
0080
0080
0100
0200
0400
0000
0000
0000
800C
8010
8020
8040
8040
8080
8100
8100
8200
FC00
8200
8100
8100
8080
8080
8040
8020
8020
8010
800E
ENDCHAR
STARTCHAR 045D
ENCODING 1117
SWIDTH 565 0
DWIDTH 22 0
BBX 14 29 4 0
BITMAP
0800
0800
0400
0200
0200
0100
0000
0000
0000
8004
8004
800C
8014
8014
8024
8044
8044
8084
8104
8204
8204
8404
8804
8804
9004
A004
A004
C004
8004
ENDCHAR
STARTCHAR 045E
ENCODING 1118
SWIDTH 437 0
DWIDTH 17 0
BBX 16 36 1 -8
BITMAP
1008
0810
0810
0660
0180
0000
0000
0000
8001
8002
4002
4004
4004
2004
2008
2008
1008
1010
0810
0820
0820
0420
0440
0440
0240
0280
0180
0180
0100
0100
0200
0200
0200
0400
0400
7800
ENDCHAR
STARTCHAR 045F
ENCODING 1119
SWIDTH 565 0
DWIDTH 22 0
BBX 14 25 4 -5
BITMAP
8004
8004
8004
8004
8004
8004
8004
8004
8004
8004
8004
8004
8004
8004
8004
8004
8004
8004
8004
FFFC
0200
0200
0200
0200
0200
ENDCHAR
STARTCHAR 0472
ENCODING 1138
SWIDTH 668 0
DWIDTH 26 0
BBX 21 28 3 0
BITMAP
006000
078E00
080180
1000C0
200040
400020
400020
800010
800010
800010
800010
800008
800008
800008
FFFFF8
800008
800008
800008
800010
800010
800010
400010
400020
400020
200040
1000C0
080180
07FE00
ENDCHAR
STARTCHAR 0473
ENCODING 1139
SWIDTH 540 0
DWIDTH 21 0
BBX 17 20 2 0
BITMAP
07F000
180C00
200200
200200
400100
400100
800100
800100
800080
800080
FFFF80
800080
800080
800100
400100
400100
400200
200200
100400
0FF800
ENDCHAR
STARTCHAR 0490
ENCODING 1168
SWIDTH 488 0
DWIDTH 19 0
BBX 14 33 4 0
BITMAP
0004
0004
0004
0004
0004
0004
FFFC
8000
8000
8000
8000
8000
8000
8000
8000
8000
8000
8000
8000
8000
8000
8000
8000
8000
8000
8000
8000
8000
8000
8000
8000
8000
8000
ENDCHAR
STARTCHAR 0491
ENCODING 1169
SWIDTH 437 0
DWIDTH 17 0
BBX 12 25 4 0
BITMAP
0010
0010
0010
0010
0010
FFF0
8000
8000
8000
8000
8000
8000
8000
8000
8000
8000
8000
8000
8000
8000
8000
8000
8000
8000
8000
ENDCHAR
STARTCHAR 0492
ENCODING 1170
SWIDTH 514 0
DWIDTH 20 0
BBX 18 27 1 0
BITMAP
0FFFC0
080000
080000
080000
080000
080000
080000
080000
080000
080000
080000
080000
FFF800
080000
080000
080000
080000
080000
080000
080000
080000
080000
080000
080000
080000
080000
080000
ENDCHAR
STARTCHAR 0493
ENCODING 1171
SWIDTH 437 0
DWIDTH 17 0
BBX 15 20 1 0
BITMAP
1FFE
1000
1000
1000
1000
1000
1000
1000
1000
FFE0
1000
1000
1000
1000
1000
1000
1000
1000
1000
1000
ENDCHAR
STARTCHAR 0494
ENCODING 1172
SWIDTH 591 0
DWIDTH 23 0
BBX 17 33 4 -6
BITMAP
FFF800
800000
800000
800000
800000
800000
800000
800000
800000
800000
800000
800000
9FF000
E00C00
800200
800100
800100
800080
800080
800080
800080
800080
800080
800080
800080
800080
800080
000080
000080
000080
000100
000100
003E00
ENDCHAR
STARTCHAR 0495
ENCODING 1173
SWIDTH 514 0
DWIDTH 20 0
BBX 14 28 4 -8
BITMAP
FFF0
8000
8000
8000
8000
8000
8000
8000
8000
8780
9830
E008
C008
8004
8004
8004
8004
8004
8004
8004
0004
0004
0004
0004
0004
0008
0008
00F0
ENDCHAR
STARTCHAR 0496
ENCODING 1174
SWIDTH 900 0
DWIDTH 35 0
BBX 32 33 2 -6
BITMAP
E001000E
10010010
10010010
08010020
08010020
04010040
02010040
02010080
01010080
01010100
00810200
00810200
00410400
007FFC00
00810200
00810200
01010100
01010100
02010080
02010080
04010040
04010020
08010020
10010010
10010010
20010008
E001000F
00000001
00000001
00000001
00000001
00000001
00000001
ENDCHAR
STARTCHAR 0497
ENCODING 1175
SWIDTH 720 0
DWIDTH 28 0
BBX 25 25 2 -5
BITMAP
C0080380
20080400
10080400
10080800
08080800
08081000
04081000
02082000
02084000
01FF8000
02084000
02082000
04082000
04081000
08081000
08080800
10080800
10080400
20080400
E0080380
00000080
00000080
00000080
00000080
00000080
ENDCHAR
STARTCHAR 0498
ENCODING 1176
SWIDTH 565 0
DWIDTH 22 0
BBX 18 33 2 -6
BITMAP
01C000
0E1C00
100200
200100
400080
000080
000080
000080
000080
000080
000080
000100
000200
000C00
07F800
000600
000100
000080
000080
000040
000040
000040
000040
000080
800080
400100
300200
0E3C00
01C000
008000
008000
008000
008000
ENDCHAR
STARTCHAR 0499
ENCODING 1177
SWIDTH 488 0
DWIDTH 19 0
BBX 14 25 2 -5
BITMAP
0FE0
3010
4008
8008
0004
0004
0008
0008
0010
0FC0
0030
0008
0004
0004
0004
0004
8004
4008
6008
1870
0780
0200
0200
0200
0200
ENDCHAR
STARTCHAR 049A
ENCODING 1178
SWIDTH 617 0
DWIDTH 24 0
BBX 19 33 4 -6
BITMAP
8001C0
800200
800400
800400
800800
800800
801000
802000
802000
804000
804000
808000
810000
FF0000
808000
808000
804000
802000
802000
801000
801000
800800
800400
800400
800200
800100
8001E0
000020
000020
000020
000020
000020
000020
ENDCHAR
STARTCHAR 049B
ENCODING 1179
SWIDTH 514 0
DWIDTH 20 0
BBX 15 25 4 -5
BITMAP
800C
8010
8020
8040
8040
8080
8100
8100
8200
FC00
8200
8100
8100
8080
8080
8040
8020
8020
8010
800E
0002
0002
0002
0002
0002
ENDCHAR
STARTCHAR 049C
ENCODING 1180
SWIDTH 617 0
DWIDTH 24 0
BBX 19 27 4 0
BITMAP
8001C0
800200
800200
800400
800400
800800
881000
881000
882000
882000
884000
888000
888000
FF0000
888000
884000
884000
882000
881000
881000
800800
800800
800400
800200
800200
800100
8000E0
ENDCHAR
STARTCHAR 049D
ENCODING 1181
SWIDTH 540 0
DWIDTH 21 0
BBX 15 20 4 0
BITMAP
800E
8008
8010
8020
9020
9040
9080
9080
9100
FE00
9100
9100
9080
9040
9040
8020
8020
8010
8008
800E
ENDCHAR
STARTCHAR 04A0
ENCODING 1184
SWIDTH 720 0
DWIDTH 28 0
BBX 26 27 1 0
BITMAP
FF800380
00800400
00800400
00800800
00800800
00801000
00801000
00802000
00804000
00804000
00808000
00808000
00810000
00FE0000
00810000
00808000
00804000
00804000
00802000
00802000
00801000
00800800
00800800
00800400
00800400
00800200
008001C0
ENDCHAR
STARTCHAR 04A1
ENCODING 1185
SWIDTH 591 0
DWIDTH 23 0
BBX 21 20 1 0
BITMAP
FE0030
020040
020080
020080
020100
020200
020200
020400
020800
03F000
020800
020400
020400
020200
020200
020100
020080
020080
020040
020038
ENDCHAR
STARTCHAR 04A2
ENCODING 1186
SWIDTH 720 0
DWIDTH 28 0
BBX 22 33 4 -6
BITMAP
800020
800020
800020
800020
800020
800020
800020
800020
800020
800020
800020
800020
800020
FFFFE0
800020
800020
800020
800020
800020
800020
800020
800020
800020
800020
800020
800020
80003C
000004
000004
000004
000004
000004
000004
ENDCHAR
STARTCHAR 04A3
ENCODING 1187
SWIDTH 565 0
DWIDTH 22 0
BBX 17 25 4 -5
BITMAP
800400
800400
800400
800400
800400
800400
800400
800400
800400
FFFC00
800400
800400
800400
800400
800400
800400
800400
800400
800400
800780
000080
000080
000080
000080
000080
ENDCHAR
STARTCHAR 04A4
ENCODING 1188
SWIDTH 925 0
DWIDTH 36 0
BBX 31 27 4 0
BITMAP
80007FFE
80004000
80004000
80004000
80004000
80004000
80004000
80004000
80004000
80004000
80004000
80004000
80004000
FFFFC000
80004000
80004000
80004000
80004000
80004000
80004000
80004000
80004000
80004000
80004000
80004000
80004000
80004000
ENDCHAR
STARTCHAR 04A5
ENCODING 1189
SWIDTH 745 0
DWIDTH 29 0
BBX 24 20 4 0
BITMAP
800FFF
800800
800800
800800
800800
800800
800800
800800
800800
FFF800
800800
800800
800800
800800
800800
800800
800800
800800
800800
800800
ENDCHAR
STARTCHAR 04AA
ENCODING 1194
SWIDTH 591 0
DWIDTH 23 0
BBX 18 34 3 -6
BITMAP
006000
071C00
080300
100080
200080
400040
400000
800000
800000
800000
800000
800000
800000
800000
800000
800000
800000
800000
800000
800000
800000
800000
400000
400040
200080
100080
080300
071C00
00E000
004000
004000
004000
004000
004000
ENDCHAR
STARTCHAR 04AB
ENCODING 1195
SWIDTH 462 0
DWIDTH 18 0
BBX 15 25 2 -5
BITMAP
07F0
1808
2004
2002
4000
4000
8000
8000
8000
8000
8000
8000
8000
8000
4000
4000
4000
2002
1004
0E18
01E0
0080
0080
0080
0080
ENDCHAR
STARTCHAR 04AE
ENCODING 1198
SWIDTH 540 0
DWIDTH 21 0
BBX 19 27 1 0
BITMAP
800020
400040
400040
200080
100080
100100
080200
080200
040400
020400
020800
011000
011000
00A000
006000
004000
004000
004000
004000
004000
004000
004000
004000
004000
004000
004000
004000
ENDCHAR
STARTCHAR 04AF
ENCODING 1199
SWIDTH 437 0
DWIDTH 17 0
BBX 16 28 1 -8
BITMAP
8001
8002
4002
4004
4004
2004
2008
1008
1008
1010
0810
0820
0820
0420
0440
0240
0240
0280
0180
0100
0100
0100
0100
0100
0100
0100
0100
0100
ENDCHAR
STARTCHAR 04B0
ENCODING 1200
SWIDTH 540 0
DWIDTH 21 0
BBX 19 27 1 0
BITMAP
800020
400040
400040
200080
100080
100100
080200
080200
040400
020400
020800
011000
011000
00A000
006000
004000
1FFF80
004000
004000
004000
004000
004000
004000
004000
004000
004000
004000
ENDCHAR
STARTCHAR 04B1
ENCODING 1201
SWIDTH 437 0
DWIDTH 17 0
BBX 16 28 1 -8
BITMAP
8001
8002
4002
4004
4004
2004
2008
1008
1008
1010
0810
0820
0820
0420
0440
0240
0240
0280
0180
0100
3FF8
0100
0100
0100
0100
0100
0100
0100
ENDCHAR
STARTCHAR 04B2
ENCODING 1202
SWIDTH 565 0
DWIDTH 22 0
BBX 22 33 1 -6
BITMAP
400020
200040
2000C0
100080
080100
080300
040200
020400
020C00
010800
009000
00A000
006000
006000
00A000
009000
010800
020800
020400
040200
080200
080100
100080
200080
200040
400020
80003C
000004
000004
000004
000004
000004
000004
ENDCHAR
STARTCHAR 04B3
ENCODING 1203
SWIDTH 488 0
DWIDTH 19 0
BBX 17 25 2 -5
BITMAP
800200
800400
400800
201000
301000
102000
084000
044000
048000
030000
030000
028000
048000
084000
102000
101000
201000
400800
800400
800380
000080
000080
000080
000080
000080
ENDCHAR
STARTCHAR 04B6
ENCODING 1206
SWIDTH 642 0
DWIDTH 25 0
BBX 20 32 3 -6
BITMAP
800080
800080
800080
800080
800080
800080
800080
800080
800080
800080
800080
800080
400080
600080
300080
0FFF80
000080
000080
000080
000080
000080
000080
000080
000080
000080
000080
0000F0
000010
000010
000010
000010
000010
ENDCHAR
STARTCHAR 04B7
ENCODING 1207
SWIDTH 514 0
DWIDTH 20 0
BBX 17 25 2 -5
BITMAP
800400
800400
800400
800400
800400
800400
800400
800400
800400
400C00
201400
1CE400
030400
000400
000400
000400
000400
000400
000400
000780
000080
000080
000080
000080
000080
ENDCHAR
STARTCHAR 04B8
ENCODING 1208
SWIDTH 617 0
DWIDTH 24 0
BBX 17 27 3 0
BITMAP
800080
800080
800080
800080
800080
800080
800080
800080
808080
808080
808080
808080
408080
608080
308080
0FFF80
008080
008080
008080
008080
008080
008080
000080
000080
000080
000080
000080
ENDCHAR
STARTCHAR 04B9
ENCODING 1209
SWIDTH 514 0
DWIDTH 20 0
BBX 14 20 2 0
BITMAP
8004
8004
8004
8004
8004
8104
8104
8104
8104
410C
2114
1D64
0384
0104
0104
0104
0004
0004
0004
0004
ENDCHAR
STARTCHAR 04BA
ENCODING 1210
SWIDTH 617 0
DWIDTH 24 0
BBX 18 27 4 0
BITMAP
800000
800000
800000
800000
800000
800000
800000
800000
800000
800000
800000
BFF800
C00600
800100
800100
800080
800080
800080
800080
800080
800040
800040
800040
800040
800040
800040
800040
ENDCHAR
STARTCHAR 04BB
ENCODING 1211
SWIDTH 540 0
DWIDTH 21 0
BBX 14 29 4 0
BITMAP
8000
8000
8000
8000
8000
8000
8000
8000
8000
8FC0
B030
C008
8008
8004
8004
8004
8004
8004
8004
8004
8004
8004
8004
8004
8004
8004
8004
8004
8004
ENDCHAR
STARTCHAR 04C0
ENCODING 1216
SWIDTH 360 0
DWIDTH 14 0
BBX 9 27 3 0
BITMAP
FF80
0800
0800
0800
0800
0800
0800
0800
0800
0800
0800
0800
0800
0800
0800
0800
0800
0800
0800
0800
0800
0800
0800
0800
0800
0800
FF80
ENDCHAR
STARTCHAR 04C1
ENCODING 1217
SWIDTH 900 0
DWIDTH 35 0
BBX 31 35 2 0
BITMAP
00101000
00101000
00082000
00064000
00018000
00000000
00000000
00000000
E001000E
10010010
10010010
08010020
08010020
04010040
02010040
02010080
01010080
01010100
00810200
00810200
00410400
007FFC00
00810200
00810200
01010100
01010100
02010080
02010080
04010040
04010020
08010020
10010010
10010010
20010008
E001000E
ENDCHAR
STARTCHAR 04C2
ENCODING 1218
SWIDTH 720 0
DWIDTH 28 0
BBX 25 28 2 0
BITMAP
01008000
00808000
00410000
00260000
00180000
00000000
00000000
00000000
C0080380
20080400
10080400
10080800
08080800
08081000
04081000
02082000
02084000
01FF8000
02084000
02082000
04082000
04081000
08081000
08080800
10080800
10080400
20080400
E0080380
ENDCHAR
STARTCHAR 04CF
ENCODING 1231
SWIDTH 205 0
DWIDTH 8 0
BBX 1 29 4 0
BITMAP
80
80
80
80
80
80
80
80
80
80
80
80
80
80
80
80
80
80
80
80
80
80
80
80
80
80
80
80
80
ENDCHAR
STARTCHAR 04D0
ENCODING 1232
SWIDTH 591 0
DWIDTH 23 0
BBX 21 35 1 0
BITMAP
020200
020200
010400
00C800
003000
000000
000000
000000
002000
005000
005000
004800
008800
008800
008400
010400
010400
020200
020200
020200
040100
040100
040080
080080
080080
0FFFC0
100040
100040
100020
200020
200020
400010
400010
400008
800008
ENDCHAR
STARTCHAR 04D1
ENCODING 1233
SWIDTH 514 0
DWIDTH 20 0
BBX 17 28 2 0
BITMAP
100800
101000
082000
064000
018000
000000
000000
000000
0FE000
101000
200800
400400
000400
000400
000400
000400
000400
03FC00
180400
600400
400400
800400
800400
800400
800400
400C00
601400
1FE780
ENDCHAR
STARTCHAR 04D2
ENCODING 1234
SWIDTH 591 0
DWIDTH 23 0
BBX 21 34 1 0
BITMAP
030600
030600
000000
000000
000000
000000
000000
002000
005000
005000
004800
008800
008800
008400
010400
010400
020200
020200
020200
040100
040100
040080
080080
080080
0FFFC0
100040
100040
100020
200020
200020
400010
400010
400008
800008
ENDCHAR
STARTCHAR 04D3
ENCODING 1235
SWIDTH 514 0
DWIDTH 20 0
BBX 17 27 2 0
BITMAP
183000
183000
000000
000000
000000
000000
000000
0FE000
101000
200800
400400
000400
000400
000400
000400
000400
03FC00
180400
600400
400400
800400
800400
800400
800400
400C00
601400
1FE780
ENDCHAR
STARTCHAR 04D4
ENCODING 1236
SWIDTH 848 0
DWIDTH 33 0
BBX 31 27 0 0
BITMAP
0001FFFE
00028000
00048000
00048000
00088000
00088000
00108000
00108000
00208000
00208000
00408000
00408000
00808000
0100FFFC
01008000
02008000
02008000
07FF8000
04008000
08008000
08008000
10008000
10008000
20008000
40008000
40008000
8000FFFE
ENDCHAR
STARTCHAR 04D5
ENCODING 1237
SWIDTH 848 0
DWIDTH 33 0
BBX 29 20 2 0
BITMAP
0FE03F00
3010C0C0
20090020
400A0010
00060010
00040008
00040008
00040008
00040008
03FFFFF8
38040000
40040000
40040000
80040000
80040000
80060008
800A0010
40090010
40108020
3FE07FC0
ENDCHAR
STARTCHAR 04D6
ENCODING 1238
SWIDTH 540 0
DWIDTH 21 0
BBX 15 35 4 0
BITMAP
1010
1010
0820
0640
0180
0000
0000
0000
FFFE
8000
8000
8000
8000
8000
8000
8000
8000
8000
8000
8000
8000
FFFE
8000
8000
8000
8000
8000
8000
8000
8000
8000
8000
8000
8000
FFFE
ENDCHAR
STARTCHAR 04D7
ENCODING 1239
SWIDTH 514 0
DWIDTH 20 0
BBX 16 28 2 0
BITMAP
0808
0808
0410
0260
0180
0000
0000
0000
07F0
1808
2004
2002
4002
4001
8001
8001
8001
FFFF
8000
8000
8000
8000
4000
4001
6002
2002
1004
0FF8
ENDCHAR
STARTCHAR 04D8
ENCODING 1240
SWIDTH 668 0
DWIDTH 26 0
BBX 21 28 3 0
BITMAP
006000
078E00
080180
1000C0
200040
400020
400020
400010
000010
000010
000010
000008
000008
000008
FFFFF8
800008
800008
800008
800010
800010
800010
400010
400020
400020
200040
1000C0
080180
07FE00
ENDCHAR
STARTCHAR 04D9
ENCODING 1241
SWIDTH 514 0
DWIDTH 20 0
BBX 16 20 2 0
BITMAP
07F0
1808
2004
4002
4002
0001
0001
0001
0001
0001
FFFF
8001
8001
8001
4001
4001
2002
2002
100C
0FF0
ENDCHAR
STARTCHAR 04DC
ENCODING 1244
SWIDTH 900 0
DWIDTH 35 0
BBX 31 34 2 0
BITMAP
00183000
00183000
00000000
00000000
00000000
00000000
00000000
E001000E
10010010
10010010
08010020
08010020
04010040
02010040
02010080
01010080
01010100
00810200
00810200
00410400
007FFC00
00810200
00810200
01010100
01010100
02010080
02010080
04010040
04010020
08010020
10010010
10010010
20010008
E001000E
ENDCHAR
STARTCHAR 04DD
ENCODING 1245
SWIDTH 720 0
DWIDTH 28 0
BBX 25 27 2 0
BITMAP
00C18000
00C18000
00000000
00000000
00000000
00000000
00000000
C0080380
20080400
10080400
10080800
08080800
08081000
04081000
02082000
02084000
01FF8000
02084000
02082000
04082000
04081000
08081000
08080800
10080800
10080400
20080400
E0080380
ENDCHAR
STARTCHAR 04DE
ENCODING 1246
SWIDTH 565 0
DWIDTH 22 0
BBX 18 34 2 0
BITMAP
040800
060C00
000000
000000
000000
000000
01C000
0E1C00
100200
200100
400080
000080
000080
000080
000080
000080
000080
000100
000200
000C00
07F800
000600
000100
000080
000080
000040
000040
000040
000040
000080
800080
400100
300200
0FFC00
ENDCHAR
STARTCHAR 04DF
ENCODING 1247
SWIDTH 488 0
DWIDTH 19 0
BBX 14 27 2 0
BITMAP
1830
1830
0000
0000
0000
0000
0000
0FE0
3010
4008
8008
0004
0004
0008
0008
0010
0FC0
0030
0008
0004
0004
0004
0004
8004
4008
6008
1FF0
ENDCHAR
STARTCHAR 04E2
ENCODING 1250
SWIDTH 668 0
DWIDTH 26 0
BBX 19 33 4 0
BITMAP
07FC00
000000
000000
000000
000000
000000
800020
800060
8000A0
8000A0
800120
800220
800220
800420
800820
800820
801020
802020
802020
804020
808020
808020
810020
820020
820020
840020
880020
880020
900020
A00020
A00020
C00020
800020
ENDCHAR
STARTCHAR 04E3
ENCODING 1251
SWIDTH 565 0
DWIDTH 22 0
BBX 14 26 4 0
BITMAP
1FF0
0000
0000
0000
0000
0000
8004
8004
800C
8014
8014
8024
8044
8044
8084
8104
8204
8204
8404
8804
8804
9004
A004
A004
C004
8004
ENDCHAR
STARTCHAR 04E4
ENCODING 1252
SWIDTH 668 0
DWIDTH 26 0
BBX 19 34 4 0
BITMAP
060C00
060C00
000000
000000
000000
000000
000000
800020
800060
8000A0
8000A0
800120
800220
800220
800420
800820
800820
801020
802020
802020
804020
808020
808020
810020
820020
820020
840020
880020
880020
900020
A00020
A00020
C00020
800020
ENDCHAR
STARTCHAR 04E5
ENCODING 1253
SWIDTH 565 0
DWIDTH 22 0
BBX 14 27 4 0
BITMAP
1020
1030
0000
0000
0000
0000
0000
8004
8004
800C
8014
8014
8024
8044
8044
8084
8104
8204
8204
8404
8804
8804
9004
A004
A004
C004
8004
ENDCHAR
STARTCHAR 04E6
ENCODING 1254
SWIDTH 668 0
DWIDTH 26 0
BBX 21 34 3 0
BITMAP
020400
030600
000000
000000
000000
000000
006000
078E00
080180
1000C0
200040
400020
400020
800010
800010
800010
800010
800008
800008
800008
800008
800008
800008
800008
800010
800010
800010
400010
400020
400020
200040
1000C0
080180
07FE00
ENDCHAR
STARTCHAR 04E7
ENCODING 1255
SWIDTH 540 0
DWIDTH 21 0
BBX 17 27 2 0
BITMAP
0C1800
0C1800
000000
000000
000000
000000
000000
07F000
180C00
200200
200200
400100
400100
800100
800100
800080
800080
800080
800080
800080
800100
400100
400100
400200
200200
100400
0FF800
ENDCHAR
STARTCHAR 04E8
ENCODING 1256
SWIDTH 668 0
DWIDTH 26 0
BBX 21 28 3 0
BITMAP
006000
078E00
080180
1000C0
200040
400020
400020
800010
800010
800010
800010
800008
800008
800008
FFFFF8
800008
800008
800008
800010
800010
800010
400010
400020
400020
200040
1000C0
080180
07FE00
ENDCHAR
STARTCHAR 04E9
ENCODING 1257
SWIDTH 540 0
DWIDTH 21 0
BBX 17 20 2 0
BITMAP
07F000
180C00
200200
200200
400100
400100
800100
800100
800080
800080
FFFF80
800080
800080
800100
400100
400100
400200
200200
100400
0FF800
ENDCHAR
STARTCHAR 04EE
ENCODING 1262
SWIDTH 565 0
DWIDTH 22 0
BBX 20 33 1 0
BITMAP
03FE00
000000
000000
000000
000000
000000
800010
400020
400020
200020
200040
100040
100080
080080
080080
040100
040100
020200
020200
010200
010400
008400
008800
004800
004800
003000
003000
002000
002000
002000
004000
004000
078000
ENDCHAR
STARTCHAR 04EF
ENCODING 1263
SWIDTH 437 0
DWIDTH 17 0
BBX 16 34 1 -8
BITMAP
1FF0
0000
0000
0000
0000
0000
8001
8002
4002
4004
4004
2004
2008
2008
1008
1010
0810
0820
0820
0420
0440
0440
0240
0280
0180
0180
0100
0100
0200
0200
0200
0400
0400
7800
ENDCHAR
STARTCHAR 04F0
ENCODING 1264
SWIDTH 565 0
DWIDTH 22 0
BBX 20 34 1 0
BITMAP
030600
030600
000000
000000
000000
000000
000000
800010
400020
400020
200020
200040
100040
100080
080080
080080
040100
040100
020200
020200
010200
010400
008400
008800
004800
004800
003000
003000
002000
002000
002000
004000
004000
078000
ENDCHAR
STARTCHAR 04F1
ENCODING 1265
SWIDTH 437 0
DWIDTH 17 0
BBX 16 35 1 -8
BITMAP
0810
0810
0000
0000
0000
0000
0000
8001
8002
4002
4004
4004
2004
2008
2008
1008
1010
0810
0820
0820
0420
0440
0440
0240
0280
0180
0180
0100
0100
0200
0200
0200
0400
0400
7800
ENDCHAR
STARTCHAR 04F2
ENCODING 1266
SWIDTH 565 0
DWIDTH 22 0
BBX 20 36 1 0
BITMAP
001040
002080
004080
004100
008200
010400
000000
000000
000000
800010
400020
400020
200020
200040
100040
100080
080080
080080
040100
040100
020200
020200
010200
010400
008400
008800
004800
004800
003000
003000
002000
002000
002000
004000
004000
078000
ENDCHAR
STARTCHAR 04F3
ENCODING 1267
SWIDTH 437 0
DWIDTH 17 0
BBX 16 37 1 -8
BITMAP
0082
0102
0104
0208
0410
0810
0000
0000
0000
8001
8002
4002
4004
4004
2004
2008
2008
1008
1010
0810
0820
0820
0420
0440
0440
0240
0280
0180
0180
0100
0100
0200
0200
0200
0400
0400
7800
ENDCHAR
STARTCHAR 04F4
ENCODING 1268
SWIDTH 617 0
DWIDTH 24 0
BBX 17 34 3 0
BITMAP
081800
0C1800
000000
000000
000000
000000
000000
800080
800080
800080
800080
800080
800080
800080
800080
800080
800080
800080
800080
400080
600080
300080
0FFF80
000080
000080
000080
000080
000080
000080
000080
000080
000080
000080
000080
ENDCHAR
STARTCHAR 04F5
ENCODING 1269
SWIDTH 514 0
DWIDTH 20 0
BBX 14 27 2 0
BITMAP
1030
1830
0000
0000
0000
0000
0000
8004
8004
8004
8004
8004
8004
8004
8004
8004
400C
2014
1CE4
0304
0004
0004
0004
0004
0004
0004
0004
ENDCHAR
STARTCHAR 04F8
ENCODING 1272
SWIDTH 797 0
DWIDTH 31 0
BBX 24 34 4 0
BITMAP
008100
008100
000000
000000
000000
000000
000000
800001
800001
800001
800001
800001
800001
800001
800001
800001
800001
800001
800001
FFFC01
800201
800101
800101
800081
800081
800081
800081
800081
800081
800081
800101
800301
800601
FFF801
ENDCHAR
STARTCHAR 04F9
ENCODING 1273
SWIDTH 668 0
DWIDTH 26 0
BBX 18 27 4 0
BITMAP
040800
040800
000000
000000
000000
000000
000000
800040
800040
800040
800040
800040
800040
800040
800040
800040
FFC040
803040
801040
800840
800840
800840
800840
800840
801040
802040
FFC040
ENDCHAR
STARTCHAR 0E3F
ENCODING 3647
SWIDTH 591 0
DWIDTH 23 0
BBX 17 33 4 -3
BITMAP
010000
010000
010000
010000
FFF800
810400
810200
810200
810100
810100
810100
810100
810200
810200
810400
FFF800
810C00
810200
810100
810080
810080
810080
810080
810080
810080
810100
810100
810200
FFFC00
010000
010000
010000
010000
ENDCHAR
STARTCHAR 1E80
ENCODING 7808
SWIDTH 848 0
DWIDTH 33 0
BBX 32 36 1 0
BITMAP
00080000
00040000
00020000
00020000
00010000
00008000
00000000
00000000
00000000
80018001
40018002
40028002
40024002
40024002
20024004
20044004
20042004
20042008
10082008
10081008
10081008
10081010
08101010
08100810
08100810
08100820
04200420
04200420
04200420
02400440
02400240
02400240
02400280
01800280
01800180
01800180
ENDCHAR
STARTCHAR 1E81
ENCODING 7809
SWIDTH 720 0
DWIDTH 28 0
BBX 26 29 1 0
BITMAP
00600000
00200000
00100000
00080000
00080000
00040000
00000000
00000000
00000000
80040040
400C0080
400C0080
40120080
40120080
20120100
20120100
20210100
10210200
10210200
10408200
08408400
08408400
08804400
08804400
04804800
05002800
05002800
03003000
03001000
ENDCHAR
STARTCHAR 1E82
ENCODING 7810
SWIDTH 848 0
DWIDTH 33 0
BBX 32 36 1 0
BITMAP
00002000
00002000
00004000
00008000
00010000
00010000
00000000
00000000
00000000
80018001
40018002
40028002
40024002
40024002
20024004
20044004
20042004
20042008
10082008
10081008
10081008
10081010
08101010
08100810
08100810
08100820
04200420
04200420
04200420
02400440
02400240
02400240
02400280
01800280
01800180
01800180
ENDCHAR
STARTCHAR 1E83
ENCODING 7811
SWIDTH 720 0
DWIDTH 28 0
BBX 26 29 1 0
BITMAP
00008000
00010000
00020000
00040000
00040000
00080000
00000000
00000000
00000000
80040040
400C0080
400C0080
40120080
40120080
20120100
20120100
20210100
10210200
10210200
10408200
08408400
08408400
08804400
08804400
04804800
05002800
05002800
03003000
03001000
ENDCHAR
STARTCHAR 1E84
ENCODING 7812
SWIDTH 848 0
DWIDTH 33 0
BBX 32 34 1 0
BITMAP
00081000
00181000
00000000
00000000
00000000
00000000
00000000
80018001
40018002
40028002
40024002
40024002
20024004
20044004
20042004
20042008
10082008
10081008
10081008
10081010
08101010
08100810
08100810
08100820
04200420
04200420
04200420
02400440
02400240
02400240
02400280
01800280
01800180
01800180
ENDCHAR
STARTCHAR 1E85
ENCODING 7813
SWIDTH 720 0
DWIDTH 28 0
BBX 26 27 1 0
BITMAP
00408000
0040C000
00000000
00000000
00000000
00000000
00000000
80040040
400C0080
400C0080
40120080
40120080
20120100
20120100
20210100
10210200
10210200
10408200
08408400
08408400
08804400
08804400
04804800
05002800
05002800
03003000
03001000
ENDCHAR
STARTCHAR 1E9E
ENCODING 7838
SWIDTH 668 0
DWIDTH 26 0
BBX 20 27 4 0
BITMAP
FFFFE0
800040
800080
800080
800100
800200
800400
800400
800800
801000
801000
802000
801F00
8000C0
800020
800010
800010
800010
800010
800010
800010
800010
800010
800010
820020
810040
80FF80
ENDCHAR
STARTCHAR 1EA0
ENCODING 7840
SWIDTH 591 0
DWIDTH 23 0
BBX 21 32 1 -5
BITMAP
002000
005000
005000
004800
008800
008800
008400
010400
010400
020200
020200
020200
040100
040100
040080
080080
080080
0FFFC0
100040
100040
100020
200020
200020
400010
400010
400008
800008
000000
000000
000000
002000
003000
ENDCHAR
STARTCHAR 1EA1
ENCODING 7841
SWIDTH 514 0
DWIDTH 20 0
BBX 17 25 2 -5
BITMAP
0FE000
101000
200800
400400
000400
000400
000400
000400
000400
03FC00
180400
600400
400400
800400
800400
800400
800400
400C00
601400
18E780
070000
000000
000000
020000
030000
ENDCHAR
STARTCHAR 1EA2
ENCODING 7842
SWIDTH 591 0
DWIDTH 23 0
BBX 21 36 1 0
BITMAP
00FC00
000400
000800
000800
001000
002000
000000
000000
000000
002000
005000
005000
004800
008800
008800
008400
010400
010400
020200
020200
020200
040100
040100
040080
080080
080080
0FFFC0
100040
100040
100020
200020
200020
400010
400010
400008
800008
ENDCHAR
STARTCHAR 1EA3
ENCODING 7843
SWIDTH 514 0
DWIDTH 20 0
BBX 17 29 2 0
BITMAP
07E000
002000
004000
004000
008000
010000
000000
000000
000000
0FE000
101000
200800
400400
000400
000400
000400
000400
000400
03FC00
180400
600400
400400
800400
800400
800400
800400
400C00
601400
1FE780
ENDCHAR
STARTCHAR 1EA4
ENCODING 7844
SWIDTH 591 0
DWIDTH 23 0
BBX 21 40 1 0
BITMAP
000020
000040
000040
000080
002100
005200
008800
010400
020200
040100
000000
000000
000000
002000
005000
005000
004800
008800
008800
008400
010400
010400
020200
020200
020200
040100
040100
040080
080080
080080
0FFFC0
100040
100040
100020
200020
200020
400010
400010
400008
800008
ENDCHAR
STARTCHAR 1EA5
ENCODING 7845
SWIDTH 514 0
DWIDTH 20 0
BBX 17 33 2 0
BITMAP
000100
000200
000200
000400
010800
028000
044000
082000
101000
200800
000000
000000
000000
0FE000
101000
200800
400400
000400
000400
000400
000400
000400
03FC00
180400
600400
400400
800400
800400
800400
800400
400C00
601400
1FE780
ENDCHAR
STARTCHAR 1EA6
ENCODING 7846
SWIDTH 591 0
DWIDTH 23 0
BBX 21 40 1 0
BITMAP
200000
100000
080000
080000
042000
025000
008800
010400
020200
040100
000000
000000
000000
002000
005000
005000
004800
008800
008800
008400
010400
010400
020200
020200
020200
040100
040100
040080
080080
080080
0FFFC0
100040
100040
100020
200020
200020
400010
400010
400008
800008
ENDCHAR
STARTCHAR 1EA7
ENCODING 7847
SWIDTH 514 0
DWIDTH 20 0
BBX 18 33 1 0
BITMAP
800000
400000
200000
200000
108000
094000
022000
041000
080800
100400
000000
000000
000000
07F000
080800
100400
200200
000200
000200
000200
000200
000200
01FE00
0C0200
300200
200200
400200
400200
400200
400200
200600
300A00
0FF3C0
ENDCHAR
STARTCHAR 1EA8
ENCODING 7848
SWIDTH 591 0
DWIDTH 23 0
BBX 21 40 1 0
BITMAP
000FC0
000040
0000C0
000080
002100
005100
008800
010400
020200
040100
000000
000000
000000
002000
005000
005000
004800
008800
008800
008400
010400
010400
020200
020200
020200
040100
040100
040080
080080
080080
0FFFC0
100040
100040
100020
200020
200020
400010
400010
400008
800008
ENDCHAR
STARTCHAR 1EA9
ENCODING 7849
SWIDTH 514 0
DWIDTH 20 0
BBX 17 33 2 0
BITMAP
007E00
000200
000200
000400
010800
028800
044000
082000
101000
200800
000000
000000
000000
0FE000
101000
200800
400400
000400
000400
000400
000400
000400
03FC00
180400
600400
400400
800400
800400
800400
800400
400C00
601400
1FE780
ENDCHAR
STARTCHAR 1EAA
ENCODING 7850
SWIDTH 591 0
DWIDTH 23 0
BBX 21 40 1 0
BITMAP
03C000
042100
001E00
000000
002000
005000
008800
010400
020200
040100
000000
000000
000000
002000
005000
005000
004800
008800
008800
008400
010400
010400
020200
020200
020200
040100
040100
040080
080080
080080
0FFFC0
100040
100040
100020
200020
200020
400010
400010
400008
800008
ENDCHAR
STARTCHAR 1EAB
ENCODING 7851
SWIDTH 514 0
DWIDTH 20 0
BBX 17 33 2 0
BITMAP
1E0000
210800
00F000
000000
010000
028000
044000
082000
101000
200800
000000
000000
000000
0FE000
101000
200800
400400
000400
000400
000400
000400
000400
03FC00
180400
600400
400400
800400
800400
800400
800400
400C00
601400
1FE780
ENDCHAR
STARTCHAR 1EAC
ENCODING 7852
SWIDTH 591 0
DWIDTH 23 0
BBX 21 41 1 -5
BITMAP
003000
005000
008800
010400
020200
040100
000000
000000
000000
002000
005000
005000
004800
008800
008800
008400
010400
010400
020200
020200
020200
040100
040100
040080
080080
080080
0FFFC0
100040
100040
100020
200020
200020
400010
400010
400008
800008
000000
000000
000000
002000
003000
ENDCHAR
STARTCHAR 1EAD
ENCODING 7853
SWIDTH 514 0
DWIDTH 20 0
BBX 17 34 2 -5
BITMAP
018000
02C000
046000
082000
101000
000800
000000
000000
000000
0FE000
101000
200800
400400
000400
000400
000400
000400
000400
03FC00
180400
600400
400400
800400
800400
800400
800400
400C00
601400
18E780
070000
000000
000000
020000
030000
ENDCHAR
STARTCHAR 1EAE
ENCODING 7854
SWIDTH 591 0
DWIDTH 23 0
BBX 21 40 1 0
BITMAP
000400
000400
000800
001000
002000
002000
020200
020200
010400
00F800
000000
000000
000000
002000
005000
005000
004800
008800
008800
008400
010400
010400
020200
020200
020200
040100
040100
040080
080080
080080
0FFFC0
100040
100040
100020
200020
200020
400010
400010
400008
800008
ENDCHAR
STARTCHAR 1EAF
ENCODING 7855
SWIDTH 514 0
DWIDTH 20 0
BBX 17 33 2 0
BITMAP
002000
002000
004000
008000
010000
010000
101000
101000
082000
07C000
000000
000000
000000
0FE000
101000
200800
400400
000400
000400
000400
000400
000400
03FC00
180400
600400
400400
800400
800400
800400
800400
400C00
601400
1FE780
ENDCHAR
STARTCHAR 1EB0
ENCODING 7856
SWIDTH 591 0
DWIDTH 23 0
BBX 21 40 1 0
BITMAP
010000
008000
008000
004000
002000
001000
020200
020200
010400
00F800
000000
000000
000000
002000
005000
005000
004800
008800
008800
008400
010400
010400
020200
020200
020200
040100
040100
040080
080080
080080
0FFFC0
100040
100040
100020
200020
200020
400010
400010
400008
800008
ENDCHAR
STARTCHAR 1EB1
ENCODING 7857
SWIDTH 514 0
DWIDTH 20 0
BBX 17 33 2 0
BITMAP
080000
040000
040000
020000
010000
008000
101000
101000
082000
07C000
000000
000000
000000
0FE000
101000
200800
400400
000400
000400
000400
000400
000400
03FC00
180400
600400
400400
800400
800400
800400
800400
400C00
601400
1FE780
ENDCHAR
STARTCHAR 1EB2
ENCODING 7858
SWIDTH 591 0
DWIDTH 23 0
BBX 21 40 1 0
BITMAP
00FC00
000400
000800
001000
001000
002000
020200
020200
010400
00F800
000000
000000
000000
002000
005000
005000
004800
008800
008800
008400
010400
010400
020200
020200
020200
040100
040100
040080
080080
080080
0FFFC0
100040
100040
100020
200020
200020
400010
400010
400008
800008
ENDCHAR
STARTCHAR 1EB3
ENCODING 7859
SWIDTH 514 0
DWIDTH 20 0
BBX 17 33 2 0
BITMAP
07E000
002000
004000
004000
008000
010000
101000
101000
082000
07C000
000000
000000
000000
0FE000
101000
200800
400400
000400
000400
000400
000400
000400
03FC00
180400
600400
400400
800400
800400
800400
800400
400C00
601400
1FE780
ENDCHAR
STARTCHAR 1EB4
ENCODING 7860
SWIDTH 591 0
DWIDTH 23 0
BBX 21 40 1 0
BITMAP
008000
066000
001B00
000400
000000
000000
020200
020200
010400
00F800
000000
000000
000000
002000
005000
005000
004800
008800
008800
008400
010400
010400
020200
020200
020200
040100
040100
040080
080080
080080
0FFFC0
100040
100040
100020
200020
200020
400010
400010
400008
800008
ENDCHAR
STARTCHAR 1EB5
ENCODING 7861
SWIDTH 514 0
DWIDTH 20 0
BBX 17 33 2 0
BITMAP
040000
330000
00D800
002000
000000
000000
101000
101000
082000
07C000
000000
000000
000000
0FE000
101000
200800
400400
000400
000400
000400
000400
000400
03FC00
180400
600400
400400
800400
800400
800400
800400
400C00
601400
1FE780
ENDCHAR
STARTCHAR 1EB6
ENCODING 7862
SWIDTH 591 0
DWIDTH 23 0
BBX 21 40 1 -5
BITMAP
020200
020200
010400
008800
007000
000000
000000
000000
002000
005000
005000
004800
008800
008800
008400
010400
010400
020200
020200
020200
040100
040100
040080
080080
080080
0FFFC0
100040
100040
100020
200020
200020
400010
400010
400008
800008
000000
000000
000000
002000
003000
ENDCHAR
STARTCHAR 1EB7
ENCODING 7863
SWIDTH 514 0
DWIDTH 20 0
BBX 17 33 2 -5
BITMAP
100800
101000
082000
046000
038000
000000
000000
000000
0FE000
101000
200800
400400
000400
000400
000400
000400
000400
03FC00
180400
600400
400400
800400
800400
800400
800400
400C00
601400
18E780
070000
000000
000000
020000
030000
ENDCHAR
STARTCHAR 1EB8
ENCODING 7864
SWIDTH 540 0
DWIDTH 21 0
BBX 15 32 4 -5
BITMAP
FFFE
8000
8000
8000
8000
8000
8000
8000
8000
8000
8000
8000
8000
FFFE
8000
8000
8000
8000
8000
8000
8000
8000
8000
8000
8000
8000
FFFE
0000
0000
0000
0100
0180
ENDCHAR
STARTCHAR 1EB9
ENCODING 7865
SWIDTH 514 0
DWIDTH 20 0
BBX 16 25 2 -5
BITMAP
07F0
1808
2004
2002
4002
4001
8001
8001
8001
FFFF
8000
8000
8000
8000
4000
4001
6002
2002
1004
0E38
01C0
0000
0000
0080
0080
ENDCHAR
STARTCHAR 1EBA
ENCODING 7866
SWIDTH 540 0
DWIDTH 21 0
BBX 15 36 4 0
BITMAP
07E0
0020
0040
0040
0080
0100
0000
0000
0000
FFFE
8000
8000
8000
8000
8000
8000
8000
8000
8000
8000
8000
8000
FFFE
8000
8000
8000
8000
8000
8000
8000
8000
8000
8000
8000
8000
FFFE
ENDCHAR
STARTCHAR 1EBB
ENCODING 7867
SWIDTH 514 0
DWIDTH 20 0
BBX 16 29 2 0
BITMAP
03F0
0010
0020
0040
0040
0080
0000
0000
0000
07F0
1808
2004
2002
4002
4001
8001
8001
8001
FFFF
8000
8000
8000
8000
4000
4001
6002
2002
1004
0FF8
ENDCHAR
STARTCHAR 1EBC
ENCODING 7868
SWIDTH 540 0
DWIDTH 21 0
BBX 15 34 4 0
BITMAP
1E00
2188
0070
0000
0000
0000
0000
FFFE
8000
8000
8000
8000
8000
8000
8000
8000
8000
8000
8000
8000
FFFE
8000
8000
8000
8000
8000
8000
8000
8000
8000
8000
8000
8000
FFFE
ENDCHAR
STARTCHAR 1EBD
ENCODING 7869
SWIDTH 514 0
DWIDTH 20 0
BBX 16 27 2 0
BITMAP
1F00
00C4
0018
0000
0000
0000
0000
07F0
1808
2004
2002
4002
4001
8001
8001
8001
FFFF
8000
8000
8000
8000
4000
4001
6002
2002
1004
0FF8
ENDCHAR
STARTCHAR 1EBE
ENCODING 7870
SWIDTH 540 0
DWIDTH 21 0
BBX 16 40 4 0
BITMAP
0001
0002
0002
0004
0108
0290
0440
0820
1010
2008
0000
0000
0000
FFFE
8000
8000
8000
8000
8000
8000
8000
8000
8000
8000
8000
8000
FFFE
8000
8000
8000
8000
8000
8000
8000
8000
8000
8000
8000
8000
FFFE
ENDCHAR
STARTCHAR 1EBF
ENCODING 7871
SWIDTH 514 0
DWIDTH 20 0
BBX 17 33 2 0
BITMAP
000080
000100
000200
000200
008400
014800
022000
041000
080800
100400
000000
000000
000000
07F000
180800
200400
200200
400200
400100
800100
800100
800100
FFFF00
800000
800000
800000
800000
400000
400100
600200
200200
100400
0FF800
ENDCHAR
STARTCHAR 1EC0
ENCODING 7872
SWIDTH 540 0
DWIDTH 21 0
BBX 16 40 3 0
BITMAP
8000
4000
2000
2000
1080
0940
0220
0410
0808
1004
0000
0000
0000
7FFF
4000
4000
4000
4000
4000
4000
4000
4000
4000
4000
4000
4000
7FFF
4000
4000
4000
4000
4000
4000
4000
4000
4000
4000
4000
4000
7FFF
ENDCHAR
STARTCHAR 1EC1
ENCODING 7873
SWIDTH 514 0
DWIDTH 20 0
BBX 16 33 2 0
BITMAP
8000
4000
4000
2000
1080
0940
0220
0410
0808
1004
0000
0000
0000
07F0
1808
2004
2002
4002
4001
8001
8001
8001
FFFF
8000
8000
8000
8000
4000
4001
6002
2002
1004
0FF8
ENDCHAR
STARTCHAR 1EC2
ENCODING 7874
SWIDTH 540 0
DWIDTH 21 0
BBX 15 40 4 0
BITMAP
007E
0002
0006
0004
0108
0288
0440
0820
1010
2008
0000
0000
0000
FFFE
8000
8000
8000
8000
8000
8000
8000
8000
8000
8000
8000
8000
FFFE
8000
8000
8000
8000
8000
8000
8000
8000
8000
8000
8000
8000
FFFE
ENDCHAR
STARTCHAR 1EC3
ENCODING 7875
SWIDTH 514 0
DWIDTH 20 0
BBX 16 33 2 0
BITMAP
003F
0001
0002
0002
0084
0140
0220
0410
0808
1004
0000
0000
0000
07F0
1808
2004
2002
4002
4001
8001
8001
8001
FFFF
8000
8000
8000
8000
4000
4001
6002
2002
1004
0FF8
ENDCHAR
STARTCHAR 1EC4
ENCODING 7876
SWIDTH 540 0
DWIDTH 21 0
BBX 15 40 4 0
BITMAP
1E00
2108
00F0
0000
0100
0280
0440
0820
1010
2008
0000
0000
0000
FFFE
8000
8000
8000
8000
8000
8000
8000
8000
8000
8000
8000
8000
FFFE
8000
8000
8000
8000
8000
8000
8000
8000
8000
8000
8000
8000
FFFE
ENDCHAR
STARTCHAR 1EC5
ENCODING 7877
SWIDTH 514 0
DWIDTH 20 0
BBX 16 33 2 0
BITMAP
0E00
1184
0078
0000
0080
0140
0220
0410
0808
1004
0000
0000
0000
07F0
1808
2004
2002
4002
4001
8001
8001
8001
FFFF
8000
8000
8000
8000
4000
4001
6002
2002
1004
0FF8
ENDCHAR
STARTCHAR 1EC6
ENCODING 7878
SWIDTH 540 0
DWIDTH 21 0
BBX 15 41 4 -5
BITMAP
0180
0280
0440
0820
1010
2008
0000
0000
0000
FFFE
8000
8000
8000
8000
8000
8000
8000
8000
8000
8000
8000
8000
FFFE
8000
8000
8000
8000
8000
8000
8000
8000
8000
8000
8000
8000
FFFE
0000
0000
0000
0100
0180
ENDCHAR
STARTCHAR 1EC7
ENCODING 7879
SWIDTH 514 0
DWIDTH 20 0
BBX 16 34 2 -5
BITMAP
0080
0140
0220
0410
0808
1004
0000
0000
0000
07F0
1808
2004
2002
4002
4001
8001
8001
8001
FFFF
8000
8000
8000
8000
4000
4001
6002
2002
1004
0E38
01C0
0000
0000
0080
0080
ENDCHAR
STARTCHAR 1EC8
ENCODING 7880
SWIDTH 360 0
DWIDTH 14 0
BBX 9 36 3 0
BITMAP
7E00
0200
0200
0400
0400
0800
0000
0000
0000
FF80
0800
0800
0800
0800
0800
0800
0800
0800
0800
0800
0800
0800
0800
0800
0800
0800
0800
0800
0800
0800
0800
0800
0800
0800
0800
FF80
ENDCHAR
STARTCHAR 1EC9
ENCODING 7881
SWIDTH 205 0
DWIDTH 8 0
BBX 6 29 2 0
BITMAP
FC
04
08
10
10
20
00
00
00
20
20
20
20
20
20
20
20
20
20
20
20
20
20
20
20
20
20
20
20
ENDCHAR
STARTCHAR 1ECA
ENCODING 7882
SWIDTH 360 0
DWIDTH 14 0
BBX 9 32 3 -5
BITMAP
FF80
0800
0800
0800
0800
0800
0800
0800
0800
0800
0800
0800
0800
0800
0800
0800
0800
0800
0800
0800
0800
0800
0800
0800
0800
0800
FF80
0000
0000
0000
0800
1800
ENDCHAR
STARTCHAR 1ECB
ENCODING 7883
SWIDTH 205 0
DWIDTH 8 0
BBX 1 33 4 -5
BITMAP
80
80
00
00
00
00
00
00
80
80
80
80
80
80
80
80
80
80
80
80
80
80
80
80
80
80
80
80
00
00
00
80
80
ENDCHAR
STARTCHAR 1ECC
ENCODING 7884
SWIDTH 668 0
DWIDTH 26 0
BBX 21 33 3 -5
BITMAP
006000
078E00
080180
1000C0
200040
400020
400020
800010
800010
800010
800010
800008
800008
800008
800008
800008
800008
800008
800010
800010
800010
400010
400020
400020
200040
1000C0
080180
070E00
00F000
000000
000000
002000
006000
ENDCHAR
STARTCHAR 1ECD
ENCODING 7885
SWIDTH 540 0
DWIDTH 21 0
BBX 17 25 2 -5
BITMAP
07F000
180C00
200200
200200
400100
400100
800100
800100
800080
800080
800080
800080
800080
800100
400100
400100
400200
200200
100400
0E3800
01C000
000000
000000
008000
008000
ENDCHAR
STARTCHAR 1ECE
ENCODING 7886
SWIDTH 668 0
DWIDTH 26 0
BBX 21 36 3 0
BITMAP
01F800
000800
000800
001000
001000
002000
000000
000000
006000
078E00
080180
1000C0
200040
400020
400020
800010
800010
800010
800010
800008
800008
800008
800008
800008
800008
800008
800010
800010
800010
400010
400020
400020
200040
1000C0
080180
07FE00
ENDCHAR
STARTCHAR 1ECF
ENCODING 7887
SWIDTH 540 0
DWIDTH 21 0
BBX 17 29 2 0
BITMAP
03F000
001000
002000
002000
004000
008000
000000
000000
000000
07F000
180C00
200200
200200
400100
400100
800100
800100
800080
800080
800080
800080
800080
800100
400100
400100
400200
200200
100400
0FF800
ENDCHAR
STARTCHAR 1ED0
ENCODING 7888
SWIDTH 668 0
DWIDTH 26 0
BBX 21 40 3 0
BITMAP
000020
000040
000080
000100
002100
005200
008800
010400
020200
040100
000000
000000
006000
078E00
080180
1000C0
200040
400020
400020
800010
800010
800010
800010
800008
800008
800008
800008
800008
800008
800008
800010
800010
800010
400010
400020
400020
200040
1000C0
080180
07FE00
ENDCHAR
STARTCHAR 1ED1
ENCODING 7889
SWIDTH 540 0
DWIDTH 21 0
BBX 17 33 2 0
BITMAP
000080
000100
000300
000200
008400
014800
022000
041000
080800
100400
000000
000000
000000
07F000
180C00
200200
200200
400100
400100
800100
800100
800080
800080
800080
800080
800080
800100
400100
400100
400200
200200
100400
0FF800
ENDCHAR
STARTCHAR 1ED2
ENCODING 7890
SWIDTH 668 0
DWIDTH 26 0
BBX 21 40 3 0
BITMAP
200000
200000
100000
080000
042000
045000
008800
010400
020200
040100
000000
000000
006000
078E00
080180
1000C0
200040
400020
400020
800010
800010
800010
800010
800008
800008
800008
800008
800008
800008
800008
800010
800010
800010
400010
400020
400020
200040
1000C0
080180
07FE00
ENDCHAR
STARTCHAR 1ED3
ENCODING 7891
SWIDTH 540 0
DWIDTH 21 0
BBX 17 33 2 0
BITMAP
800000
400000
600000
200000
108000
094000
022000
041000
080800
100400
000000
000000
000000
07F000
180C00
200200
200200
400100
400100
800100
800100
800080
800080
800080
800080
800080
800100
400100
400100
400200
200200
100400
0FF800
ENDCHAR
STARTCHAR 1ED4
ENCODING 7892
SWIDTH 668 0
DWIDTH 26 0
BBX 21 40 3 0
BITMAP
000FC0
000040
000080
000100
002100
005200
008800
010400
020200
040100
000000
000000
006000
078E00
080180
1000C0
200040
400020
400020
800010
800010
800010
800010
800008
800008
800008
800008
800008
800008
800008
800010
800010
800010
400010
400020
400020
200040
1000C0
080180
07FE00
ENDCHAR
STARTCHAR 1ED5
ENCODING 7893
SWIDTH 540 0
DWIDTH 21 0
BBX 17 33 2 0
BITMAP
003F00
000100
000200
000200
008400
014000
022000
041000
080800
100400
000000
000000
000000
07F000
180C00
200200
200200
400100
400100
800100
800100
800080
800080
800080
800080
800080
800100
400100
400100
400200
200200
100400
0FF800
ENDCHAR
STARTCHAR 1ED6
ENCODING 7894
SWIDTH 668 0
DWIDTH 26 0
BBX 21 40 3 0
BITMAP
038000
0C6100
001E00
000000
002000
005000
008800
010400
020200
040100
000000
000000
006000
078E00
080180
1000C0
200040
400020
400020
800010
800010
800010
800010
800008
800008
800008
800008
800008
800008
800008
800010
800010
800010
400010
400020
400020
200040
1000C0
080180
07FE00
ENDCHAR
STARTCHAR 1ED7
ENCODING 7895
SWIDTH 540 0
DWIDTH 21 0
BBX 17 33 2 0
BITMAP
0E0000
118400
007800
000000
008000
014000
022000
041000
080800
100400
000000
000000
000000
07F000
180C00
200200
200200
400100
400100
800100
800100
800080
800080
800080
800080
800080
800100
400100
400100
400200
200200
100400
0FF800
ENDCHAR
STARTCHAR 1ED8
ENCODING 7896
SWIDTH 668 0
DWIDTH 26 0
BBX 21 41 3 -5
BITMAP
006000
00D000
018800
030400
020200
040000
000000
000000
006000
078E00
080180
1000C0
200040
400020
400020
800010
800010
800010
800010
800008
800008
800008
800008
800008
800008
800008
800010
800010
800010
400010
400020
400020
200040
1000C0
080180
070E00
00F000
000000
000000
002000
006000
ENDCHAR
STARTCHAR 1ED9
ENCODING 7897
SWIDTH 540 0
DWIDTH 21 0
BBX 17 34 2 -5
BITMAP
008000
014000
022000
041000
080800
100400
000000
000000
000000
07F000
180C00
200200
200200
400100
400100
800100
800100
800080
800080
800080
800080
800080
800100
400100
400100
400200
200200
100400
0E3800
01C000
000000
000000
008000
008000
ENDCHAR
STARTCHAR 1EDA
ENCODING 7898
SWIDTH 668 0
DWIDTH 26 0
BBX 21 36 3 0
BITMAP
000400
000800
001000
001000
002008
004008
000008
000008
007008
078FF0
080180
1000C0
200040
400020
400020
800010
800010
800010
800010
800008
800008
800008
800008
800008
800008
800008
800010
800010
800010
400010
400020
400020
200040
1000C0
080180
07FE00
ENDCHAR
STARTCHAR 1EDB
ENCODING 7899
SWIDTH 540 0
DWIDTH 21 0
BBX 17 29 2 0
BITMAP
001000
002000
002000
004000
008000
010000
000100
000100
000100
07FF00
180C00
200200
200200
400100
400100
800100
800100
800080
800080
800080
800080
800080
800100
400100
400100
400200
200200
100400
0FF800
ENDCHAR
STARTCHAR 1EDC
ENCODING 7900
SWIDTH 668 0
DWIDTH 26 0
BBX 21 36 3 0
BITMAP
010000
010000
008000
004000
002008
002008
000008
000008
007008
078FF0
080180
1000C0
200040
400020
400020
800010
800010
800010
800010
800008
800008
800008
800008
800008
800008
800008
800010
800010
800010
400010
400020
400020
200040
1000C0
080180
07FE00
ENDCHAR
STARTCHAR 1EDD
ENCODING 7901
SWIDTH 540 0
DWIDTH 21 0
BBX 17 29 2 0
BITMAP
040000
020000
020000
010000
008000
004000
000100
000100
000100
07FF00
180C00
200200
200200
400100
400100
800100
800100
800080
800080
800080
800080
800080
800100
400100
400100
400200
200200
100400
0FF800
ENDCHAR
STARTCHAR 1EDE
ENCODING 7902
SWIDTH 668 0
DWIDTH 26 0
BBX 21 36 3 0
BITMAP
01F800
000800
000800
001000
001008
002008
000008
000008
007008
078FF0
080180
1000C0
200040
400020
400020
800010
800010
800010
800010
800008
800008
800008
800008
800008
800008
800008
800010
800010
800010
400010
400020
400020
200040
1000C0
080180
07FE00
ENDCHAR
STARTCHAR 1EDF
ENCODING 7903
SWIDTH 540 0
DWIDTH 21 0
BBX 17 29 2 0
BITMAP
03F000
001000
002000
002000
004000
008000
000100
000100
000100
07FF00
180C00
200200
200200
400100
400100
800100
800100
800080
800080
800080
800080
800080
800100
400100
400100
400200
200200
100400
0FF800
ENDCHAR
STARTCHAR 1EE0
ENCODING 7904
SWIDTH 668 0
DWIDTH 26 0
BBX 21 34 3 0
BITMAP
07C000
003100
000608
000008
000008
000008
007008
078FF0
080180
1000C0
200040
400020
400020
800010
800010
800010
800010
800008
800008
800008
800008
800008
800008
800008
800010
800010
800010
400010
400020
400020
200040
1000C0
080180
07FE00
ENDCHAR
STARTCHAR 1EE1
ENCODING 7905
SWIDTH 540 0
DWIDTH 21 0
BBX 17 27 2 0
BITMAP
0F0000
10C400
003800
000000
000100
000100
000100
07FF00
180C00
200200
200200
400100
400100
800100
800100
800080
800080
800080
800080
800080
800100
400100
400100
400200
200200
100400
0FF800
ENDCHAR
STARTCHAR 1EE2
ENCODING 7906
SWIDTH 668 0
DWIDTH 26 0
BBX 21 37 3 -5
BITMAP
000008
000008
000008
000008
007008
078FF0
080180
1000C0
200040
400020
400020
800010
800010
800010
800010
800008
800008
800008
800008
800008
800008
800008
800010
800010
800010
400010
400020
400020
200040
1000C0
080180
070E00
00F000
000000
000000
002000
002000
ENDCHAR
STARTCHAR 1EE3
ENCODING 7907
SWIDTH 540 0
DWIDTH 21 0
BBX 17 28 2 -4
BITMAP
000100
000100
000100
07FF00
180C00
200200
200200
400100
400100
800100
800100
800080
800080
800080
800080
800080
800100
400100
400100
400200
200200
100400
0E3800
01C000
000000
000000
008000
008000
ENDCHAR
STARTCHAR 1EE4
ENCODING 7908
SWIDTH 642 0
DWIDTH 25 0
BBX 17 32 4 -5
BITMAP
800080
800080
800080
800080
800080
800080
800080
800080
800080
800080
800080
800080
800080
800080
800080
800080
800080
800080
800080
800080
800080
800080
800080
400100
600100
300200
0C1C00
03E000
000000
000000
008000
00C000
ENDCHAR
STARTCHAR 1EE5
ENCODING 7909
SWIDTH 540 0
DWIDTH 21 0
BBX 14 25 4 -5
BITMAP
8004
8004
8004
8004
8004
8004
8004
8004
8004
8004
8004
8004
8004
8004
8004
8004
800C
4014
6014
18E4
0700
0000
0000
0200
0200
ENDCHAR
STARTCHAR 1EE6
ENCODING 7910
SWIDTH 642 0
DWIDTH 25 0
BBX 17 36 4 0
BITMAP
03F000
001000
002000
002000
004000
008000
000000
000000
000000
800080
800080
800080
800080
800080
800080
800080
800080
800080
800080
800080
800080
800080
800080
800080
800080
800080
800080
800080
800080
800080
800080
800080
400100
600100
300200
0FFC00
ENDCHAR
STARTCHAR 1EE7
ENCODING 7911
SWIDTH 540 0
DWIDTH 21 0
BBX 14 29 4 0
BITMAP
0FC0
0040
0080
0080
0100
0200
0000
0000
0000
8004
8004
8004
8004
8004
8004
8004
8004
8004
8004
8004
8004
8004
8004
8004
8004
800C
4014
6014
1FE4
ENDCHAR
STARTCHAR 1EE8
ENCODING 7912
SWIDTH 642 0
DWIDTH 25 0
BBX 21 36 4 0
BITMAP
001000
002000
002000
004000
008000
010008
000008
000008
000008
800070
800080
800080
800080
800080
800080
800080
800080
800080
800080
800080
800080
800080
800080
800080
800080
800080
800080
800080
800080
800080
800080
800080
400100
600100
300200
0FFC00
ENDCHAR
STARTCHAR 1EE9
ENCODING 7913
SWIDTH 540 0
DWIDTH 21 0
BBX 17 29 4 0
BITMAP
004000
00C000
008000
010000
020000
040080
000080
000080
000080
800700
800400
800400
800400
800400
800400
800400
800400
800400
800400
800400
800400
800400
800400
800400
800400
800C00
401400
601400
1FE400
ENDCHAR
STARTCHAR 1EEA
ENCODING 7914
SWIDTH 642 0
DWIDTH 25 0
BBX 21 36 4 0
BITMAP
040000
020000
010000
010000
008000
004008
000008
000008
000008
800070
800080
800080
800080
800080
800080
800080
800080
800080
800080
800080
800080
800080
800080
800080
800080
800080
800080
800080
800080
800080
800080
800080
400100
600100
300200
0FFC00
ENDCHAR
STARTCHAR 1EEB
ENCODING 7915
SWIDTH 540 0
DWIDTH 21 0
BBX 17 29 4 0
BITMAP
100000
080000
040000
040000
020000
010080
000080
000080
000080
800700
800400
800400
800400
800400
800400
800400
800400
800400
800400
800400
800400
800400
800400
800400
800400
800C00
401400
601400
1FE400
ENDCHAR
STARTCHAR 1EEC
ENCODING 7916
SWIDTH 642 0
DWIDTH 25 0
BBX 21 36 4 0
BITMAP
03F000
001000
002000
002000
004000
008008
000008
000008
000008
800070
800080
800080
800080
800080
800080
800080
800080
800080
800080
800080
800080
800080
800080
800080
800080
800080
800080
800080
800080
800080
800080
800080
400100
600100
300200
0FFC00
ENDCHAR
STARTCHAR 1EED
ENCODING 7917
SWIDTH 540 0
DWIDTH 21 0
BBX 17 29 4 0
BITMAP
0FC000
004000
008000
008000
010000
020080
000080
000080
000080
800700
800400
800400
800400
800400
800400
800400
800400
800400
800400
800400
800400
800400
800400
800400
800400
800C00
401400
601400
1FE400
ENDCHAR
STARTCHAR 1EEE
ENCODING 7918
SWIDTH 642 0
DWIDTH 25 0
BBX 21 34 4 0
BITMAP
0F0000
10C400
003800
000008
000008
000008
000008
800070
800080
800080
800080
800080
800080
800080
800080
800080
800080
800080
800080
800080
800080
800080
800080
800080
800080
800080
800080
800080
800080
800080
400100
600100
300200
0FFC00
ENDCHAR
STARTCHAR 1EEF
ENCODING 7919
SWIDTH 540 0
DWIDTH 21 0
BBX 17 27 4 0
BITMAP
3C0000
431000
00E000
000080
000080
000080
000080
800700
800400
800400
800400
800400
800400
800400
800400
800400
800400
800400
800400
800400
800400
800400
800400
800C00
401400
601400
1FE400
ENDCHAR
STARTCHAR 1EF0
ENCODING 7920
SWIDTH 642 0
DWIDTH 25 0
BBX 21 36 4 -5
BITMAP
000008
000008
000008
000008
800070
800080
800080
800080
800080
800080
800080
800080
800080
800080
800080
800080
800080
800080
800080
800080
800080
800080
800080
800080
800080
800080
800080
400100
600100
300200
0C1C00
03E000
000000
000000
008000
00C000
ENDCHAR
STARTCHAR 1EF1
ENCODING 7921
SWIDTH 540 0
DWIDTH 21 0
BBX 17 29 4 -5
BITMAP
000080
000080
000080
000080
800700
800400
800400
800400
800400
800400
800400
800400
800400
800400
800400
800400
800400
800400
800400
800400
800C00
401400
601400
18E400
070000
000000
000000
020000
060000
ENDCHAR
STARTCHAR 1EF2
ENCODING 7922
SWIDTH 540 0
DWIDTH 21 0
BBX 19 36 1 0
BITMAP
020000
010000
018000
008000
004000
002000
000000
000000
000000
800020
400040
400040
200080
100080
100100
080200
080200
040400
020400
020800
011000
011000
00A000
006000
004000
004000
004000
004000
004000
004000
004000
004000
004000
004000
004000
004000
ENDCHAR
STARTCHAR 1EF3
ENCODING 7923
SWIDTH 437 0
DWIDTH 17 0
BBX 16 37 1 -8
BITMAP
0800
0400
0200
0300
0100
0080
0000
0000
0000
8001
8002
4002
4004
4004
2004
2008
2008
1008
1010
0810
0820
0820
0420
0440
0440
0240
0280
0180
0180
0100
0100
0200
0200
0200
0400
0400
7800
ENDCHAR
STARTCHAR 1EF4
ENCODING 7924
SWIDTH 540 0
DWIDTH 21 0
BBX 19 32 1 -5
BITMAP
800020
400040
400040
200080
100080
100100
080200
080200
040400
020400
020800
011000
011000
00A000
006000
004000
004000
004000
004000
004000
004000
004000
004000
004000
004000
004000
004000
000000
000000
000000
004000
004000
ENDCHAR
STARTCHAR 1EF5
ENCODING 7925
SWIDTH 437 0
DWIDTH 17 0
BBX 16 28 1 -8
BITMAP
8001
8002
4002
4004
4004
2004
2008
2008
1008
1010
0810
0820
0820
0420
0440
0440
0240
0280
0180
0180
0100
0100
0200
0208
020C
0400
0400
7800
ENDCHAR
STARTCHAR 1EF6
ENCODING 7926
SWIDTH 540 0
DWIDTH 21 0
BBX 19 36 1 0
BITMAP
01F800
000800
001000
001000
002000
004000
000000
000000
000000
800020
400040
400040
200080
100080
100100
080200
080200
040400
020400
020800
011000
011000
00A000
006000
004000
004000
004000
004000
004000
004000
004000
004000
004000
004000
004000
004000
ENDCHAR
STARTCHAR 1EF7
ENCODING 7927
SWIDTH 437 0
DWIDTH 17 0
BBX 16 37 1 -8
BITMAP
07E0
0020
0020
0040
0080
0080
0000
0000
0000
8001
8002
4002
4004
4004
2004
2008
2008
1008
1010
0810
0820
0820
0420
0440
0440
0240
0280
0180
0180
0100
0100
0200
0200
0200
0400
0400
7800
ENDCHAR
STARTCHAR 1EF8
ENCODING 7928
SWIDTH 540 0
DWIDTH 21 0
BBX 19 34 1 0
BITMAP
078000
086200
001C00
000000
000000
000000
000000
800020
400040
400040
200080
100080
100100
080200
080200
040400
020400
020800
011000
011000
00A000
006000
004000
004000
004000
004000
004000
004000
004000
004000
004000
004000
004000
004000
ENDCHAR
STARTCHAR 1EF9
ENCODING 7929
SWIDTH 437 0
DWIDTH 17 0
BBX 16 35 1 -8
BITMAP
1F00
2088
0070
0000
0000
0000
0000
8001
8002
4002
4004
4004
2004
2008
2008
1008
1010
0810
0820
0820
0420
0440
0440
0240
0280
0180
0180
0100
0100
0200
0200
0200
0400
0400
7800
ENDCHAR
STARTCHAR 2013
ENCODING 8211
SWIDTH 565 0
DWIDTH 22 0
BBX 19 1 2 11
BITMAP
FFFFE0
ENDCHAR
STARTCHAR 2014
ENCODING 8212
SWIDTH 771 0
DWIDTH 30 0
BBX 26 1 2 11
BITMAP
FFFFFFC0
ENDCHAR
STARTCHAR 2018
ENCODING 8216
SWIDTH 231 0
DWIDTH 9 0
BBX 4 8 3 21
BITMAP
10
20
40
40
40
80
E0
40
ENDCHAR
STARTCHAR 2019
ENCODING 8217
SWIDTH 231 0
DWIDTH 9 0
BBX 4 8 2 21
BITMAP
30
30
10
10
20
20
40
80
ENDCHAR
STARTCHAR 201A
ENCODING 8218
SWIDTH 231 0
DWIDTH 9 0
BBX 4 7 2 -4
BITMAP
30
30
10
20
20
40
80
ENDCHAR
STARTCHAR 201C
ENCODING 8220
SWIDTH 385 0
DWIDTH 15 0
BBX 10 8 3 21
BITMAP
1040
2080
4080
4100
4100
8100
E180
4180
ENDCHAR
STARTCHAR 201D
ENCODING 8221
SWIDTH 385 0
DWIDTH 15 0
BBX 10 8 2 21
BITMAP
30C0
30C0
1040
1040
2080
2080
4100
8000
ENDCHAR
STARTCHAR 201E
ENCODING 8222
SWIDTH 385 0
DWIDTH 15 0
BBX 10 7 2 -4
BITMAP
30C0
30C0
1040
2080
2080
4100
8100
ENDCHAR
STARTCHAR 2020
ENCODING 8224
SWIDTH 540 0
DWIDTH 21 0
BBX 18 37 2 -8
BITMAP
008000
008000
008000
008000
008000
008000
008000
008000
008000
FFFFC0
008000
008000
008000
008000
008000
008000
008000
008000
008000
008000
008000
008000
008000
008000
008000
008000
008000
008000
008000
008000
008000
008000
008000
008000
008000
008000
008000
ENDCHAR
STARTCHAR 2021
ENCODING 8225
SWIDTH 540 0
DWIDTH 21 0
BBX 18 37 2 -8
BITMAP
008000
008000
008000
008000
008000
008000
008000
008000
008000
FFFFC0
008000
008000
008000
008000
008000
008000
008000
008000
008000
008000
008000
008000
008000
008000
008000
008000
008000
FFFFC0
008000
008000
008000
008000
008000
008000
008000
008000
008000
ENDCHAR
STARTCHAR 2022
ENCODING 8226
SWIDTH 334 0
DWIDTH 13 0
BBX 7 7 3 8
BITMAP
7C
FE
FE
FE
FE
7C
10
ENDCHAR
STARTCHAR 2026
ENCODING 8230
SWIDTH 720 0
DWIDTH 28 0
BBX 20 2 4 0
BITMAP
C06030
C06030
ENDCHAR
STARTCHAR 2030
ENCODING 8240
SWIDTH 1234 0
DWIDTH 48 0
BBX 42 28 3 0
BITMAP
040000000000
318001000000
404002000000
404004000000
802008000000
802008000000
802010000000
802020000000
802020000000
802040000000
802080000000
804080000000
404100000000
408200000000
3B020FC03F00
040410204080
000820108080
001020108040
001040110040
002040110040
004040110040
004040110040
008040110040
010040110040
010020108040
020020108080
040010204080
04000FC03F00
ENDCHAR
STARTCHAR 2032
ENCODING 8242
SWIDTH 205 0
DWIDTH 8 0
BBX 3 12 3 15
BITMAP
20
20
40
40
40
40
40
80
80
80
80
80
ENDCHAR
STARTCHAR 2033
ENCODING 8243
SWIDTH 360 0
DWIDTH 14 0
BBX 9 12 3 15
BITMAP
2080
2100
4100
4100
4100
4100
4100
8200
8200
8200
8200
8200
ENDCHAR
STARTCHAR 2039
ENCODING 8249
SWIDTH 282 0
DWIDTH 11 0
BBX 8 13 1 5
BITMAP
01
02
0C
10
20
40
80
40
20
10
08
04
03
ENDCHAR
STARTCHAR 203A
ENCODING 8250
SWIDTH 282 0
DWIDTH 11 0
BBX 8 15 2 4
BITMAP
80
40
20
10
08
04
02
01
02
04
08
10
20
40
80
ENDCHAR
STARTCHAR 2044
ENCODING 8260
SWIDTH 128 0
DWIDTH 5 0
BBX 18 27 -6 0
BITMAP
000040
000080
000100
000100
000200
000400
000400
000800
000800
001000
002000
002000
004000
008000
008000
010000
020000
020000
040000
080000
080000
100000
100000
200000
400000
400000
800000
ENDCHAR
STARTCHAR 2070
ENCODING 8304
SWIDTH 360 0
DWIDTH 14 0
BBX 11 14 2 13
BITMAP
3F00
4080
4040
8040
8040
8040
8020
8020
8020
8040
8040
4040
4080
3F80
ENDCHAR
STARTCHAR 2074
ENCODING 8308
SWIDTH 334 0
DWIDTH 13 0
BBX 11 14 1 13
BITMAP
0180
0280
0480
0480
0880
1080
2080
2080
4080
8080
FFE0
0080
0080
0080
ENDCHAR
STARTCHAR 2075
ENCODING 8309
SWIDTH 334 0
DWIDTH 13 0
BBX 9 14 2 13
BITMAP
7F80
8000
8000
8000
8000
8000
BF00
C080
0080
0080
0080
0080
8080
7F00
ENDCHAR
STARTCHAR 2076
ENCODING 8310
SWIDTH 360 0
DWIDTH 14 0
BBX 10 14 2 13
BITMAP
0400
0800
1000
2000
4000
4000
7F00
4080
8040
8040
8040
8040
4080
3F00
ENDCHAR
STARTCHAR 2077
ENCODING 8311
SWIDTH 334 0
DWIDTH 13 0
BBX 10 14 2 13
BITMAP
FFC0
8080
8080
8100
0100
0200
0200
0200
0400
0400
0800
0800
1000
1000
ENDCHAR
STARTCHAR 2078
ENCODING 8312
SWIDTH 385 0
DWIDTH 15 0
BBX 11 14 2 13
BITMAP
3F80
4040
4040
4040
4040
4040
3F80
2080
4060
8020
8020
8020
4040
3F80
ENDCHAR
STARTCHAR 2079
ENCODING 8313
SWIDTH 360 0
DWIDTH 14 0
BBX 10 14 2 13
BITMAP
3F00
4080
8080
8040
8040
8040
40C0
2180
1E80
0100
0100
0200
0400
0800
ENDCHAR
STARTCHAR 2080
ENCODING 8320
SWIDTH 360 0
DWIDTH 14 0
BBX 11 15 2 0
BITMAP
0E00
3180
4080
4040
8040
8040
8020
8020
8020
8020
8040
8040
4040
2080
1F00
ENDCHAR
STARTCHAR 2081
ENCODING 8321
SWIDTH 360 0
DWIDTH 14 0
BBX 11 14 2 0
BITMAP
0C00
1400
6400
8400
0400
0400
0400
0400
0400
0400
0400
0400
0400
FFE0
ENDCHAR
STARTCHAR 2082
ENCODING 8322
SWIDTH 334 0
DWIDTH 13 0
BBX 10 15 2 0
BITMAP
0800
7300
8080
8080
0080
0080
0080
0100
0200
0400
0800
1000
2000
4000
FFC0
ENDCHAR
STARTCHAR 2083
ENCODING 8323
SWIDTH 334 0
DWIDTH 13 0
BBX 9 15 2 0
BITMAP
1800
6300
8080
0080
0080
0080
0100
3E00
0300
0080
0080
0080
0080
8100
7E00
ENDCHAR
STARTCHAR 2084
ENCODING 8324
SWIDTH 334 0
DWIDTH 13 0
BBX 11 14 1 0
BITMAP
0180
0280
0480
0480
0880
1080
2080
4080
4080
8080
FFE0
0080
0080
0080
ENDCHAR
STARTCHAR 2085
ENCODING 8325
SWIDTH 334 0
DWIDTH 13 0
BBX 9 14 2 0
BITMAP
FF00
8000
8000
8000
8000
8C00
F300
0080
0080
0080
0080
0080
8080
7F00
ENDCHAR
STARTCHAR 2086
ENCODING 8326
SWIDTH 360 0
DWIDTH 14 0
BBX 10 14 2 0
BITMAP
0400
0800
1000
2000
4000
4C00
B180
C080
8040
8040
8040
8040
4080
3F00
ENDCHAR
STARTCHAR 2087
ENCODING 8327
SWIDTH 334 0
DWIDTH 13 0
BBX 10 14 2 0
BITMAP
FFC0
8080
8080
0100
0100
0200
0200
0400
0400
0400
0800
0800
1000
1000
ENDCHAR
STARTCHAR 2088
ENCODING 8328
SWIDTH 385 0
DWIDTH 15 0
BBX 11 15 2 0
BITMAP
0400
3980
4040
4040
4040
4040
2040
1F80
30C0
4020
8020
8020
8020
4040
3F80
ENDCHAR
STARTCHAR 2089
ENCODING 8329
SWIDTH 360 0
DWIDTH 14 0
BBX 10 15 2 0
BITMAP
0C00
7300
C080
8040
8040
8040
8040
40C0
3380
0C80
0100
0100
0200
0400
0800
ENDCHAR
STARTCHAR 20A1
ENCODING 8353
SWIDTH 591 0
DWIDTH 23 0
BBX 18 33 3 -3
BITMAP
008400
008400
008400
03FC00
0D0A00
110900
210880
410840
410840
810800
820800
820800
820800
821000
821000
821000
821000
821000
821000
841000
841000
842000
842000
442000
442040
442040
242080
182100
0C2200
0BFC00
084000
084000
084000
ENDCHAR
STARTCHAR 20A4
ENCODING 8356
SWIDTH 565 0
DWIDTH 22 0
BBX 17 28 3 0
BITMAP
00C000
071C00
080200
100100
200080
200000
400000
400000
400000
400000
400000
FFF800
200000
200000
100000
100000
100000
FFF800
080000
080000
080000
080000
100000
100000
300000
200000
400000
FFFF80
ENDCHAR
STARTCHAR 20A6
ENCODING 8358
SWIDTH 642 0
DWIDTH 25 0
BBX 24 27 1 0
BITMAP
180008
180008
140008
120008
120008
110008
110008
108008
104008
104008
FFFFFF
102008
101008
101008
100808
100408
FFFFFF
100208
100208
100108
100088
100088
100048
100048
100028
100028
100018
ENDCHAR
STARTCHAR 20A8
ENCODING 8360
SWIDTH 694 0
DWIDTH 27 0
BBX 22 27 4 0
BITMAP
FF0000
80C000
804000
802000
802000
802000
802000
802000
802000
8021F8
802104
804200
80C200
FF0200
820200
810100
810080
808040
808030
804008
804004
802004
802004
801004
800804
800C0C
8003F8
ENDCHAR
STARTCHAR 20A9
ENCODING 8361
SWIDTH 900 0
DWIDTH 35 0
BBX 31 27 2 0
BITMAP
80010002
80028002
80028002
40028004
40048004
40044004
40044004
20044008
20082008
20082008
FFFFFFFE
10102010
10101010
10101010
10101020
08201020
FFFFFFFE
08200820
04200840
04400440
04400440
04400440
02800480
02800280
02800280
02800300
01000100
ENDCHAR
STARTCHAR 20AA
ENCODING 8362
SWIDTH 745 0
DWIDTH 29 0
BBX 22 27 4 0
BITMAP
FFF004
800804
800404
800404
800204
810204
810204
810204
810204
810204
810204
810204
810204
810204
810204
810204
810204
810204
810204
810204
810204
810204
810008
810008
810008
810010
81FFE0
ENDCHAR
STARTCHAR 20AB
ENCODING 8363
SWIDTH 540 0
DWIDTH 21 0
BBX 17 29 3 0
BITMAP
000200
000200
000200
01FF80
000200
000200
000200
000200
0FE200
301200
400A00
400600
800200
800200
800200
800200
800200
800200
800200
800200
800200
400600
400A00
301200
0FE200
000000
000000
000000
FFFF00
ENDCHAR
STARTCHAR 20AC
ENCODING 8364
SWIDTH 591 0
DWIDTH 23 0
BBX 18 28 3 0
BITMAP
006000
071C00
080300
100080
200080
400040
400000
C00000
800000
800000
800000
FFE000
800000
800000
800000
800000
800000
FFE000
800000
800000
800000
400000
400000
400040
200080
100080
080300
07FC00
ENDCHAR
STARTCHAR 20AD
ENCODING 8365
SWIDTH 565 0
DWIDTH 22 0
BBX 19 27 1 0
BITMAP
100020
100040
100080
100100
100200
100200
100400
100800
101000
102000
104000
104000
FFFFE0
108000
104000
102000
101000
101000
100800
100400
100200
100100
100100
100080
100040
100020
100020
ENDCHAR
STARTCHAR 20AE
ENCODING 8366
SWIDTH 565 0
DWIDTH 22 0
BBX 21 27 1 0
BITMAP
FFFFF8
002000
002000
002000
002000
002000
002000
002000
002180
002600
003800
006000
01A000
062000
082300
002C00
003000
00E000
032000
0C2000
002000
002000
002000
002000
002000
002000
002000
ENDCHAR
STARTCHAR 20B1
ENCODING 8369
SWIDTH 591 0
DWIDTH 23 0
BBX 22 27 1 0
BITMAP
1FFE00
100180
100040
100040
100040
FFFFFC
100020
100020
100020
100020
100020
FFFFFC
100040
100040
100080
100180
1FFE00
100000
100000
100000
100000
100000
100000
100000
100000
100000
100000
ENDCHAR
STARTCHAR 20B2
ENCODING 8370
SWIDTH 642 0
DWIDTH 25 0
BBX 19 33 3 -3
BITMAP
000800
000800
001000
03FC00
0C1300
101180
201080
401040
402000
402000
802000
802000
802000
802000
802000
804000
804000
807FE0
804020
804020
804020
808020
808020
408020
408020
208040
208040
108080
0D0300
03FC00
010000
010000
010000
ENDCHAR
STARTCHAR 20B4
ENCODING 8372
SWIDTH 617 0
DWIDTH 24 0
BBX 20 28 2 0
BITMAP
00C000
071C00
080200
100100
000100
000080
000080
000080
000080
000100
000100
FFFEE0
000800
003000
00C000
010000
060000
FFFFF0
100000
100000
200000
200000
200000
100000
100040
180080
0C0300
03FC00
ENDCHAR
STARTCHAR 20B5
ENCODING 8373
SWIDTH 591 0
DWIDTH 23 0
BBX 18 33 3 -3
BITMAP
001000
001000
001000
03F800
081600
101100
202080
402040
402040
802000
802000
802000
804000
804000
804000
804000
804000
804000
804000
808000
808000
808000
808000
408000
408040
410040
210080
110100
0D0200
03FC00
010000
010000
020000
ENDCHAR
STARTCHAR 20B8
ENCODING 8376
SWIDTH 591 0
DWIDTH 23 0
BBX 21 27 1 0
BITMAP
FFFFF8
000000
000000
000000
000000
000000
7FFFF0
002000
002000
002000
002000
002000
002000
002000
002000
002000
002000
002000
002000
002000
002000
002000
002000
002000
002000
002000
002000
ENDCHAR
STARTCHAR 20B9
ENCODING 8377
SWIDTH 591 0
DWIDTH 23 0
BBX 20 27 3 0
BITMAP
FFFFF0
000800
000400
000400
000200
000200
FFFFF0
000200
000200
000200
000200
000400
000800
007000
FF8000
010000
008000
004000
002000
002000
001000
000800
000400
000400
000200
000100
000080
ENDCHAR
STARTCHAR 20BA
ENCODING 8378
SWIDTH 591 0
DWIDTH 23 0
BBX 21 27 1 0
BITMAP
040000
040000
040000
040000
040400
041800
046000
058000
060000
1C0000
640400
841800
046000
058000
060000
1C0008
640008
840010
040010
040010
040010
040020
040020
040040
040080
040100
07FE00
ENDCHAR
STARTCHAR 20BD
ENCODING 8381
SWIDTH 591 0
DWIDTH 23 0
BBX 21 27 1 0
BITMAP
1FFF80
100040
100020
100010
100010
100010
100010
100008
100010
100010
100010
100030
100020
1001C0
FFFE00
100000
100000
100000
100000
FFFC00
100000
100000
100000
100000
100000
100000
100000
ENDCHAR
STARTCHAR 20BF
ENCODING 8383
SWIDTH 591 0
DWIDTH 23 0
BBX 17 33 4 -3
BITMAP
084000
084000
084000
084000
F7B800
800400
800200
800200
800100
800100
800100
800100
800200
800200
800400
FFF800
800C00
800200
800100
800080
800080
800080
800080
800080
800080
800100
800100
800200
FFFC00
084000
084000
084000
084000
ENDCHAR
STARTCHAR 2113
ENCODING 8467
SWIDTH 437 0
DWIDTH 17 0
BBX 14 29 2 0
BITMAP
07C0
0820
1020
1020
1020
1020
1020
1020
1020
1020
1040
1040
1040
1080
1080
1100
1200
1200
1400
1800
1000
5000
9000
1000
1000
1004
1008
0810
07E0
ENDCHAR
STARTCHAR 2116
ENCODING 8470
SWIDTH 1002 0
DWIDTH 39 0
BBX 34 28 4 0
BITMAP
0000000800
C000206300
C000208080
A000210080
9000210040
9000210040
8800210040
8400210040
8400210040
8200210040
8200210080
8100208080
8080204100
8080201E00
8040200000
8020200000
802021FFC0
8010200000
8018200000
8008200000
8004200000
8004200000
8002200000
8001200000
8001200000
8000A00000
8000600000
8000600000
ENDCHAR
STARTCHAR 2122
ENCODING 8482
SWIDTH 617 0
DWIDTH 24 0
BBX 20 10 1 17
BITMAP
FF0810
081830
081430
081450
081250
081290
081190
081010
081010
081010
ENDCHAR
STARTCHAR 2126
ENCODING 8486
SWIDTH 694 0
DWIDTH 27 0
BBX 21 28 3 0
BITMAP
007000
078F00
080080
100040
200020
400010
400010
400010
800008
800008
800008
800008
800008
800008
800008
800008
800008
800008
800008
400010
400010
200020
200020
100040
080080
060300
010400
FF07F8
ENDCHAR
STARTCHAR 212E
ENCODING 8494
SWIDTH 668 0
DWIDTH 26 0
BBX 23 28 2 0
BITMAP
003800
01C700
0600C0
080020
100010
200008
400008
400004
400004
C00006
C00006
C00006
C00006
C00006
FFFFF8
C00000
C00000
C00000
C00000
C00000
400000
400000
200004
200008
100008
080030
060060
01FF80
ENDCHAR
STARTCHAR 2150
ENCODING 8528
SWIDTH 874 0
DWIDTH 34 0
BBX 30 27 2 0
BITMAP
0C000080
14000100
24000200
44000200
84000400
04000400
04000800
04001000
04001000
04002000
04004000
04004000
04008000
04010FFC
7BC10804
00020808
00040008
00040008
00080010
00080010
00100020
00200020
00200040
00400040
00800040
00800080
01000080
ENDCHAR
STARTCHAR 2151
ENCODING 8529
SWIDTH 874 0
DWIDTH 34 0
BBX 31 27 2 0
BITMAP
0C000080
14000100
24000200
44000200
84000400
04000400
04000800
04001000
04001000
04002000
04004000
04004000
04008040
04010398
7BC10404
00020404
00040402
00040402
00080406
0008020C
0010019C
00200064
00200008
00400010
00800010
00800020
01000040
ENDCHAR
STARTCHAR 2153
ENCODING 8531
SWIDTH 874 0
DWIDTH 34 0
BBX 30 27 2 0
BITMAP
0C000080
14000100
24000200
44000200
84000400
04000400
04000800
04001000
04001000
04002000
04004000
04004000
04008060
04010318
7BC10408
00020004
00040004
00040008
00080008
000801F0
00100018
00200004
00200004
00400004
00800004
00800408
010003F0
ENDCHAR
STARTCHAR 2154
ENCODING 8532
SWIDTH 848 0
DWIDTH 33 0
BBX 29 27 2 0
BITMAP
3F000100
C0800200
80800400
00800400
00800800
00801000
01001000
01002000
02002000
0C004000
10008000
20008000
40010180
80020670
7F820810
00040008
00080008
00080010
00100010
002003E0
00200030
00400008
00400008
00800008
01000008
01000810
020007E0
ENDCHAR
STARTCHAR 2155
ENCODING 8533
SWIDTH 848 0
DWIDTH 33 0
BBX 30 27 2 0
BITMAP
0C000080
14000100
24000200
44000200
84000400
04000400
04000800
04001000
04001000
04002000
04004000
04004000
04008000
040107F8
7BC10400
00020400
00040400
00040400
00080440
00080718
00100008
00200004
00200004
00400004
00800004
00800408
010003F0
ENDCHAR
STARTCHAR 2156
ENCODING 8534
SWIDTH 822 0
DWIDTH 32 0
BBX 29 27 2 0
BITMAP
3F000100
C0800200
80800400
00800400
00800800
00801000
01001000
01002000
02002000
0C004000
10008000
20008000
40010000
80020FF0
7F820800
00040800
00080800
00080800
00100880
00200E30
00200810
00400008
00400008
00800008
01000008
01000810
020007E0
ENDCHAR
STARTCHAR 2157
ENCODING 8535
SWIDTH 822 0
DWIDTH 32 0
BBX 29 27 2 0
BITMAP
7F000200
81000200
00800400
00800800
00800800
01001000
3E002000
01002000
00804000
00804000
00808000
00810000
80810000
43020FE0
3C040800
00040800
00081000
00101000
001011C0
00201620
00200810
00400010
00800008
00800008
01000010
02001010
02000FE0
ENDCHAR
STARTCHAR 2158
ENCODING 8536
SWIDTH 822 0
DWIDTH 32 0
BBX 30 27 1 0
BITMAP
01800080
02800100
04800200
04800200
08800400
10800800
20800800
20801000
40801000
80802000
FFE04000
00804000
00808000
008107F8
00010400
00020400
00040400
00040400
00080440
00080718
00100408
00200004
00200004
00400004
00800004
00800408
010003F0
ENDCHAR
STARTCHAR 2159
ENCODING 8537
SWIDTH 874 0
DWIDTH 34 0
BBX 30 27 2 0
BITMAP
0C000080
14000100
24000200
44000200
84000400
04000400
04000800
04001000
04001000
04002000
04004000
04004000
04008000
04010040
7BC10080
00020100
00040200
00040400
000804C0
00080B18
00100408
00200804
00200804
00400804
00800804
00800408
010003F0
ENDCHAR
STARTCHAR 215A
ENCODING 8538
SWIDTH 822 0
DWIDTH 32 0
BBX 28 27 2 0
BITMAP
7F800200
80000400
80000400
80000800
80001000
80001000
BF002000
C0802000
00804000
00808000
00808000
00810000
80820000
63020180
1C040200
00080400
00080800
00100800
00101380
00201C60
00401010
00401010
00801010
01001010
01001010
02001010
04000FE0
ENDCHAR
STARTCHAR 215B
ENCODING 8539
SWIDTH 925 0
DWIDTH 36 0
BBX 32 27 2 0
BITMAP
0C000080
14000100
24000200
44000200
84000400
04000400
04000800
04001000
04001000
04002000
04004000
04004000
04008030
0401018C
7BC10202
00020402
00040402
00040202
00080204
000801F8
0010030C
00200402
00200401
00400401
00800402
00800202
010001FC
ENDCHAR
STARTCHAR 215C
ENCODING 8540
SWIDTH 874 0
DWIDTH 34 0
BBX 30 27 2 0
BITMAP
7F000200
81000200
00800400
00800800
00800800
01001000
3E002000
01002000
00804000
00804000
00808000
00810000
808100C0
43020738
3C040808
00040804
00080804
00100808
00100408
002003F0
00200618
00400804
00801004
00801004
01000804
02000804
020007F8
ENDCHAR
STARTCHAR 215D
ENCODING 8541
SWIDTH 874 0
DWIDTH 34 0
BBX 30 27 2 0
BITMAP
7F800200
80000400
80000400
80000800
80001000
80001000
BF002000
C0802000
00804000
00808000
00808000
00810000
80820180
63020630
1C040808
00080808
00080808
00100808
00100408
002003F0
00400618
00400804
00801004
01001004
01001004
02000808
040007F0
ENDCHAR
STARTCHAR 215E
ENCODING 8542
SWIDTH 848 0
DWIDTH 33 0
BBX 29 27 2 0
BITMAP
FFC00400
80800400
80800800
81001000
01001000
02002000
02004000
02004000
04008000
04010000
08010000
08020000
10020100
10040E60
00081010
00081008
00101008
00201010
00200810
004007E0
00800C30
00801008
01002008
02002008
02002008
04001010
04000FE0
ENDCHAR
STARTCHAR 2190
ENCODING 8592
SWIDTH 745 0
DWIDTH 29 0
BBX 27 13 1 7
BITMAP
02000000
04000000
08000000
10000000
20000000
40000000
FFFFFFE0
40000000
20000000
10000000
08000000
04000000
02000000
ENDCHAR
STARTCHAR 2191
ENCODING 8593
SWIDTH 745 0
DWIDTH 29 0
BBX 15 28 7 0
BITMAP
0100
0380
0540
0D60
1930
3118
610C
C106
0100
0100
0100
0100
0100
0100
0100
0100
0100
0100
0100
0100
0100
0100
0100
0100
0100
0100
0100
0100
ENDCHAR
STARTCHAR 2192
ENCODING 8594
SWIDTH 745 0
DWIDTH 29 0
BBX 27 13 1 7
BITMAP
00000800
00000400
00000200
00000100
00000080
00000040
FFFFFFE0
00000040
00000080
00000100
00000200
00000400
00000800
ENDCHAR
STARTCHAR 2193
ENCODING 8595
SWIDTH 745 0
DWIDTH 29 0
BBX 13 27 8 0
BITMAP
0200
0200
0200
0200
0200
0200
0200
0200
0200
0200
0200
0200
0200
0200
0200
0200
0200
0200
0200
0200
8208
4210
2220
1240
0A80
0700
0200
ENDCHAR
STARTCHAR 2194
ENCODING 8596
SWIDTH 745 0
DWIDTH 29 0
BBX 27 13 1 7
BITMAP
02000800
04000400
08000200
10000100
20000080
40000040
FFFFFFE0
40000040
20000080
10000100
08000200
04000400
02000800
ENDCHAR
STARTCHAR 2195
ENCODING 8597
SWIDTH 745 0
DWIDTH 29 0
BBX 15 28 7 0
BITMAP
0100
0380
0540
0D60
1930
3118
610C
C106
0100
0100
0100
0100
0100
0100
0100
0100
0100
0100
0100
0100
0100
4104
2108
1110
0920
0540
0380
0100
ENDCHAR
STARTCHAR 2196
ENCODING 8598
SWIDTH 745 0
DWIDTH 29 0
BBX 20 20 5 4
BITMAP
FFC000
C00000
A00000
900000
880000
840000
820000
810000
808000
804000
002000
001000
000800
000400
000200
000100
000080
000040
000020
000010
ENDCHAR
STARTCHAR 2197
ENCODING 8599
SWIDTH 745 0
DWIDTH 29 0
BBX 20 20 4 4
BITMAP
003FF0
000030
000050
000090
000110
000210
000410
000810
001010
002010
004000
008000
010000
020000
040000
080000
100000
200000
400000
800000
ENDCHAR
STARTCHAR 2198
ENCODING 8600
SWIDTH 745 0
DWIDTH 29 0
BBX 20 20 4 4
BITMAP
800000
400000
200000
100000
080000
040000
020000
010000
008000
004000
002010
001010
000810
000410
000210
000110
000090
000050
000030
003FF0
ENDCHAR
STARTCHAR 2199
ENCODING 8601
SWIDTH 745 0
DWIDTH 29 0
BBX 20 20 5 4
BITMAP
000010
000020
000040
000080
000100
000200
000400
000800
001000
002000
804000
808000
810000
820000
840000
880000
900000
A00000
C00000
FFC000
ENDCHAR
STARTCHAR 21A9
ENCODING 8617
SWIDTH 745 0
DWIDTH 29 0
BBX 27 20 1 3
BITMAP
00000800
00000300
000000C0
00000040
00000020
00000020
00000020
02000020
04000020
08000020
10000040
20000040
40000180
FFFFFE00
40000000
20000000
10000000
08000000
04000000
02000000
ENDCHAR
STARTCHAR 21AA
ENCODING 8618
SWIDTH 745 0
DWIDTH 29 0
BBX 27 20 1 3
BITMAP
02000000
18000000
60000000
40000000
80000000
80000000
80000000
80000800
80000400
80000200
80000100
40000080
30000040
0FFFFFE0
00000040
00000080
00000100
00000200
00000400
00000800
ENDCHAR
ENDFONT
